<svg class="main-svg" xmlns="http://www.w3.org/2000/svg" xmlns:xlink="http://www.w3.org/1999/xlink" width="700" height="450"><rect x="0" y="0" width="700" height="450" style="fill: rgb(255, 255, 255); fill-opacity: 1;"/><defs id="defs-5cca85"><g class="clips"><clipPath class="axesclip" id="clip5cca85x"><rect x="60" y="0" width="539" height="450"/></clipPath><clipPath class="axesclip" id="clip5cca85y"><rect x="0" y="60" width="700" height="330"/></clipPath><clipPath class="axesclip" id="clip5cca85xy"><rect x="60" y="60" width="539" height="330"/></clipPath><clipPath class="plotclip" id="clip5cca85xyplot"><rect width="539" height="330"/></clipPath></g></defs><g class="bglayer"><rect class="bg" x="60" y="60" width="539" height="330" style="fill: rgb(255, 255, 255); fill-opacity: 1; stroke-width: 0;"/></g><g class="layer-below"><g class="imagelayer"/><g class="shapelayer"/></g><g class="cartesianlayer"><g class="subplot xy"><g class="layer-subplot"><g class="shapelayer"/><g class="imagelayer"/></g><g class="gridlayer" transform="translate(60,60)"><path class="xgrid crisp" d="M0,0v330" transform="translate(84.99,0)" style="stroke: rgb(238, 238, 238); stroke-opacity: 1; stroke-width: 1px;"/><path class="xgrid crisp" d="M0,0v330" transform="translate(170.41,0)" style="stroke: rgb(238, 238, 238); stroke-opacity: 1; stroke-width: 1px;"/><path class="xgrid crisp" d="M0,0v330" transform="translate(255.83,0)" style="stroke: rgb(238, 238, 238); stroke-opacity: 1; stroke-width: 1px;"/><path class="xgrid crisp" d="M0,0v330" transform="translate(341.25,0)" style="stroke: rgb(238, 238, 238); stroke-opacity: 1; stroke-width: 1px;"/><path class="xgrid crisp" d="M0,0v330" transform="translate(426.67,0)" style="stroke: rgb(238, 238, 238); stroke-opacity: 1; stroke-width: 1px;"/><path class="xgrid crisp" d="M0,0v330" transform="translate(512.09,0)" style="stroke: rgb(238, 238, 238); stroke-opacity: 1; stroke-width: 1px;"/><path class="ygrid crisp" d="M0,0h539" transform="translate(0,244.74)" style="stroke: rgb(238, 238, 238); stroke-opacity: 1; stroke-width: 1px;"/><path class="ygrid crisp" d="M0,0h539" transform="translate(0,175.99)" style="stroke: rgb(238, 238, 238); stroke-opacity: 1; stroke-width: 1px;"/><path class="ygrid crisp" d="M0,0h539" transform="translate(0,107.23)" style="stroke: rgb(238, 238, 238); stroke-opacity: 1; stroke-width: 1px;"/><path class="ygrid crisp" d="M0,0h539" transform="translate(0,38.48)" style="stroke: rgb(238, 238, 238); stroke-opacity: 1; stroke-width: 1px;"/></g><g class="overgrid"/><g class="zerolinelayer" transform="translate(60,60)"><path class="yzl zl crisp" d="M0,0h539" transform="translate(0,313.5)" style="stroke: rgb(68, 68, 68); stroke-opacity: 1; stroke-width: 1px;"/></g><g class="overzero"/><g class="plot" transform="translate(60, 60)" clip-path="url(#clip5cca85xyplot)"><g class="imagelayer"/><g class="maplayer"/><g class="barlayer"/><g class="carpetlayer"/><g class="boxlayer"/><g class="scatterlayer"><g class="trace scatter trace036cb7" style="stroke-miterlimit: 2; opacity: 1;"><path class="js-line" d="M0,215.48L0.43,209.98L0.85,193.65L1.71,233.01L2.14,225.35L2.56,232.05L2.99,220.71L3.42,219.83L3.84,221.04L4.27,217.59L4.7,219.21L5.13,219.97L5.55,219.85L5.98,221.32L6.41,216.16L6.83,216.29L7.26,218.73L7.69,223.66L8.11,218.78L9.4,237.54L9.82,230.87L10.25,236.56L10.68,231.11L11.1,230.94L11.53,216.94L12.81,203.45L13.24,201.09L13.67,199.27L14.09,204.93L14.52,211.97L14.95,206.91L15.38,201.4L16.66,175.95L17.08,178.4L18.79,162.35L19.22,161.87L20.5,170.54L20.93,178.16L21.78,191.35L22.21,188.36L22.64,189.82L23.06,169.36L23.49,184.65L23.92,180.21L24.34,183.41L24.77,194.31L25.2,190.83L25.63,206.47L26.05,204.15L26.48,204.57L26.91,217.55L27.33,222.3L27.76,217.6L28.19,234.1L28.62,229.17L29.04,229.84L29.47,232.75L29.9,229.76L30.32,222.38L30.75,231.46L31.18,224.97L31.61,231.16L32.89,240.91L33.31,240.51L33.74,242.49L34.17,241.03L34.6,246.66L35.02,251.85L35.45,234.68L36.3,252.29L36.73,243.36L37.58,246.96L38.01,233.48L38.44,254.23L38.87,247.67L39.29,248.61L39.72,247.08L40.15,251.18L40.57,244.06L41,252.84L42.28,240.15L42.71,246.71L43.14,249.77L43.56,244.43L43.99,253.7L44.42,244.8L44.85,229.63L45.27,244.68L46.13,250.09L46.55,237.8L47.84,251.46L48.26,236.99L49.12,247.32L49.54,246.53L49.97,237.72L50.4,245.72L50.82,245.68L51.25,249.32L51.68,247.91L52.11,248.24L52.53,239.23L53.81,218.79L54.24,222.44L55.52,204.47L55.95,209.37L57.23,220.33L57.66,212.67L58.94,186.23L59.37,177.7L59.79,191.06L60.22,178.27L60.65,183.55L61.08,174.95L61.5,174.93L61.93,177.91L62.36,167.43L62.78,180.22L63.21,183.17L63.64,177.45L64.92,159.38L65.35,175.76L66.63,194.17L67.05,183.61L68.34,167.86L68.76,169.5L69.19,175.29L69.62,172.84L70.04,174.81L70.47,173.58L70.9,174.8L71.75,198.07L72.18,198.3L72.61,192.63L73.03,202.19L73.46,203.43L73.89,214.38L74.32,220.6L74.74,212.54L75.6,209.29L76.02,210.9L76.45,216.13L76.88,214.48L77.31,200.89L77.73,207.58L78.16,196.65L78.59,198.98L79.01,194.05L79.44,200.13L79.87,194.27L82,219.3L82.43,215.3L82.86,226.91L83.28,217.39L83.71,214.51L84.14,224.23L84.57,221.86L84.99,226.29L85.42,224.92L85.85,234.26L86.27,230.89L86.7,235.16L87.56,217.28L87.98,235.55L89.69,217.91L90.12,220.06L90.97,213.81L91.4,217.89L91.83,216.38L92.25,216.65L92.68,224.67L93.53,220.49L93.96,225.06L95.24,220.67L95.67,225.95L96.1,217.79L96.52,224.31L96.95,222.06L97.38,214.19L98.66,223.58L99.09,211.35L99.51,210.22L99.94,197.08L100.37,188.34L100.8,188.91L101.22,193.94L101.65,192.42L102.08,180.75L102.5,182.29L102.93,188.73L103.79,198.93L104.21,194.25L104.64,184.76L105.07,199.77L105.92,187.56L106.35,191.29L107.63,161.83L108.06,155.57L109.34,173.57L109.76,168.2L110.62,147.87L111.05,158.75L111.47,160.92L111.9,158.86L112.75,172.8L113.18,150.38L114.46,211.14L114.89,216.72L115.32,220.72L115.74,216.78L116.17,238.01L116.6,231.26L117.03,234.53L117.45,240.53L117.88,234.2L118.31,240.2L118.73,234.92L120.02,212.79L120.44,221.12L121.3,242.67L121.72,235.92L122.15,242.29L122.58,231.23L123,237.41L123.43,240.78L123.86,225.04L124.29,227.28L124.71,227.22L125.14,227.77L125.57,218.69L125.99,222.93L126.42,215.44L127.7,227.9L128.13,228.58L128.56,232.67L128.98,231.26L129.41,225.28L131.12,241.95L131.55,240.09L132.83,211.07L133.26,216.05L133.68,209.54L134.11,206.56L134.54,194.96L136.24,219.43L136.67,197.04L137.53,210.69L137.95,206.01L138.38,206.97L138.81,219.69L139.23,210.53L139.66,217.36L140.09,224.63L141.37,236.64L141.8,235.49L142.22,238.21L142.65,235.95L143.08,230.9L143.51,237.71L145.64,190.44L146.07,198.71L147.35,195.22L147.78,203.1L149.06,222.17L149.48,224.86L150.34,216.57L150.77,219.54L152.05,201.56L152.47,208.24L153.76,188.35L154.18,206.9L155.46,227.18L155.89,220.29L158.03,240.06L158.45,227.17L159.31,237.58L159.74,236.5L160.59,237.74L161.02,243.02L162.3,235.43L162.73,242.99L163.15,245.3L163.58,244.57L164.01,237.21L164.43,238.59L164.86,235.02L165.29,237.61L165.71,234.21L166.14,227.15L166.57,232.29L167,233.65L169.13,221.56L169.56,231.14L169.99,228.79L170.41,232.68L170.84,219.08L171.27,236.05L171.69,232.85L172.12,235.85L174.68,217.1L175.11,214.9L175.54,211.48L175.97,215.67L176.39,216.04L176.82,217.46L177.25,219.35L177.67,215.29L178.1,208.72L178.53,216.63L178.95,206.43L179.38,211.74L179.81,216.14L180.66,220.36L181.09,216.84L181.52,216.04L181.94,210.88L182.37,220.97L182.8,209.91L183.65,204.36L184.08,195.92L184.93,203.67L185.36,200.8L185.79,199.91L186.22,201.77L186.64,199.6L187.07,206.64L187.5,204.76L187.92,194.91L188.78,190.04L189.21,192.33L190.06,204.95L190.49,211.24L191.77,219.04L192.19,214.01L193.48,226.29L193.9,246.14L195.18,230.01L195.61,222.08L196.04,226.01L196.47,214.55L196.89,211.37L197.32,220.65L197.75,214.4L198.17,230.36L199.03,223.14L199.46,238.73L199.88,235.81L200.31,223.39L200.74,216.5L201.16,226.76L204.15,175.55L204.58,185.24L205.01,188.44L205.44,179.19L206.72,155.52L207.14,163.63L207.57,159.53L208,172.38L208.42,175.53L208.85,185.67L209.28,191.79L209.71,184.19L210.13,183.78L210.56,187.02L211.41,168.17L211.84,169.49L212.27,175.69L212.7,178.5L213.12,175.49L213.98,194.58L214.4,180.31L215.69,201.82L216.11,202.73L216.54,202.21L216.97,202.85L217.39,208.83L219.53,187.39L219.96,187.5L220.38,172.92L221.24,160.05L221.66,149.25L222.09,145.99L222.52,150.13L223.37,158.65L223.8,164.41L224.65,171.84L225.08,171.55L225.51,167.85L225.94,161.76L226.36,135.93L227.22,147.55L227.64,144.85L228.07,145.77L228.5,145.2L228.93,137.35L231.06,86.22L231.49,103.5L231.92,98.58L232.34,100.89L232.77,103.85L233.62,112.31L234.05,107.35L235.76,88.32L236.19,87.5L237.89,65.7L238.32,90.11L239.18,68.75L239.6,73.49L242.17,100.19L242.59,92.01L243.02,90.26L243.45,93.35L243.87,100.76L244.3,83.04L244.73,43.95L245.16,48.7L245.58,49.26L246.01,49.31L246.44,59.46L248.15,136.78L248.57,148.68L249.85,86.77L250.28,92.87L250.71,109.78L251.13,106.34L251.56,121.64L253.7,183.77L254.12,176.89L254.98,166.07L255.41,166.54L255.83,154.63L256.26,160.2L256.69,159.57L257.11,160.7L257.54,167.03L257.97,164.05L258.4,153.66L258.82,146.91L259.25,154.5L260.1,143.12L260.53,148.07L262.24,84.3L262.67,55.11L263.95,28.22L264.37,28.75L264.8,36.09L266.08,63.12L266.51,67.38L268.22,125.18L268.65,119.99L269.07,126.03L269.5,120.17L270.78,144.22L271.21,135.34L271.64,137.7L272.06,163.71L272.49,161.06L272.92,174.44L273.77,173.89L274.2,170.54L274.63,176.02L275.05,170.51L276.33,145.96L276.76,152.37L277.61,159.43L278.04,140.67L279.32,175.8L279.75,178.46L280.18,178.34L280.6,181.76L281.03,168.47L281.46,185.46L281.89,178.65L282.31,181.43L282.74,179.83L284.02,162.71L284.45,162.59L284.88,162.39L285.3,152.88L285.73,171.57L286.16,161.09L286.58,159.84L287.01,175.38L287.44,173.94L287.87,171.78L288.29,180.98L288.72,178.78L289.15,171.75L290.43,176.19L290.85,164.22L292.14,192.4L292.56,176.35L293.42,149.01L293.84,152.9L294.7,148.35L295.13,210.51L295.55,211.79L295.98,209.26L296.41,211.62L296.83,220.39L297.26,211.77L297.69,220.8L298.12,218.41L298.54,224.41L298.97,227.18L299.4,224.67L299.82,221.39L300.25,205.86L302.39,173.83L302.81,176.61L303.67,140.98L304.1,146.17L304.52,152.72L306.23,177.86L306.66,179.87L309.65,232.46L310.07,229.94L310.5,236.93L310.93,236.43L311.36,238.11L311.78,238.6L312.21,247.66L312.64,252.13L313.06,250.47L313.49,240.33L314.35,251.16L314.77,247.92L315.2,249.47L315.63,246.15L316.05,250.1L316.48,247.12L316.91,239.6L317.34,244.71L317.76,239.94L318.19,251.48L318.62,240.67L319.04,246.97L319.47,245.99L319.9,247.37L322.46,194.3L322.89,199.49L323.31,195.68L323.74,174.18L325.45,133.62L325.88,135.28L327.16,146.18L327.59,146.79L328.01,152.11L328.44,147.63L328.87,144.67L329.29,153.67L330.15,168.55L330.58,183.85L331,190.93L331.43,183.39L331.86,203L332.28,197.23L332.71,190.12L333.14,174.94L333.56,178.28L333.99,178.69L336.55,217.36L336.98,217.27L337.41,213.51L337.84,221.03L338.69,226.47L339.12,211.7L339.54,209.21L339.97,212.12L340.4,215.74L340.83,210.19L341.68,219.28L342.11,216.07L342.53,219.89L342.96,219.83L343.39,215.33L345.52,168.75L345.95,171.67L346.38,173.11L346.81,179.24L348.51,144.83L348.94,143.24L349.79,128.57L350.22,134.21L350.65,135.68L351.08,164.11L353.64,234.81L354.07,225.5L354.92,220.01L355.35,227.38L355.77,223.87L356.2,230.24L357.48,218.77L357.91,217.91L358.34,226.54L358.76,219.17L359.62,228.59L360.05,226.29L360.47,215.47L361.75,183.87L362.18,190.72L363.03,199.15L363.46,197.99L363.89,206.76L364.32,208.02L364.74,218.04L365.6,231.26L366.02,230.05L366.45,221.7L368.16,188.15L368.59,190.35L369.44,204.49L369.87,206.49L371.15,188.65L371.58,195.51L373.29,225.21L373.71,233.88L374.14,236.57L374.57,235.08L374.99,237.05L375.42,236.75L375.85,245.24L377.98,223.27L378.41,231.49L378.84,229.62L379.26,230.62L379.69,231.47L380.12,222.2L380.55,230L382.68,198.06L383.11,206.15L383.54,202.15L383.96,203.35L384.39,201.58L384.82,201.86L385.24,211.68L385.67,195.82L386.1,204.27L386.53,195.61L388.66,167.71L389.09,172.35L389.52,156.49L389.94,193.63L391.22,215.91L391.65,219.91L392.08,220.61L392.5,217.9L393.36,216.62L393.79,215.04L394.21,229.35L394.64,226.12L395.07,220.82L396.78,166.68L397.2,158.97L398.06,141.04L398.48,142.27L398.91,154.91L399.34,163.79L399.77,154.3L400.62,157.93L401.05,164.53L403.18,194.55L403.61,194.89L404.46,169.9L404.89,144.35L405.32,126.25L405.74,127.76L406.17,129.2L407.03,135.65L407.45,123.45L408.73,113.09L409.16,98.26L410.02,67.85L410.44,69.72L410.87,83.27L411.3,65.53L411.72,78.37L412.15,57.77L412.58,58.51L413.01,65.16L414.29,49.01L414.71,57.98L416,60.5L416.42,44.5L416.85,33.43L417.28,49.72L417.7,49.72L418.13,63.08L418.56,99.9L418.98,99.26L419.41,93.65L419.84,87.15L420.27,89.27L420.69,105.83L421.55,164.85L421.97,161.82L422.4,160.91L422.83,158.13L423.26,146.33L423.68,158.93L424.11,147.03L424.96,129.48L425.39,93.23L427.1,30.1L427.53,41.95L428.38,63.11L428.81,93.95L429.24,100.54L429.66,93.66L431.8,144.92L432.23,145.11L433.51,124.74L433.93,142.66L435.64,177.96L436.07,161.34L436.92,165.47L437.35,145.44L437.78,146.3L438.2,156.69L439.49,175.42L439.91,150.34L440.34,130.09L440.77,134.81L441.19,164.7L441.62,159.83L442.05,215.53L442.48,218.11L442.9,204.88L443.33,198.13L443.76,220.94L444.18,223.42L444.61,212.62L447.6,142.93L448.03,145.77L452.3,235.68L452.73,243.52L453.58,247.12L454.01,250.26L454.43,248.64L454.86,240.77L455.72,250.04L456.14,237.93L456.57,248.36L457,245.87L457.42,244.78L457.85,249.14L458.28,240.15L460.84,160.36L461.27,153.44L462.12,130.84L462.55,134.85L462.98,135.93L463.4,125.16L465.97,178.53L466.39,180.02L467.25,159.04L467.67,172.94L468.53,196.43L468.96,205.35L469.38,210.74L469.81,210.5L470.24,211.99L470.66,218.42L471.09,213.64L471.52,201.15L472.8,214.15L473.23,208.06L473.65,211.02L474.08,205.46L475.36,173.07L475.79,176.26L477.92,124.28L478.35,132.56L478.78,140.97L479.21,165.96L480.91,219.94L481.34,217.17L481.77,217.11L482.2,214L482.62,221.44L483.05,215.6L484.33,222.51L484.76,215.16L485.61,197L486.04,184.24L486.89,179.43L487.32,189.91L487.75,191.41L488.18,211.63L488.6,216.67L489.03,214.77L489.46,198.91L489.88,195.11L490.31,184.2L492.02,191.25L492.45,187.04L495.86,239.4L496.29,234.95L496.72,233.87L497.14,216.35L498,229.11L498.43,218.59L498.85,215.53L499.28,215.6L499.71,203.55L500.56,186.31L500.99,190.91L501.42,189.32L502.27,197.51L502.7,184.29L503.55,167.66L503.98,172.07L504.4,166.17L504.83,181.74L505.26,200.68L505.69,192.89L506.11,199.4L506.97,212.35L507.39,210.24L507.82,211.91L508.25,207.49L509.96,145.61L510.38,140.84L511.24,150.47L511.67,133.44L512.95,170.1L513.37,180.38L513.8,184.78L514.23,165.05L516.36,109.14L516.79,104.93L518.07,80.13L518.5,77.02L518.93,79.41L519.35,67.9L520.63,41.57L521.06,51.75L522.34,16.5L522.77,26.13L523.62,60.18L524.05,42.49L525.33,117.34L525.76,113.89L526.61,155.78L527.04,145.76L527.9,128.09L528.32,88.44L530.03,43.34L530.46,57.72L530.89,62.94L531.31,87.54L533.02,124.81L533.45,129.4L534.3,128.87L534.73,150.49L535.16,155.17L535.58,153.1L536.01,155.48L536.86,127.71L537.29,137.92L537.72,159.87L538.15,142.65L538.57,119.68L539,126.6" style="vector-effect: non-scaling-stroke; fill: none; stroke: rgb(31, 119, 180); stroke-opacity: 1; stroke-width: 2px; opacity: 1;"/><g class="points"/></g><g class="trace scatter tracec58013" style="stroke-miterlimit: 2; opacity: 1;"><path class="js-line" d="M0,313.5L539,313.5" style="vector-effect: non-scaling-stroke; fill: none; stroke: rgb(255, 127, 14); stroke-opacity: 1; stroke-width: 2px; opacity: 1;"/><g class="points"/></g></g></g><g class="overplot"/><path class="xlines crisp" transform="translate(60,60)" d="M-1,330.5h541" style="fill: none; stroke-width: 1px; stroke: rgb(0, 0, 0); stroke-opacity: 0;"/><path class="ylines crisp" transform="translate(60,60)" d="M-0.5,-1v331" stroke-width="1px" style="fill: none; stroke: rgb(0, 0, 0); stroke-opacity: 0;"/><g class="overlines"/><g class="xaxislayer" transform="translate(60,60)"><g class="xtick" data-bb="6910"><text text-anchor="middle" x="0" y="344" transform="translate(84.99,0)" style="font-family: 'Open Sans', verdana, arial, sans-serif; font-size: 12px; fill: rgb(68, 68, 68); fill-opacity: 1; visibility: visible; white-space: pre;" data-bb="6903">200</text></g><g class="xtick" data-bb="6911"><text text-anchor="middle" x="0" y="344" transform="translate(170.41,0)" style="font-family: 'Open Sans', verdana, arial, sans-serif; font-size: 12px; fill: rgb(68, 68, 68); fill-opacity: 1; visibility: visible; white-space: pre;" data-bb="6904">400</text></g><g class="xtick" data-bb="6912"><text text-anchor="middle" x="0" y="344" transform="translate(255.83,0)" style="font-family: 'Open Sans', verdana, arial, sans-serif; font-size: 12px; fill: rgb(68, 68, 68); fill-opacity: 1; visibility: visible; white-space: pre;" data-bb="6905">600</text></g><g class="xtick" data-bb="6913"><text text-anchor="middle" x="0" y="344" transform="translate(341.25,0)" style="font-family: 'Open Sans', verdana, arial, sans-serif; font-size: 12px; fill: rgb(68, 68, 68); fill-opacity: 1; visibility: visible; white-space: pre;" data-bb="6906">800</text></g><g class="xtick" data-bb="6914"><text text-anchor="middle" x="0" y="344" transform="translate(426.67,0)" style="font-family: 'Open Sans', verdana, arial, sans-serif; font-size: 12px; fill: rgb(68, 68, 68); fill-opacity: 1; visibility: visible; white-space: pre;" data-bb="6907">1000</text></g><g class="xtick" data-bb="6915"><text text-anchor="middle" x="0" y="344" transform="translate(512.09,0)" style="font-family: 'Open Sans', verdana, arial, sans-serif; font-size: 12px; fill: rgb(68, 68, 68); fill-opacity: 1; visibility: visible; white-space: pre;" data-bb="6908">1200</text></g></g><g class="yaxislayer" transform="translate(60,60)"><g class="ytick" data-bb="6917"><text text-anchor="end" x="-2" y="6" transform="translate(0,313.5)" style="font-family: 'Open Sans', verdana, arial, sans-serif; font-size: 12px; fill: rgb(68, 68, 68); fill-opacity: 1; visibility: visible; white-space: pre;">0</text></g><g class="ytick" data-bb="6918"><text text-anchor="end" x="-2" y="6" transform="translate(0,244.74)" style="font-family: 'Open Sans', verdana, arial, sans-serif; font-size: 12px; fill: rgb(68, 68, 68); fill-opacity: 1; visibility: visible; white-space: pre;">200</text></g><g class="ytick" data-bb="6919"><text text-anchor="end" x="-2" y="6" transform="translate(0,175.99)" style="font-family: 'Open Sans', verdana, arial, sans-serif; font-size: 12px; fill: rgb(68, 68, 68); fill-opacity: 1; visibility: visible; white-space: pre;">400</text></g><g class="ytick" data-bb="6920"><text text-anchor="end" x="-2" y="6" transform="translate(0,107.23)" style="font-family: 'Open Sans', verdana, arial, sans-serif; font-size: 12px; fill: rgb(68, 68, 68); fill-opacity: 1; visibility: visible; white-space: pre;">600</text></g><g class="ytick" data-bb="6921"><text text-anchor="end" x="-2" y="6" transform="translate(0,38.48)" style="font-family: 'Open Sans', verdana, arial, sans-serif; font-size: 12px; fill: rgb(68, 68, 68); fill-opacity: 1; visibility: visible; white-space: pre;">800</text></g></g><g class="overaxes"/></g></g><g class="ternarylayer"/><g class="geolayer"/><g class="layer-above"><g class="imagelayer"/><g class="shapelayer"/></g><g class="pielayer"/><g class="glimages"/><defs id="topdefs-5cca85"><clipPath id="legend5cca85"><rect width="78" height="48" x="0" y="0"/></clipPath></defs><g class="infolayer"><g class="g-gtitle"><text class="gtitle" x="350" y="30" text-anchor="middle" style="font-family: 'Open Sans', verdana, arial, sans-serif; font-size: 17px; fill: rgb(68, 68, 68); opacity: 1; font-weight: normal; white-space: pre; visibility: visible;">avenue: video_09</text></g><g class="g-xtitle" data-bb="6909"><text class="xtitle" x="329.5" y="442" text-anchor="middle" style="font-family: 'Open Sans', verdana, arial, sans-serif; font-size: 14px; fill: rgb(68, 68, 68); opacity: 1; font-weight: normal; white-space: pre; visibility: visible;">sample index</text></g><g class="g-ytitle" data-bb="6916"><text class="ytitle" transform="rotate(-90,22,225) translate(0, 0)" x="22" y="225" text-anchor="middle" style="font-family: 'Open Sans', verdana, arial, sans-serif; font-size: 14px; fill: rgb(68, 68, 68); opacity: 1; font-weight: normal; white-space: pre; visibility: visible;">reconstruction cost</text></g><g class="legend" pointer-events="all" transform="translate(609.78, 60)"><rect class="bg" shape-rendering="crispEdges" style="stroke: rgb(68, 68, 68); stroke-opacity: 1; fill: rgb(255, 255, 255); fill-opacity: 1; stroke-width: 0px;" width="78" height="48" x="0" y="0"/><g class="scrollbox" transform="translate(0, 0)" clip-path="url(#legend5cca85)"><g class="groups"><g class="traces" transform="translate(0, 14.5)" style="opacity: 1;"><g class="layers" style="opacity: 1;"><g class="legendfill"/><g class="legendlines"><path class="js-line" d="M5,0h30" style="fill: none; stroke: rgb(31, 119, 180); stroke-opacity: 1; stroke-width: 2px;"/></g><g class="legendsymbols"><g class="legendpoints"/></g></g><text class="legendtext user-select-none" x="40" y="4.680000000000001" style="text-anchor: start; font-family: 'Open Sans', verdana, arial, sans-serif; font-size: 12px; fill: rgb(68, 68, 68); fill-opacity: 1; white-space: pre; visibility: visible;" data-bb="6922">recon</text><rect class="legendtoggle" pointer-events="all" style="cursor: pointer; fill: rgb(0, 0, 0); fill-opacity: 0;" x="0" y="-9.5" width="118" height="19"/></g><g class="traces" transform="translate(0, 33.5)" style="opacity: 1;"><g class="layers" style="opacity: 1;"><g class="legendfill"/><g class="legendlines"><path class="js-line" d="M5,0h30" style="fill: none; stroke: rgb(255, 127, 14); stroke-opacity: 1; stroke-width: 2px;"/></g><g class="legendsymbols"><g class="legendpoints"/></g></g><text class="legendtext user-select-none" x="40" y="4.680000000000001" style="text-anchor: start; font-family: 'Open Sans', verdana, arial, sans-serif; font-size: 12px; fill: rgb(68, 68, 68); fill-opacity: 1; white-space: pre; visibility: visible;" data-bb="6923">zero</text><rect class="legendtoggle" pointer-events="all" x="0" y="-9.5" width="118" height="19" style="cursor: pointer; fill: rgb(0, 0, 0); fill-opacity: 0;"/></g></g></g><rect class="scrollbar" rx="20" ry="2" width="0" height="0" style="fill: rgb(128, 139, 164); fill-opacity: 1;"/></g></g></svg>