<svg class="main-svg" xmlns="http://www.w3.org/2000/svg" xmlns:xlink="http://www.w3.org/1999/xlink" width="700" height="450"><rect x="0" y="0" width="700" height="450" style="fill: rgb(255, 255, 255); fill-opacity: 1;"/><defs id="defs-52de75"><g class="clips"><clipPath class="axesclip" id="clip52de75x"><rect x="60" y="0" width="539" height="450"/></clipPath><clipPath class="axesclip" id="clip52de75y"><rect x="0" y="60" width="700" height="330"/></clipPath><clipPath class="axesclip" id="clip52de75xy"><rect x="60" y="60" width="539" height="330"/></clipPath><clipPath class="plotclip" id="clip52de75xyplot"><rect width="539" height="330"/></clipPath></g></defs><g class="bglayer"><rect class="bg" x="60" y="60" width="539" height="330" style="fill: rgb(255, 255, 255); fill-opacity: 1; stroke-width: 0;"/></g><g class="layer-below"><g class="imagelayer"/><g class="shapelayer"/></g><g class="cartesianlayer"><g class="subplot xy"><g class="layer-subplot"><g class="shapelayer"/><g class="imagelayer"/></g><g class="gridlayer" transform="translate(60,60)"><path class="xgrid crisp" d="M0,0v330" transform="translate(78.18,0)" style="stroke: rgb(238, 238, 238); stroke-opacity: 1; stroke-width: 1px;"/><path class="xgrid crisp" d="M0,0v330" transform="translate(156.75,0)" style="stroke: rgb(238, 238, 238); stroke-opacity: 1; stroke-width: 1px;"/><path class="xgrid crisp" d="M0,0v330" transform="translate(235.32,0)" style="stroke: rgb(238, 238, 238); stroke-opacity: 1; stroke-width: 1px;"/><path class="xgrid crisp" d="M0,0v330" transform="translate(313.89,0)" style="stroke: rgb(238, 238, 238); stroke-opacity: 1; stroke-width: 1px;"/><path class="xgrid crisp" d="M0,0v330" transform="translate(392.46,0)" style="stroke: rgb(238, 238, 238); stroke-opacity: 1; stroke-width: 1px;"/><path class="xgrid crisp" d="M0,0v330" transform="translate(471.04,0)" style="stroke: rgb(238, 238, 238); stroke-opacity: 1; stroke-width: 1px;"/><path class="ygrid crisp" d="M0,0h539" transform="translate(0,264.24)" style="stroke: rgb(238, 238, 238); stroke-opacity: 1; stroke-width: 1px;"/><path class="ygrid crisp" d="M0,0h539" transform="translate(0,214.98)" style="stroke: rgb(238, 238, 238); stroke-opacity: 1; stroke-width: 1px;"/><path class="ygrid crisp" d="M0,0h539" transform="translate(0,165.72)" style="stroke: rgb(238, 238, 238); stroke-opacity: 1; stroke-width: 1px;"/><path class="ygrid crisp" d="M0,0h539" transform="translate(0,116.46)" style="stroke: rgb(238, 238, 238); stroke-opacity: 1; stroke-width: 1px;"/><path class="ygrid crisp" d="M0,0h539" transform="translate(0,67.2)" style="stroke: rgb(238, 238, 238); stroke-opacity: 1; stroke-width: 1px;"/><path class="ygrid crisp" d="M0,0h539" transform="translate(0,17.94)" style="stroke: rgb(238, 238, 238); stroke-opacity: 1; stroke-width: 1px;"/></g><g class="overgrid"/><g class="zerolinelayer" transform="translate(60,60)"><path class="yzl zl crisp" d="M0,0h539" transform="translate(0,313.5)" style="stroke: rgb(68, 68, 68); stroke-opacity: 1; stroke-width: 1px;"/></g><g class="overzero"/><g class="plot" transform="translate(60, 60)" clip-path="url(#clip52de75xyplot)"><g class="imagelayer"/><g class="maplayer"/><g class="barlayer"/><g class="carpetlayer"/><g class="boxlayer"/><g class="scatterlayer"><g class="trace scatter trace7d91cf" style="stroke-miterlimit: 2; opacity: 1;"><path class="js-line" d="M0,294.2L1.18,290.96L1.57,295.11L1.96,293.2L2.36,296.93L3.14,300.2L3.54,299.17L4.71,301.98L5.11,301.06L7.86,295.84L8.25,296.45L8.64,296.93L9.04,295.8L10.21,294.77L10.61,293.65L11.39,294.19L11.79,292.95L12.57,294.01L12.96,293.75L13.75,296.14L14.14,295.2L14.93,297.89L15.32,296.86L16.5,299.28L16.89,298.5L17.68,301.4L18.07,300.7L18.46,299.8L20.82,286.2L21.21,287.71L21.61,287.08L22,287.77L22.39,289.32L23.57,289.88L23.96,288.1L25.54,284.5L25.93,284.68L26.32,285.8L28.29,296.19L28.68,297.91L29.07,298.46L29.46,297.69L29.86,299.21L30.25,298.64L30.64,298.06L31.43,298.06L31.82,296.71L32.61,296.27L33,294.11L33.39,293.92L33.79,294.56L35.36,294.96L35.75,294.33L36.54,296.41L36.93,295.68L37.32,296.27L37.71,293.66L38.11,294.29L38.5,292.93L38.89,292.61L39.29,294.44L39.68,292.64L40.07,294.19L40.46,296.43L41.25,295.79L41.64,297.26L42.82,299.45L43.21,299.19L43.61,299.93L44,299.04L44.39,300.36L44.79,299.59L45.18,298.88L45.96,297.74L46.36,296.2L47.54,297.95L47.93,298.27L48.32,298.32L48.71,299.8L49.89,298.3L50.29,298.62L51.46,297.48L51.86,297.61L52.25,298.64L52.64,296.42L53.82,297.22L54.21,294.9L55.39,299.08L55.79,298.35L56.18,298.87L56.57,298.4L56.96,298.08L57.75,298.49L58.14,297.91L59.32,297.69L59.71,288.79L62.07,186.04L62.46,182.79L64.04,159.22L64.43,161.26L65.21,175.81L65.61,171.6L66,166.2L67.96,219.13L68.36,217.88L68.75,218.65L69.14,213.7L69.54,214.25L69.93,216.95L72.29,251.48L72.68,248.47L73.07,248.1L73.46,249.9L74.64,248.39L75.04,248.96L77,266.87L77.39,266.42L77.79,263.81L78.18,262.94L78.57,259.17L79.36,264.15L79.75,263.29L80.14,262.84L80.54,264.98L80.93,262.98L81.32,263.58L81.71,265.39L82.89,270.18L83.29,270.68L83.68,270.24L84.07,267.89L84.86,271.1L85.25,268.05L86.04,258.9L86.43,250.98L86.82,250.51L87.21,247.73L88.39,252.96L88.79,251.96L89.57,246.23L89.96,248.6L91.93,256.51L92.32,255.44L92.71,258.85L93.11,257.74L93.5,258.37L94.29,263.71L94.68,262.75L95.07,261.55L96.25,263.81L96.64,264.52L97.82,265.67L98.21,268.28L99.79,267.38L100.18,268.79L100.57,265.53L100.96,269.23L101.36,267.99L101.75,268.32L102.14,268.21L102.54,266.63L102.93,268.5L103.32,269.01L103.71,270.91L104.11,266.92L104.5,268.81L104.89,269.91L106.07,275.13L106.46,275.24L107.25,273.23L107.64,275.39L108.82,277.82L109.21,275.57L110.39,279.27L110.79,276.98L111.96,278L112.36,276.08L112.75,278.27L113.14,277.93L113.54,276.98L114.32,276.75L114.71,279.34L117.86,290.91L118.25,288.95L118.64,290.47L119.04,290.26L119.43,289.11L119.82,287.59L120.21,290.68L121.39,293.64L121.79,294.32L122.18,293.38L122.57,295.69L122.96,294.78L123.36,295.26L123.75,296.36L124.93,295.57L125.32,296.59L126.11,293.2L126.5,293.52L126.89,294.4L127.29,293.33L128.07,295.21L128.46,293.95L130.04,297.16L130.43,297.16L131.21,297.61L131.61,297.04L132.79,297.63L133.18,296.93L134.75,299.7L135.14,298.84L135.54,298.79L135.93,297.65L137.11,295.47L137.5,295.84L137.89,293.99L138.29,295.18L138.68,296.73L139.86,296.02L140.25,294.78L141.43,291.29L141.82,291.44L142.21,291.09L142.61,292.01L143,292L143.39,294.17L143.79,295.07L144.18,293.88L144.96,296.01L145.36,295.57L145.75,292.4L146.14,293.6L146.54,292.69L147.71,291.09L148.11,292.01L149.68,295.67L150.07,294.58L151.25,296.81L151.64,295.82L152.04,296.9L152.43,294.31L152.82,295.66L153.21,293.62L154.39,296.02L154.79,295.23L155.57,293.79L155.96,294.52L156.75,295.38L157.14,294.86L157.54,297.5L159.89,299.33L160.29,297.99L160.68,296.69L161.07,297.99L161.46,298.23L162.25,300.41L162.64,299.99L163.04,299.51L164.61,300.59L165,299.77L166.18,301.79L166.57,301.53L167.75,302.49L168.14,303.66L168.54,303.86L168.93,301.47L170.11,302.17L170.5,301.48L171.29,298.77L171.68,300.75L172.07,299.38L172.46,300.93L174.82,296.35L175.21,296.08L176.39,293.3L176.79,296.56L177.18,297.43L177.57,296.99L177.96,296.87L179.93,293.91L180.32,291.74L181.11,292.99L181.5,292.22L183.07,288.22L183.46,288.05L184.25,287.67L184.64,290.63L185.43,291.4L185.82,290.45L186.61,290.44L187,288.49L188.57,289.82L188.96,291.08L189.36,292.58L189.75,291.2L190.14,291.12L192.5,285.19L192.89,286.55L193.29,286.98L193.68,289L194.07,288.51L194.46,289.16L194.86,289.76L196.04,290.45L196.43,292.5L196.82,292.46L197.21,293.44L198,295.22L198.39,294.61L199.18,296.37L199.57,295.06L201.14,296.6L201.54,296.4L201.93,296.61L202.32,294.13L202.71,294.11L203.11,294.92L204.29,293.82L204.68,293.54L206.64,297.02L207.04,296.22L207.82,296.36L208.21,297.71L208.61,298.46L209,296.96L209.79,298.7L210.18,297.05L210.96,297.76L211.36,296.79L212.14,295.29L212.54,296.36L214.89,291.49L215.29,294.59L216.46,298.87L216.86,296.94L217.25,298.83L217.64,298.29L218.04,298.77L218.43,297.13L218.82,298.21L219.21,299.26L220.39,296.81L220.79,297.61L221.18,296.14L221.57,296.71L221.96,297.22L222.36,297.42L222.75,298.57L223.14,297.03L223.54,298.78L223.93,299.82L224.32,298.93L224.71,299.65L226.29,301.24L226.68,300.02L227.86,303.32L228.25,303.16L228.64,302.74L229.04,301.18L229.43,301.37L229.82,303.19L230.21,302.43L230.61,303.51L231.39,303.74L231.79,302.62L232.57,304.53L232.96,303.74L234.14,305.49L234.54,305.68L235.71,305.25L236.11,306.1L236.5,304.08L236.89,305.63L237.29,306.03L237.68,304.56L238.07,305.51L238.46,306.31L239.64,305.97L240.04,303.92L240.43,305.18L240.82,304.1L241.21,303.05L241.61,304.9L242,304.69L242.39,304.79L243.57,304.6L243.96,303.2L244.36,303.91L244.75,301.51L245.93,303.39L246.32,302.62L247.5,304.55L247.89,304.11L248.29,304.48L248.68,303.09L250.64,299.73L251.04,300.43L251.43,300.3L251.82,299.24L252.61,301.72L253,301.22L253.39,302.36L253.79,302.52L254.18,304.16L255.75,306.75L256.14,304.48L257.32,307.34L257.71,306.45L258.11,306.44L258.5,305.5L259.29,304.11L259.68,301.03L260.07,301.13L260.46,302.19L262.04,299.46L262.43,300.52L263.61,300.96L264,299.12L265.18,304.99L265.57,302.98L265.96,305.37L266.36,305.27L266.75,305.08L268.71,304.37L269.11,300.69L269.89,305.02L270.29,304.7L270.68,305.88L272.25,305.75L272.64,304.27L273.04,306.3L273.43,303.81L273.82,306.9L274.21,306.58L274.61,306.24L275.39,306.85L275.79,305.9L276.57,306.16L276.96,304.82L277.36,306.81L277.75,306.5L278.14,305.93L278.54,305.32L278.93,306.01L279.32,305.9L280.11,306.8L280.5,306.32L280.89,305.65L281.29,307.32L283.25,304.32L283.64,305.17L284.04,303.43L284.43,304.95L284.82,304.07L285.21,300.72L285.61,303.21L286,304.04L286.39,302.74L286.79,303.4L287.18,303.26L288.36,300.84L288.75,301.83L289.54,302.18L289.93,302.75L291.11,300.34L291.5,300.76L291.89,300.9L292.29,300.99L292.68,299.32L294.25,303.12L294.64,301.78L295.43,290.98L295.82,295.27L296.61,299.93L297,299.74L297.39,296.06L297.79,296.8L298.18,295.71L298.57,295.75L298.96,294.08L300.14,291.87L300.54,292.46L303.29,298.81L303.68,296.69L304.86,289.51L305.25,286L306.04,288.6L306.43,287.85L306.82,284.35L307.21,283.94L307.61,285.29L308,286.57L308.39,290.51L309.57,296.6L309.96,295.25L312.32,290.09L312.71,292.58L313.11,293.37L313.5,291.28L313.89,289.48L314.29,289.89L314.68,291.5L316.25,298.04L316.64,296.82L317.04,297.28L317.43,296.34L317.82,294.75L318.21,296.34L319.79,298.28L320.18,296.61L320.57,295.09L320.96,296.6L321.75,295.03L322.14,296.49L322.93,297.31L323.32,295.95L323.71,297.48L324.11,284.14L326.46,78.1L326.86,77.01L327.64,109.43L328.04,125.27L329.21,179.69L329.61,187.88L331.18,235.16L331.57,233.34L331.96,235.95L332.36,238.7L332.75,246.89L333.93,257.98L334.32,257.3L334.71,255.17L335.11,256.72L335.5,259.73L336.29,264.67L336.68,263.15L337.07,259.2L338.25,242.9L338.64,239.21L339.04,239.01L339.43,237.51L342.57,254.44L342.96,252.35L343.75,261.73L344.14,260.69L344.54,261.47L344.93,261.6L345.32,260.67L346.5,263.43L346.89,264.87L348.86,274.2L349.25,273.13L350.04,273.27L350.43,274.33L350.82,272.93L351.21,273.74L351.61,274.78L353.96,289.34L354.36,288.49L354.75,288.23L355.14,291.43L356.32,295.56L356.71,295.14L357.11,295.1L357.5,293.4L357.89,292.22L358.29,292.89L358.68,293.2L360.64,297.37L361.04,296.81L362.21,298.75L362.61,296.34L363.39,295.09L363.79,296.08L364.57,294.73L364.96,292.11L365.36,292.28L365.75,290L366.93,293.33L367.32,292.49L367.71,291.94L368.11,292.9L368.5,291.7L368.89,292.56L369.29,293.29L369.68,294.62L370.07,293.63L370.46,294.22L372.43,292.72L372.82,293.13L374,297.58L374.39,298.14L375.18,298.21L375.57,297.43L376.75,299.3L377.14,300.61L379.11,302.1L379.5,300.59L380.68,300.72L381.07,297.75L383.04,292.49L383.43,293.42L383.82,292.71L386.18,284.25L386.57,285.03L386.96,284.17L387.36,284.86L387.75,285.44L388.14,283.05L388.54,286.21L388.93,287.16L389.32,286.06L390.5,284.35L390.89,284.17L391.29,283.35L391.68,284.83L394.43,294.48L394.82,293.51L395.21,293.85L396.39,290.29L396.79,291.56L399.14,296.77L399.54,295.7L401.5,290.41L401.89,292.14L402.29,293.12L402.68,296.24L403.07,297.83L403.46,297.33L403.86,297.88L404.25,296.04L404.64,297.22L405.04,297.29L405.43,296.33L405.82,297.67L406.61,297.77L407,298.38L408.18,301.56L408.57,301.58L409.36,302.95L409.75,302.62L410.14,302.52L410.54,302.02L410.93,303.77L411.71,304.74L412.11,302.22L413.29,305.89L413.68,305.37L414.07,304.89L414.46,305.29L414.86,302.89L415.25,305.07L415.64,303.94L416.04,304.24L416.82,302.67L417.21,303.09L417.61,304.09L418,303.33L418.39,303.22L419.57,300.01L419.96,299.75L420.36,298.93L420.75,299.2L421.14,301.32L421.54,301.46L421.93,304.27L423.11,306.91L423.5,305.31L425.86,298.93L426.25,300.66L427.43,304.3L427.82,303.93L428.21,303.8L428.61,301.53L429,303.14L429.39,304.32L431.36,306.15L431.75,304.61L432.14,306.75L432.54,306.42L432.93,306.3L433.71,306.15L434.11,305.51L435.29,305.56L435.68,306.08L436.46,304.06L436.86,304.47L438.04,302.35L438.43,301.89L438.82,301.59L439.21,300.3L439.61,300.5L440,301.54L440.39,301.13L440.79,298.91L441.57,301.99L441.96,290.5L443.14,296.01L443.54,296.74L444.32,291.28L444.71,291.99L445.11,291.84L445.5,292.07L445.89,293.4L446.29,295.14L446.68,293.42L447.07,295.71L447.46,294.87L447.86,290.61L448.64,289.21L449.04,286.32L449.43,285.97L449.82,287.4L451.39,294.04L451.79,293.76L452.18,293.01L453.75,288.26L454.14,288.91L454.54,287.46L454.93,291.07L455.71,293.92L456.11,293.98L456.5,293.27L456.89,294.06L457.29,295.48L457.68,295.78L458.07,294.14L458.86,295.5L459.25,293.92L459.64,293.93L460.04,295.05L460.43,294.42L460.82,277.28L462.79,16.5L463.18,31.44L463.57,68.31L465.93,224.08L466.32,226.87L466.71,229.78L467.11,245.03L467.5,254.74L467.89,254.29L468.29,253.72L469.07,256.35L469.46,252.53L471.04,230.44L471.43,230.84L471.82,231.67L472.21,236.98L474.57,255.25L474.96,253.48L475.75,256.09L476.14,260.63L478.11,271.23L478.5,269.69L478.89,270.76L482.43,293.61L482.82,292.23L483.21,292.5L483.61,291.33L484.79,294.6L485.18,295.03L485.96,297.96L486.36,296.72L487.14,296.62L487.54,294.02L487.93,291.88L488.32,292.79L488.71,291.87L489.11,291.4L489.5,289.4L490.68,291.23L491.07,290.98L491.86,293.16L492.25,292.83L492.64,292.98L493.82,293.14L494.21,295.93L496.57,300.69L496.96,300.62L497.75,302.01L498.14,300.79L498.54,300.52L498.93,298.3L502.46,283.34L502.86,282.48L503.25,281.75L503.64,283.21L505.21,283.18L505.61,281.09L506,280.85L506.39,282.18L507.96,291.48L508.36,292.04L508.75,291.22L509.14,291.64L509.54,288.63L511.11,294.02L511.5,292.52L511.89,292.82L512.29,290.8L513.07,293.31L513.46,293L513.86,295.45L514.25,294.24L514.64,294.91L515.04,296.17L515.82,297.39L516.21,297.09L517.79,302.49L518.18,302.19L518.57,298.8L518.96,303.68L519.75,305.31L520.14,304.67L520.54,304.82L520.93,304.04L521.32,304.73L521.71,302.09L522.11,303.23L522.5,302.71L522.89,302.82L523.29,303.53L523.68,301.65L524.07,301.22L524.46,298.91L525.64,299.84L526.04,302.71L527.21,305.19L527.61,303.33L528.39,298.27L528.79,300.08L530.75,304.35L531.14,303.55L532.71,306.58L533.11,306.6L533.5,306.23L533.89,306.74L534.29,305.1L534.68,306.81L535.07,305.11L535.86,304.82L536.25,303.69L538.61,300.06L539,300.77" style="vector-effect: non-scaling-stroke; fill: none; stroke: rgb(31, 119, 180); stroke-opacity: 1; stroke-width: 2px; opacity: 1;"/><g class="points"/></g><g class="trace scatter trace103b88" style="stroke-miterlimit: 2; opacity: 1;"><path class="js-line" d="M0,313.5L539,313.5" style="vector-effect: non-scaling-stroke; fill: none; stroke: rgb(255, 127, 14); stroke-opacity: 1; stroke-width: 2px; opacity: 1;"/><g class="points"/></g></g></g><g class="overplot"/><path class="xlines crisp" transform="translate(60,60)" d="M-1,330.5h541" style="fill: none; stroke-width: 1px; stroke: rgb(0, 0, 0); stroke-opacity: 0;"/><path class="ylines crisp" transform="translate(60,60)" d="M-0.5,-1v331" stroke-width="1px" style="fill: none; stroke: rgb(0, 0, 0); stroke-opacity: 0;"/><g class="overlines"/><g class="xaxislayer" transform="translate(60,60)"><g class="xtick" data-bb="6606"><text text-anchor="middle" x="0" y="344" transform="translate(78.18,0)" style="font-family: 'Open Sans', verdana, arial, sans-serif; font-size: 12px; fill: rgb(68, 68, 68); fill-opacity: 1; visibility: visible; white-space: pre;" data-bb="6599">200</text></g><g class="xtick" data-bb="6607"><text text-anchor="middle" x="0" y="344" transform="translate(156.75,0)" style="font-family: 'Open Sans', verdana, arial, sans-serif; font-size: 12px; fill: rgb(68, 68, 68); fill-opacity: 1; visibility: visible; white-space: pre;" data-bb="6600">400</text></g><g class="xtick" data-bb="6608"><text text-anchor="middle" x="0" y="344" transform="translate(235.32,0)" style="font-family: 'Open Sans', verdana, arial, sans-serif; font-size: 12px; fill: rgb(68, 68, 68); fill-opacity: 1; visibility: visible; white-space: pre;" data-bb="6601">600</text></g><g class="xtick" data-bb="6609"><text text-anchor="middle" x="0" y="344" transform="translate(313.89,0)" style="font-family: 'Open Sans', verdana, arial, sans-serif; font-size: 12px; fill: rgb(68, 68, 68); fill-opacity: 1; visibility: visible; white-space: pre;" data-bb="6602">800</text></g><g class="xtick" data-bb="6610"><text text-anchor="middle" x="0" y="344" transform="translate(392.46,0)" style="font-family: 'Open Sans', verdana, arial, sans-serif; font-size: 12px; fill: rgb(68, 68, 68); fill-opacity: 1; visibility: visible; white-space: pre;" data-bb="6603">1000</text></g><g class="xtick" data-bb="6611"><text text-anchor="middle" x="0" y="344" transform="translate(471.04,0)" style="font-family: 'Open Sans', verdana, arial, sans-serif; font-size: 12px; fill: rgb(68, 68, 68); fill-opacity: 1; visibility: visible; white-space: pre;" data-bb="6604">1200</text></g></g><g class="yaxislayer" transform="translate(60,60)"><g class="ytick" data-bb="6613"><text text-anchor="end" x="-2" y="6" transform="translate(0,313.5)" style="font-family: 'Open Sans', verdana, arial, sans-serif; font-size: 12px; fill: rgb(68, 68, 68); fill-opacity: 1; visibility: visible; white-space: pre;">0</text></g><g class="ytick" data-bb="6614"><text text-anchor="end" x="-2" y="6" transform="translate(0,264.24)" style="font-family: 'Open Sans', verdana, arial, sans-serif; font-size: 12px; fill: rgb(68, 68, 68); fill-opacity: 1; visibility: visible; white-space: pre;">1000</text></g><g class="ytick" data-bb="6615"><text text-anchor="end" x="-2" y="6" transform="translate(0,214.98)" style="font-family: 'Open Sans', verdana, arial, sans-serif; font-size: 12px; fill: rgb(68, 68, 68); fill-opacity: 1; visibility: visible; white-space: pre;">2000</text></g><g class="ytick" data-bb="6616"><text text-anchor="end" x="-2" y="6" transform="translate(0,165.72)" style="font-family: 'Open Sans', verdana, arial, sans-serif; font-size: 12px; fill: rgb(68, 68, 68); fill-opacity: 1; visibility: visible; white-space: pre;">3000</text></g><g class="ytick" data-bb="6617"><text text-anchor="end" x="-2" y="6" transform="translate(0,116.46)" style="font-family: 'Open Sans', verdana, arial, sans-serif; font-size: 12px; fill: rgb(68, 68, 68); fill-opacity: 1; visibility: visible; white-space: pre;">4000</text></g><g class="ytick" data-bb="6618"><text text-anchor="end" x="-2" y="6" transform="translate(0,67.2)" style="font-family: 'Open Sans', verdana, arial, sans-serif; font-size: 12px; fill: rgb(68, 68, 68); fill-opacity: 1; visibility: visible; white-space: pre;">5000</text></g><g class="ytick" data-bb="6619"><text text-anchor="end" x="-2" y="6" transform="translate(0,17.94)" style="font-family: 'Open Sans', verdana, arial, sans-serif; font-size: 12px; fill: rgb(68, 68, 68); fill-opacity: 1; visibility: visible; white-space: pre;">6000</text></g></g><g class="overaxes"/></g></g><g class="ternarylayer"/><g class="geolayer"/><g class="layer-above"><g class="imagelayer"/><g class="shapelayer"/></g><g class="pielayer"/><g class="glimages"/><defs id="topdefs-52de75"><clipPath id="legend52de75"><rect width="78" height="48" x="0" y="0"/></clipPath></defs><g class="infolayer"><g class="g-gtitle"><text class="gtitle" x="350" y="30" text-anchor="middle" style="font-family: 'Open Sans', verdana, arial, sans-serif; font-size: 17px; fill: rgb(68, 68, 68); opacity: 1; font-weight: normal; white-space: pre; visibility: visible;">avenue: video_02</text></g><g class="g-xtitle" data-bb="6605"><text class="xtitle" x="329.5" y="442" text-anchor="middle" style="font-family: 'Open Sans', verdana, arial, sans-serif; font-size: 14px; fill: rgb(68, 68, 68); opacity: 1; font-weight: normal; white-space: pre; visibility: visible;">sample index</text></g><g class="g-ytitle" data-bb="6612" transform="translate(-1,0)"><text class="ytitle" transform="rotate(-90,22,225) translate(0, 0)" x="22" y="225" text-anchor="middle" style="font-family: 'Open Sans', verdana, arial, sans-serif; font-size: 14px; fill: rgb(68, 68, 68); opacity: 1; font-weight: normal; white-space: pre; visibility: visible;">reconstruction cost</text></g><g class="legend" pointer-events="all" transform="translate(609.78, 60)"><rect class="bg" shape-rendering="crispEdges" style="stroke: rgb(68, 68, 68); stroke-opacity: 1; fill: rgb(255, 255, 255); fill-opacity: 1; stroke-width: 0px;" width="78" height="48" x="0" y="0"/><g class="scrollbox" transform="translate(0, 0)" clip-path="url(#legend52de75)"><g class="groups"><g class="traces" transform="translate(0, 14.5)" style="opacity: 1;"><g class="layers" style="opacity: 1;"><g class="legendfill"/><g class="legendlines"><path class="js-line" d="M5,0h30" style="fill: none; stroke: rgb(31, 119, 180); stroke-opacity: 1; stroke-width: 2px;"/></g><g class="legendsymbols"><g class="legendpoints"/></g></g><text class="legendtext user-select-none" x="40" y="4.680000000000001" style="text-anchor: start; font-family: 'Open Sans', verdana, arial, sans-serif; font-size: 12px; fill: rgb(68, 68, 68); fill-opacity: 1; white-space: pre; visibility: visible;" data-bb="6620">recon</text><rect class="legendtoggle" pointer-events="all" style="cursor: pointer; fill: rgb(0, 0, 0); fill-opacity: 0;" x="0" y="-9.5" width="118" height="19"/></g><g class="traces" transform="translate(0, 33.5)" style="opacity: 1;"><g class="layers" style="opacity: 1;"><g class="legendfill"/><g class="legendlines"><path class="js-line" d="M5,0h30" style="fill: none; stroke: rgb(255, 127, 14); stroke-opacity: 1; stroke-width: 2px;"/></g><g class="legendsymbols"><g class="legendpoints"/></g></g><text class="legendtext user-select-none" x="40" y="4.680000000000001" style="text-anchor: start; font-family: 'Open Sans', verdana, arial, sans-serif; font-size: 12px; fill: rgb(68, 68, 68); fill-opacity: 1; white-space: pre; visibility: visible;" data-bb="6621">zero</text><rect class="legendtoggle" pointer-events="all" x="0" y="-9.5" width="118" height="19" style="cursor: pointer; fill: rgb(0, 0, 0); fill-opacity: 0;"/></g></g></g><rect class="scrollbar" rx="20" ry="2" width="0" height="0" style="fill: rgb(128, 139, 164); fill-opacity: 1;"/></g></g></svg>