<svg class="main-svg" xmlns="http://www.w3.org/2000/svg" xmlns:xlink="http://www.w3.org/1999/xlink" width="700" height="450"><rect x="0" y="0" width="700" height="450" style="fill: rgb(255, 255, 255); fill-opacity: 1;"/><defs id="defs-298510"><g class="clips"><clipPath class="axesclip" id="clip298510x"><rect x="60" y="0" width="539" height="450"/></clipPath><clipPath class="axesclip" id="clip298510y"><rect x="0" y="60" width="700" height="330"/></clipPath><clipPath class="axesclip" id="clip298510xy"><rect x="60" y="60" width="539" height="330"/></clipPath><clipPath class="plotclip" id="clip298510xyplot"><rect width="539" height="330"/></clipPath></g></defs><g class="bglayer"><rect class="bg" x="60" y="60" width="539" height="330" style="fill: rgb(255, 255, 255); fill-opacity: 1; stroke-width: 0;"/></g><g class="layer-below"><g class="imagelayer"/><g class="shapelayer"/></g><g class="cartesianlayer"><g class="subplot xy"><g class="layer-subplot"><g class="shapelayer"/><g class="imagelayer"/></g><g class="gridlayer" transform="translate(60,60)"><path class="xgrid crisp" d="M0,0v330" transform="translate(72.7,0)" style="stroke: rgb(238, 238, 238); stroke-opacity: 1; stroke-width: 1px;"/><path class="xgrid crisp" d="M0,0v330" transform="translate(146.13,0)" style="stroke: rgb(238, 238, 238); stroke-opacity: 1; stroke-width: 1px;"/><path class="xgrid crisp" d="M0,0v330" transform="translate(219.57,0)" style="stroke: rgb(238, 238, 238); stroke-opacity: 1; stroke-width: 1px;"/><path class="xgrid crisp" d="M0,0v330" transform="translate(293,0)" style="stroke: rgb(238, 238, 238); stroke-opacity: 1; stroke-width: 1px;"/><path class="xgrid crisp" d="M0,0v330" transform="translate(366.43,0)" style="stroke: rgb(238, 238, 238); stroke-opacity: 1; stroke-width: 1px;"/><path class="xgrid crisp" d="M0,0v330" transform="translate(439.87,0)" style="stroke: rgb(238, 238, 238); stroke-opacity: 1; stroke-width: 1px;"/><path class="xgrid crisp" d="M0,0v330" transform="translate(513.3,0)" style="stroke: rgb(238, 238, 238); stroke-opacity: 1; stroke-width: 1px;"/><path class="ygrid crisp" d="M0,0h539" transform="translate(0,249.36)" style="stroke: rgb(238, 238, 238); stroke-opacity: 1; stroke-width: 1px;"/><path class="ygrid crisp" d="M0,0h539" transform="translate(0,185.21)" style="stroke: rgb(238, 238, 238); stroke-opacity: 1; stroke-width: 1px;"/><path class="ygrid crisp" d="M0,0h539" transform="translate(0,121.07)" style="stroke: rgb(238, 238, 238); stroke-opacity: 1; stroke-width: 1px;"/><path class="ygrid crisp" d="M0,0h539" transform="translate(0,56.92)" style="stroke: rgb(238, 238, 238); stroke-opacity: 1; stroke-width: 1px;"/></g><g class="overgrid"/><g class="zerolinelayer" transform="translate(60,60)"><path class="yzl zl crisp" d="M0,0h539" transform="translate(0,313.5)" style="stroke: rgb(68, 68, 68); stroke-opacity: 1; stroke-width: 1px;"/></g><g class="overzero"/><g class="plot" transform="translate(60, 60)" clip-path="url(#clip298510xyplot)"><g class="imagelayer"/><g class="maplayer"/><g class="barlayer"/><g class="carpetlayer"/><g class="boxlayer"/><g class="scatterlayer"><g class="trace scatter traced265d2" style="stroke-miterlimit: 2; opacity: 1;"><path class="js-line" d="M0,129.77L1.47,105.28L2.2,112.45L2.94,108.42L3.67,94.89L5.87,52.31L6.61,72.13L8.08,71.79L8.81,75.79L9.55,75.74L10.28,83.24L11.75,84.38L12.48,87.32L13.95,100.15L14.69,100.16L15.42,104.39L16.16,119.93L16.89,114.34L17.62,120.41L18.36,114L19.09,117.78L19.83,109.98L20.56,115.38L22.76,100.67L23.5,99.29L24.23,104.72L24.97,99.36L26.44,113.95L27.17,108.04L28.64,118.59L29.37,124.62L31.58,105.09L32.31,103.61L33.04,92.61L33.78,96.21L35.25,75.66L35.98,90.49L36.72,92.3L37.45,88.73L40.39,136.78L41.12,138.4L42.59,126.54L43.33,119.62L44.06,114.85L44.79,101.8L45.53,106.02L46.26,97.14L47.73,105.37L48.47,99.18L50.67,119.3L51.4,119.81L52.14,122.61L52.87,117.58L54.34,137.5L55.07,133.92L57.28,145.72L58.01,137.11L59.48,129.2L60.22,129.97L60.95,125.61L61.68,134.87L62.42,124.34L63.15,132.2L64.62,141.1L65.36,144.89L66.09,146.46L66.82,161.99L67.56,161.12L68.29,168.1L69.03,162.69L69.76,163.33L70.5,167.36L71.23,156.48L71.96,152.07L72.7,139.33L74.17,156.65L74.9,156.21L75.64,152.53L76.37,161.35L77.1,161.64L77.84,155.86L79.31,148.33L80.04,146.73L82.25,133.45L82.98,133.49L84.45,116.1L85.18,124.74L85.92,127.53L86.65,135.38L88.12,126.61L88.85,123.76L89.59,127.8L90.32,123.16L92.53,152.74L93.26,151.9L95.46,170.32L96.2,158.73L96.93,161.23L97.67,149.41L98.4,134.5L99.13,141.73L99.87,125.46L100.6,135.03L101.34,129.33L102.07,135.86L102.81,125.11L103.54,142.03L105.01,153.99L105.74,153.17L107.95,149.53L108.68,137.03L110.15,130.46L110.88,117.73L111.62,114.73L112.35,125.79L114.56,137.96L115.29,137.12L116.02,139.93L116.76,145.91L118.96,111.45L119.7,110.15L121.16,95.38L121.9,89.22L123.37,75.03L124.1,63.54L124.84,72.89L125.57,71.55L126.31,76.65L127.04,74.7L127.77,73.38L128.51,60.43L129.24,70.48L129.98,67.92L131.45,92.19L132.18,94.74L132.91,108.89L133.65,106.44L134.38,103L135.12,106.79L138.05,69.37L138.79,66.44L140.99,48.27L141.73,58.33L142.46,55.71L143.19,59.28L143.93,59.09L144.66,72.04L145.4,79.12L146.13,94.4L146.87,96.53L147.6,115.65L150.54,129.87L151.27,138.11L152.01,124.82L152.74,131.01L153.48,138.95L154.21,137.58L155.68,154.66L156.41,156.72L157.15,158.28L157.88,150.47L158.62,148.36L159.35,126.94L160.82,120.5L161.55,112.5L163.76,104.08L164.49,87.57L165.22,85.24L165.96,86.44L166.69,94.03L167.43,93.08L168.16,104.89L168.9,99.21L169.63,107.18L170.37,102.49L174.04,154.21L174.77,146L176.24,169.36L176.97,170.46L177.71,172.55L178.44,163.16L179.18,162.93L179.91,176.95L180.65,184.3L181.38,173.09L182.11,179.38L182.85,169.67L184.32,174.98L185.05,168.19L185.79,170.46L186.52,163.63L187.25,153.46L187.99,165.47L189.46,153.52L190.19,157.9L190.93,163.85L191.66,154.83L192.4,161L193.13,157.44L193.86,165.07L194.6,150.3L195.33,158.88L196.07,155.94L196.8,160.17L197.54,152.62L199,161.97L199.74,164.09L201.94,179.25L202.68,180.87L203.41,177.59L204.14,185.14L204.88,192.86L205.61,190.39L206.35,189.01L207.08,190.91L208.55,192.63L209.28,188.91L210.02,188.4L210.75,189.18L211.49,189.15L212.22,193.57L212.96,193.27L213.69,189.12L214.43,178.51L215.16,180.18L215.89,181.94L216.63,174.01L217.36,188.22L218.1,182.51L218.83,178.38L219.57,184.91L221.03,172.93L221.77,175.62L222.5,182.8L223.24,181.45L223.97,183.04L224.71,176.99L226.17,192.93L226.91,189.43L228.38,192.21L229.11,184.57L229.85,192.51L230.58,190.9L231.31,185.96L232.05,193.22L232.78,190.55L233.52,192.83L234.25,197.62L234.99,184.85L236.46,195.22L237.19,185.4L238.66,198.85L239.39,201.71L240.13,198.03L240.86,198.88L242.33,205.7L243.06,202.6L243.8,208.36L244.53,203.03L245.27,205.18L246,198.55L246.74,214.97L247.47,212.75L248.2,227.44L248.94,224.1L249.67,228.97L250.41,224.77L251.14,225.11L251.88,220.73L252.61,224.39L253.34,222.35L254.81,216.04L255.55,211.11L256.28,211.5L257.02,208.51L257.75,214.62L258.49,211.77L259.22,204.04L259.95,213.37L260.69,212.03L261.42,213.97L262.16,214.16L262.89,204.58L263.63,207.13L264.36,214.71L265.83,201.22L266.56,194.31L267.3,190.83L268.03,195.49L269.5,192.21L270.23,202.08L273.17,214.52L273.91,212.98L275.37,219.61L276.11,209.78L276.84,212.57L277.58,206.84L278.31,213.09L279.05,212.16L279.78,205.96L280.51,213.9L281.25,217.99L281.98,202.8L283.45,224.14L284.19,226.28L284.92,227.68L285.66,224.16L286.39,233.42L287.12,227.72L287.86,223.59L288.59,227.36L289.33,227.48L290.06,215.92L292.26,229.03L293,218.03L293.73,221.43L294.47,217.52L295.2,226.57L295.94,98.57L297.4,53.78L298.14,46.17L299.61,31.92L300.34,44.71L301.81,61.33L302.54,76.15L304.75,91.72L305.48,86.2L306.22,80.3L306.95,81.72L308.42,92.66L309.15,90.57L310.62,83.85L311.36,65.38L312.09,54.29L312.83,57.82L313.56,61.51L314.29,77.9L315.03,93.83L315.76,84.71L316.5,87.51L317.23,86.22L317.97,74.66L318.7,78.63L319.43,74.37L320.17,82.99L323.11,121.08L323.84,121.58L324.57,104.33L325.31,119.82L326.78,109.96L327.51,130.7L328.98,146.7L329.72,147.88L330.45,144.99L331.18,136.66L332.65,124.82L333.39,132.77L334.12,131.55L334.86,120.71L336.32,103.75L337.06,107.36L337.79,112.47L338.53,106.44L339.26,111.98L340,108.5L341.46,126.25L342.2,145.27L342.93,148.65L343.67,145.1L345.14,127.43L345.87,124.86L346.6,123.6L347.34,119.93L348.07,128.07L348.81,125.38L349.54,119.83L350.28,100.24L352.48,113.49L353.21,106.35L354.68,91.64L355.42,84.45L356.15,59.35L356.89,69.7L358.35,47.78L359.09,56.23L359.82,47.55L360.56,65.66L361.29,81.59L362.03,79.56L362.76,78.68L363.49,70.63L365.7,30.63L366.43,39.45L367.17,43.07L367.9,69.92L368.63,73.33L369.37,92.14L370.84,102.58L371.57,124.26L373.04,139.99L373.78,138.09L375.24,100.53L375.98,76.85L376.71,61.52L377.45,62.3L378.18,58.8L378.92,60.92L379.65,69.17L380.38,66.34L381.85,119.99L382.59,131.31L384.79,170.11L385.52,159.69L386.99,168.59L387.73,158.42L389.2,145.54L389.93,150.35L390.66,147L391.4,148.54L392.13,158.19L392.87,139.9L394.34,156.36L395.07,156.73L395.81,147.86L396.54,180.91L397.27,182.29L398.01,190.77L398.74,187.86L399.48,190.41L400.21,192.85L400.95,183.76L401.68,183.72L402.41,179.29L403.15,182.14L403.88,179.41L405.35,165.02L406.09,166.77L407.55,177.72L408.29,177.49L409.02,170.01L409.76,181.34L411.23,186.54L411.96,185.38L412.69,178.64L413.43,180.23L415.63,194.25L416.37,188.42L417.84,208.96L418.57,205.4L420.04,221.05L420.77,215.7L421.51,216.29L422.24,215.83L422.98,211.55L423.71,213.74L425.18,204.28L425.91,207.35L428.85,182.72L429.58,185.01L430.32,185.6L431.05,196.4L432.52,210.83L433.26,210.93L433.99,207.51L434.72,212.29L435.46,219.63L436.19,214.04L437.66,213.91L438.4,229.77L439.13,220.07L439.87,225.49L441.33,227.76L442.07,222.83L443.54,37.31L444.27,44.27L445.01,39.89L445.74,30.53L447.94,74.95L448.68,77.54L449.41,79.9L450.15,77.54L451.61,65.42L452.35,56.62L453.08,48.38L453.82,50.65L454.55,49L455.29,65.67L456.02,68.13L456.75,61.6L458.96,76.15L459.69,83.11L460.43,90.22L461.16,106.29L461.9,108.64L462.63,115.44L463.36,121.81L464.1,137.23L464.83,130.31L465.57,114.67L466.3,117.84L467.04,97.7L467.77,106.61L468.5,100.19L469.97,81.77L470.71,87.63L471.44,107.57L472.18,97.6L472.91,126.07L473.64,123.6L474.38,119.33L475.11,105.6L475.85,103.16L476.58,97.67L478.05,99.9L478.78,101.99L479.52,97.72L480.25,83.41L480.99,83.39L481.72,67.43L483.93,44.88L484.66,44.01L486.13,45.83L486.86,41.95L487.6,41.68L488.33,25.91L489.07,16.5L489.8,32.23L492.74,97.3L493.47,110.03L494.21,95.68L494.94,61.77L495.67,34.58L496.41,40.89L497.14,33.38L497.88,36.74L501.55,156.27L502.28,160.89L503.02,149.91L503.75,151.79L505.22,121.35L505.96,143.79L506.69,139.06L507.42,149.7L508.16,149.62L508.89,163.3L511.1,180.79L511.83,181.45L514.03,171.97L514.77,169.82L516.24,163.42L516.97,163.23L517.7,165.69L518.44,164.77L519.91,182L520.64,180.53L522.11,188.7L522.84,190.93L525.05,211.1L525.78,198.98L526.52,210.8L527.25,210.34L529.45,191.66L530.19,190.53L531.66,189.51L532.39,194.77L533.13,200.99L533.86,199.12L535.33,211.59L536.06,216.34L536.8,225.29L537.53,223.16L538.27,221.55L539,213.55" style="vector-effect: non-scaling-stroke; fill: none; stroke: rgb(31, 119, 180); stroke-opacity: 1; stroke-width: 2px; opacity: 1;"/><g class="points"/></g><g class="trace scatter trace2ae066" style="stroke-miterlimit: 2; opacity: 1;"><path class="js-line" d="M0,313.5L539,313.5" style="vector-effect: non-scaling-stroke; fill: none; stroke: rgb(255, 127, 14); stroke-opacity: 1; stroke-width: 2px; opacity: 1;"/><g class="points"/></g></g></g><g class="overplot"/><path class="xlines crisp" transform="translate(60,60)" d="M-1,330.5h541" style="fill: none; stroke-width: 1px; stroke: rgb(0, 0, 0); stroke-opacity: 0;"/><path class="ylines crisp" transform="translate(60,60)" d="M-0.5,-1v331" stroke-width="1px" style="fill: none; stroke: rgb(0, 0, 0); stroke-opacity: 0;"/><g class="overlines"/><g class="xaxislayer" transform="translate(60,60)"><g class="xtick" data-bb="6741"><text text-anchor="middle" x="0" y="344" transform="translate(72.7,0)" style="font-family: 'Open Sans', verdana, arial, sans-serif; font-size: 12px; fill: rgb(68, 68, 68); fill-opacity: 1; visibility: visible; white-space: pre;" data-bb="6733">100</text></g><g class="xtick" data-bb="6742"><text text-anchor="middle" x="0" y="344" transform="translate(146.13,0)" style="font-family: 'Open Sans', verdana, arial, sans-serif; font-size: 12px; fill: rgb(68, 68, 68); fill-opacity: 1; visibility: visible; white-space: pre;" data-bb="6734">200</text></g><g class="xtick" data-bb="6743"><text text-anchor="middle" x="0" y="344" transform="translate(219.57,0)" style="font-family: 'Open Sans', verdana, arial, sans-serif; font-size: 12px; fill: rgb(68, 68, 68); fill-opacity: 1; visibility: visible; white-space: pre;" data-bb="6735">300</text></g><g class="xtick" data-bb="6744"><text text-anchor="middle" x="0" y="344" transform="translate(293,0)" style="font-family: 'Open Sans', verdana, arial, sans-serif; font-size: 12px; fill: rgb(68, 68, 68); fill-opacity: 1; visibility: visible; white-space: pre;" data-bb="6736">400</text></g><g class="xtick" data-bb="6745"><text text-anchor="middle" x="0" y="344" transform="translate(366.43,0)" style="font-family: 'Open Sans', verdana, arial, sans-serif; font-size: 12px; fill: rgb(68, 68, 68); fill-opacity: 1; visibility: visible; white-space: pre;" data-bb="6737">500</text></g><g class="xtick" data-bb="6746"><text text-anchor="middle" x="0" y="344" transform="translate(439.87,0)" style="font-family: 'Open Sans', verdana, arial, sans-serif; font-size: 12px; fill: rgb(68, 68, 68); fill-opacity: 1; visibility: visible; white-space: pre;" data-bb="6738">600</text></g><g class="xtick" data-bb="6747"><text text-anchor="middle" x="0" y="344" transform="translate(513.3,0)" style="font-family: 'Open Sans', verdana, arial, sans-serif; font-size: 12px; fill: rgb(68, 68, 68); fill-opacity: 1; visibility: visible; white-space: pre;" data-bb="6739">700</text></g></g><g class="yaxislayer" transform="translate(60,60)"><g class="ytick" data-bb="6749"><text text-anchor="end" x="-2" y="6" transform="translate(0,313.5)" style="font-family: 'Open Sans', verdana, arial, sans-serif; font-size: 12px; fill: rgb(68, 68, 68); fill-opacity: 1; visibility: visible; white-space: pre;">0</text></g><g class="ytick" data-bb="6750"><text text-anchor="end" x="-2" y="6" transform="translate(0,249.36)" style="font-family: 'Open Sans', verdana, arial, sans-serif; font-size: 12px; fill: rgb(68, 68, 68); fill-opacity: 1; visibility: visible; white-space: pre;">200</text></g><g class="ytick" data-bb="6751"><text text-anchor="end" x="-2" y="6" transform="translate(0,185.21)" style="font-family: 'Open Sans', verdana, arial, sans-serif; font-size: 12px; fill: rgb(68, 68, 68); fill-opacity: 1; visibility: visible; white-space: pre;">400</text></g><g class="ytick" data-bb="6752"><text text-anchor="end" x="-2" y="6" transform="translate(0,121.07)" style="font-family: 'Open Sans', verdana, arial, sans-serif; font-size: 12px; fill: rgb(68, 68, 68); fill-opacity: 1; visibility: visible; white-space: pre;">600</text></g><g class="ytick" data-bb="6753"><text text-anchor="end" x="-2" y="6" transform="translate(0,56.92)" style="font-family: 'Open Sans', verdana, arial, sans-serif; font-size: 12px; fill: rgb(68, 68, 68); fill-opacity: 1; visibility: visible; white-space: pre;">800</text></g></g><g class="overaxes"/></g></g><g class="ternarylayer"/><g class="geolayer"/><g class="layer-above"><g class="imagelayer"/><g class="shapelayer"/></g><g class="pielayer"/><g class="glimages"/><defs id="topdefs-298510"><clipPath id="legend298510"><rect width="78" height="48" x="0" y="0"/></clipPath></defs><g class="infolayer"><g class="g-gtitle"><text class="gtitle" x="350" y="30" text-anchor="middle" style="font-family: 'Open Sans', verdana, arial, sans-serif; font-size: 17px; fill: rgb(68, 68, 68); opacity: 1; font-weight: normal; white-space: pre; visibility: visible;">avenue: video_05</text></g><g class="g-xtitle" data-bb="6740"><text class="xtitle" x="329.5" y="442" text-anchor="middle" style="font-family: 'Open Sans', verdana, arial, sans-serif; font-size: 14px; fill: rgb(68, 68, 68); opacity: 1; font-weight: normal; white-space: pre; visibility: visible;">sample index</text></g><g class="g-ytitle" data-bb="6748"><text class="ytitle" transform="rotate(-90,22,225) translate(0, 0)" x="22" y="225" text-anchor="middle" style="font-family: 'Open Sans', verdana, arial, sans-serif; font-size: 14px; fill: rgb(68, 68, 68); opacity: 1; font-weight: normal; white-space: pre; visibility: visible;">reconstruction cost</text></g><g class="legend" pointer-events="all" transform="translate(609.78, 60)"><rect class="bg" shape-rendering="crispEdges" style="stroke: rgb(68, 68, 68); stroke-opacity: 1; fill: rgb(255, 255, 255); fill-opacity: 1; stroke-width: 0px;" width="78" height="48" x="0" y="0"/><g class="scrollbox" transform="translate(0, 0)" clip-path="url(#legend298510)"><g class="groups"><g class="traces" transform="translate(0, 14.5)" style="opacity: 1;"><g class="layers" style="opacity: 1;"><g class="legendfill"/><g class="legendlines"><path class="js-line" d="M5,0h30" style="fill: none; stroke: rgb(31, 119, 180); stroke-opacity: 1; stroke-width: 2px;"/></g><g class="legendsymbols"><g class="legendpoints"/></g></g><text class="legendtext user-select-none" x="40" y="4.680000000000001" style="text-anchor: start; font-family: 'Open Sans', verdana, arial, sans-serif; font-size: 12px; fill: rgb(68, 68, 68); fill-opacity: 1; white-space: pre; visibility: visible;" data-bb="6754">recon</text><rect class="legendtoggle" pointer-events="all" style="cursor: pointer; fill: rgb(0, 0, 0); fill-opacity: 0;" x="0" y="-9.5" width="118" height="19"/></g><g class="traces" transform="translate(0, 33.5)" style="opacity: 1;"><g class="layers" style="opacity: 1;"><g class="legendfill"/><g class="legendlines"><path class="js-line" d="M5,0h30" style="fill: none; stroke: rgb(255, 127, 14); stroke-opacity: 1; stroke-width: 2px;"/></g><g class="legendsymbols"><g class="legendpoints"/></g></g><text class="legendtext user-select-none" x="40" y="4.680000000000001" style="text-anchor: start; font-family: 'Open Sans', verdana, arial, sans-serif; font-size: 12px; fill: rgb(68, 68, 68); fill-opacity: 1; white-space: pre; visibility: visible;" data-bb="6755">zero</text><rect class="legendtoggle" pointer-events="all" x="0" y="-9.5" width="118" height="19" style="cursor: pointer; fill: rgb(0, 0, 0); fill-opacity: 0;"/></g></g></g><rect class="scrollbar" rx="20" ry="2" width="0" height="0" style="fill: rgb(128, 139, 164); fill-opacity: 1;"/></g></g></svg>