<svg class="main-svg" xmlns="http://www.w3.org/2000/svg" xmlns:xlink="http://www.w3.org/1999/xlink" width="700" height="450"><rect x="0" y="0" width="700" height="450" style="fill: rgb(255, 255, 255); fill-opacity: 1;"/><defs id="defs-d65cbe"><g class="clips"><clipPath class="axesclip" id="clipd65cbex"><rect x="60" y="0" width="539" height="450"/></clipPath><clipPath class="axesclip" id="clipd65cbey"><rect x="0" y="60" width="700" height="330"/></clipPath><clipPath class="axesclip" id="clipd65cbexy"><rect x="60" y="60" width="539" height="330"/></clipPath><clipPath class="plotclip" id="clipd65cbexyplot"><rect width="539" height="330"/></clipPath></g></defs><g class="bglayer"><rect class="bg" x="60" y="60" width="539" height="330" style="fill: rgb(255, 255, 255); fill-opacity: 1; stroke-width: 0;"/></g><g class="layer-below"><g class="imagelayer"/><g class="shapelayer"/></g><g class="cartesianlayer"><g class="subplot xy"><g class="layer-subplot"><g class="shapelayer"/><g class="imagelayer"/></g><g class="gridlayer" transform="translate(60,60)"><path class="xgrid crisp" d="M0,0v330" transform="translate(117.54,0)" style="stroke: rgb(238, 238, 238); stroke-opacity: 1; stroke-width: 1px;"/><path class="xgrid crisp" d="M0,0v330" transform="translate(236.26,0)" style="stroke: rgb(238, 238, 238); stroke-opacity: 1; stroke-width: 1px;"/><path class="xgrid crisp" d="M0,0v330" transform="translate(354.98,0)" style="stroke: rgb(238, 238, 238); stroke-opacity: 1; stroke-width: 1px;"/><path class="xgrid crisp" d="M0,0v330" transform="translate(473.7,0)" style="stroke: rgb(238, 238, 238); stroke-opacity: 1; stroke-width: 1px;"/><path class="ygrid crisp" d="M0,0h539" transform="translate(0,260.47)" style="stroke: rgb(238, 238, 238); stroke-opacity: 1; stroke-width: 1px;"/><path class="ygrid crisp" d="M0,0h539" transform="translate(0,207.44)" style="stroke: rgb(238, 238, 238); stroke-opacity: 1; stroke-width: 1px;"/><path class="ygrid crisp" d="M0,0h539" transform="translate(0,154.41)" style="stroke: rgb(238, 238, 238); stroke-opacity: 1; stroke-width: 1px;"/><path class="ygrid crisp" d="M0,0h539" transform="translate(0,101.39)" style="stroke: rgb(238, 238, 238); stroke-opacity: 1; stroke-width: 1px;"/><path class="ygrid crisp" d="M0,0h539" transform="translate(0,48.36)" style="stroke: rgb(238, 238, 238); stroke-opacity: 1; stroke-width: 1px;"/></g><g class="overgrid"/><g class="zerolinelayer" transform="translate(60,60)"><path class="yzl zl crisp" d="M0,0h539" transform="translate(0,313.5)" style="stroke: rgb(68, 68, 68); stroke-opacity: 1; stroke-width: 1px;"/></g><g class="overzero"/><g class="plot" transform="translate(60, 60)" clip-path="url(#clipd65cbexyplot)"><g class="imagelayer"/><g class="maplayer"/><g class="barlayer"/><g class="carpetlayer"/><g class="boxlayer"/><g class="scatterlayer"><g class="trace scatter trace90a8a7" style="stroke-miterlimit: 2; opacity: 1;"><path class="js-line" d="M0,94.28L1.19,87L2.37,93.62L5.94,136.48L7.12,133.95L8.31,129.85L9.5,129.37L10.69,113.69L11.87,115.98L15.43,140.7L16.62,127.14L17.81,134.13L19,127.62L20.18,134.91L21.37,136.78L22.56,139.64L23.74,147.29L24.93,138.64L26.12,151.24L27.31,138.33L28.49,137.44L29.68,140.25L30.87,136.84L32.06,124.5L33.24,133.44L34.43,137.55L35.62,149.65L37.99,141.81L39.18,142.44L41.55,134.32L42.74,143.43L43.93,127.98L45.11,127.58L46.3,125.08L47.49,132.54L48.68,121.54L49.86,125.79L51.05,116.36L52.24,125.11L53.43,124.71L54.61,128.61L55.8,139.6L56.99,133.67L59.36,148.5L60.55,148.6L62.92,153.75L64.11,142.2L65.3,138.72L66.48,121.86L67.67,101.65L68.86,103.99L70.05,112.43L71.23,114.82L72.42,118.44L73.61,126.4L74.8,137.12L75.98,137.54L77.17,140.15L78.36,127.32L79.54,139.07L80.73,142.03L81.92,142.64L83.11,153.53L84.29,144L85.48,155.25L86.67,158.37L87.85,164.56L89.04,161L90.23,171.88L91.42,165.02L92.6,174.05L93.79,164.74L94.98,172.65L96.17,173.47L97.35,172.63L99.73,179.26L100.91,173.58L102.1,183.83L103.29,180.43L104.48,175.37L105.66,178.69L108.04,175.62L109.22,173.1L110.41,175.28L111.6,169.05L112.79,167.78L113.97,175.55L115.16,171.94L116.35,180.63L117.54,177.56L118.72,190.82L119.91,185.27L121.1,187.57L122.28,186.03L123.47,180.43L124.66,177.87L125.85,170.87L128.22,158.35L129.41,160.12L130.59,157.08L131.78,150.5L132.97,146.36L134.16,146.76L135.34,151.84L136.53,146.96L138.91,133.93L140.09,123.74L141.28,120.85L142.47,114.68L143.65,119.85L144.84,129.59L146.03,126.32L147.22,128.15L148.4,130.73L149.59,123.34L150.78,131.06L151.96,120.3L153.15,105.88L154.34,114.81L155.53,100.18L156.71,104.31L157.9,103.9L159.09,111.13L160.28,113.37L161.46,126.74L163.84,129.43L165.02,123.18L166.21,130.96L167.4,133.71L169.77,135.53L170.96,128.9L172.15,130.33L173.33,128.29L174.52,124.51L175.71,124.81L176.9,122.2L178.08,115.6L179.27,122.58L180.46,123.12L181.65,125.8L182.83,124.22L185.21,136.92L186.39,123.72L188.77,125.12L189.96,137.18L191.14,129.52L192.33,129.63L193.52,123.98L194.7,122.55L195.89,109.59L197.08,122.16L199.45,111.89L200.64,110.32L201.83,121.44L203.02,117.19L204.2,115.49L205.39,121.55L206.58,119.6L207.76,108.19L208.95,106.23L210.14,107.48L211.33,109.96L212.51,118.56L214.89,141.23L216.07,132.03L217.26,130.78L218.45,125.84L219.64,124.57L220.82,115.91L222.01,112.38L223.2,111.58L224.39,91.62L225.57,92.89L229.13,40L230.32,53.98L231.51,65.46L232.7,69.2L233.88,64.18L235.07,75.97L236.26,92.75L237.44,95.75L238.63,101.03L239.82,97.8L241.01,95.06L242.19,88.56L243.38,84.73L244.57,97.82L245.76,104.76L246.94,102.4L248.13,94.88L249.32,106.2L250.5,97.06L251.69,81.29L252.88,70.16L254.07,82.04L255.25,92.63L256.44,95.11L258.81,106.17L260,109.42L261.19,113.62L262.38,109.02L263.56,110.96L264.75,104.92L265.94,93.88L267.13,105.45L268.31,108.85L269.5,96.36L270.69,102.98L271.87,97.27L273.06,104.91L274.25,104.37L275.44,102.17L276.62,103.38L277.81,114.08L279,108.57L281.37,125.01L282.56,121.05L283.75,117.22L284.93,106.88L286.12,112.67L287.31,107.46L288.5,121.4L289.68,120.01L290.87,110.11L292.06,124.27L294.43,96.28L295.62,99.68L296.81,98.35L297.99,89.17L299.18,77.11L300.37,88.23L301.56,93.55L302.74,117.6L303.93,114.59L305.12,119.13L306.3,131.56L307.49,133.07L308.68,128.53L309.87,116.13L311.05,125.26L312.24,117.94L313.43,125.47L314.61,123.57L315.8,115.82L316.99,120.67L320.55,94.37L321.74,101.51L322.93,100.63L324.11,114.04L325.3,131.95L326.49,131.71L327.67,133.55L328.86,107.71L330.05,95.93L331.24,91.68L333.61,107.82L334.8,102.45L338.36,140.52L339.55,145.62L340.73,142.82L341.92,146.88L343.11,167.06L344.3,161.44L345.48,164.4L346.67,160.96L347.86,175.75L349.04,162.2L350.23,160.48L351.42,165.77L352.61,159.19L353.79,172.43L354.98,175.99L356.17,176.16L357.35,177.39L358.54,171.62L362.1,128.39L363.29,134.58L365.67,125.5L366.85,97.73L368.04,99.36L369.23,95.27L370.41,109.47L371.6,95.83L372.79,106.08L373.98,86.44L375.16,86.29L376.35,94.45L377.54,96.87L378.72,111.61L381.1,120.18L382.29,110.51L383.47,110.22L384.66,103.11L385.85,104.02L387.04,106.67L388.22,115.05L389.41,110.5L390.6,114.72L391.78,113.51L392.97,96.28L394.16,120.22L395.35,113.33L396.53,97.24L397.72,95.96L398.91,101.45L400.09,104.59L401.28,92.87L402.47,113.65L403.66,105.34L404.84,116.56L406.03,120.11L410.78,27.7L411.97,32.02L413.15,41.24L414.34,41.9L416.72,75.59L417.9,78.57L420.28,79.03L421.46,83.13L423.84,82.67L425.03,84.16L426.21,82.91L427.4,83.04L428.59,82.64L429.78,90.94L432.15,82.23L433.34,91.09L434.52,97.48L435.71,91.01L436.9,102.47L438.09,97.15L439.27,103.07L440.46,95.91L441.65,106.25L442.83,109.89L444.02,82.97L445.21,77.34L446.4,75.89L447.58,82.13L448.77,118.7L449.96,113.29L451.15,109.15L452.33,113.35L454.71,108.5L455.89,103.75L457.08,91.37L458.27,89.26L460.64,97.77L461.83,116.6L464.2,87.26L465.39,88.13L468.95,124.48L470.14,127.51L471.33,138.29L472.52,137.07L473.7,160.23L474.89,156.95L477.26,165.21L478.45,157.28L479.64,157.72L480.83,169.59L482.01,173.28L483.2,165.37L485.57,139.42L486.76,112.92L487.95,110.26L489.14,96.2L490.32,93.07L491.51,82.75L492.7,83.46L493.89,77.63L496.26,87.92L497.45,98.2L498.63,99.33L499.82,96.11L501.01,92.86L502.2,96.02L503.38,84.22L504.57,86.39L506.94,103.37L508.13,94.03L510.51,88.15L511.69,97.97L512.88,105.33L514.07,95.58L515.26,95.23L516.44,58.81L520,16.5L521.19,25.3L523.57,62.15L524.75,60.11L525.94,76.76L527.13,63.94L528.31,73.38L529.5,46.2L530.69,71.6L531.88,74.77L533.06,76.14L534.25,79.4L535.44,76.11L536.63,88.05L537.81,83.93L539,89.8" style="vector-effect: non-scaling-stroke; fill: none; stroke: rgb(31, 119, 180); stroke-opacity: 1; stroke-width: 2px; opacity: 1;"/><g class="points"/></g><g class="trace scatter trace448ee3" style="stroke-miterlimit: 2; opacity: 1;"><path class="js-line" d="M0,313.5L539,313.5" style="vector-effect: non-scaling-stroke; fill: none; stroke: rgb(255, 127, 14); stroke-opacity: 1; stroke-width: 2px; opacity: 1;"/><g class="points"/></g></g></g><g class="overplot"/><path class="xlines crisp" transform="translate(60,60)" d="M-1,330.5h541" style="fill: none; stroke-width: 1px; stroke: rgb(0, 0, 0); stroke-opacity: 0;"/><path class="ylines crisp" transform="translate(60,60)" d="M-0.5,-1v331" stroke-width="1px" style="fill: none; stroke: rgb(0, 0, 0); stroke-opacity: 0;"/><g class="overlines"/><g class="xaxislayer" transform="translate(60,60)"><g class="xtick" data-bb="7129"><text text-anchor="middle" x="0" y="344" transform="translate(117.54,0)" style="font-family: 'Open Sans', verdana, arial, sans-serif; font-size: 12px; fill: rgb(68, 68, 68); fill-opacity: 1; visibility: visible; white-space: pre;" data-bb="7124">100</text></g><g class="xtick" data-bb="7130"><text text-anchor="middle" x="0" y="344" transform="translate(236.26,0)" style="font-family: 'Open Sans', verdana, arial, sans-serif; font-size: 12px; fill: rgb(68, 68, 68); fill-opacity: 1; visibility: visible; white-space: pre;" data-bb="7125">200</text></g><g class="xtick" data-bb="7131"><text text-anchor="middle" x="0" y="344" transform="translate(354.98,0)" style="font-family: 'Open Sans', verdana, arial, sans-serif; font-size: 12px; fill: rgb(68, 68, 68); fill-opacity: 1; visibility: visible; white-space: pre;" data-bb="7126">300</text></g><g class="xtick" data-bb="7132"><text text-anchor="middle" x="0" y="344" transform="translate(473.7,0)" style="font-family: 'Open Sans', verdana, arial, sans-serif; font-size: 12px; fill: rgb(68, 68, 68); fill-opacity: 1; visibility: visible; white-space: pre;" data-bb="7127">400</text></g></g><g class="yaxislayer" transform="translate(60,60)"><g class="ytick" data-bb="7134"><text text-anchor="end" x="-2" y="6" transform="translate(0,313.5)" style="font-family: 'Open Sans', verdana, arial, sans-serif; font-size: 12px; fill: rgb(68, 68, 68); fill-opacity: 1; visibility: visible; white-space: pre;">0</text></g><g class="ytick" data-bb="7135"><text text-anchor="end" x="-2" y="6" transform="translate(0,260.47)" style="font-family: 'Open Sans', verdana, arial, sans-serif; font-size: 12px; fill: rgb(68, 68, 68); fill-opacity: 1; visibility: visible; white-space: pre;">200</text></g><g class="ytick" data-bb="7136"><text text-anchor="end" x="-2" y="6" transform="translate(0,207.44)" style="font-family: 'Open Sans', verdana, arial, sans-serif; font-size: 12px; fill: rgb(68, 68, 68); fill-opacity: 1; visibility: visible; white-space: pre;">400</text></g><g class="ytick" data-bb="7137"><text text-anchor="end" x="-2" y="6" transform="translate(0,154.41)" style="font-family: 'Open Sans', verdana, arial, sans-serif; font-size: 12px; fill: rgb(68, 68, 68); fill-opacity: 1; visibility: visible; white-space: pre;">600</text></g><g class="ytick" data-bb="7138"><text text-anchor="end" x="-2" y="6" transform="translate(0,101.39)" style="font-family: 'Open Sans', verdana, arial, sans-serif; font-size: 12px; fill: rgb(68, 68, 68); fill-opacity: 1; visibility: visible; white-space: pre;">800</text></g><g class="ytick" data-bb="7139"><text text-anchor="end" x="-2" y="6" transform="translate(0,48.36)" style="font-family: 'Open Sans', verdana, arial, sans-serif; font-size: 12px; fill: rgb(68, 68, 68); fill-opacity: 1; visibility: visible; white-space: pre;">1000</text></g></g><g class="overaxes"/></g></g><g class="ternarylayer"/><g class="geolayer"/><g class="layer-above"><g class="imagelayer"/><g class="shapelayer"/></g><g class="pielayer"/><g class="glimages"/><defs id="topdefs-d65cbe"><clipPath id="legendd65cbe"><rect width="78" height="48" x="0" y="0"/></clipPath></defs><g class="infolayer"><g class="g-gtitle"><text class="gtitle" x="350" y="30" text-anchor="middle" style="font-family: 'Open Sans', verdana, arial, sans-serif; font-size: 17px; fill: rgb(68, 68, 68); opacity: 1; font-weight: normal; white-space: pre; visibility: visible;">avenue: video_14</text></g><g class="g-xtitle" data-bb="7128"><text class="xtitle" x="329.5" y="442" text-anchor="middle" style="font-family: 'Open Sans', verdana, arial, sans-serif; font-size: 14px; fill: rgb(68, 68, 68); opacity: 1; font-weight: normal; white-space: pre; visibility: visible;">sample index</text></g><g class="g-ytitle" data-bb="7133"><text class="ytitle" transform="rotate(-90,22,225) translate(0, 0)" x="22" y="225" text-anchor="middle" style="font-family: 'Open Sans', verdana, arial, sans-serif; font-size: 14px; fill: rgb(68, 68, 68); opacity: 1; font-weight: normal; white-space: pre; visibility: visible;">reconstruction cost</text></g><g class="legend" pointer-events="all" transform="translate(609.78, 60)"><rect class="bg" shape-rendering="crispEdges" style="stroke: rgb(68, 68, 68); stroke-opacity: 1; fill: rgb(255, 255, 255); fill-opacity: 1; stroke-width: 0px;" width="78" height="48" x="0" y="0"/><g class="scrollbox" transform="translate(0, 0)" clip-path="url(#legendd65cbe)"><g class="groups"><g class="traces" transform="translate(0, 14.5)" style="opacity: 1;"><g class="layers" style="opacity: 1;"><g class="legendfill"/><g class="legendlines"><path class="js-line" d="M5,0h30" style="fill: none; stroke: rgb(31, 119, 180); stroke-opacity: 1; stroke-width: 2px;"/></g><g class="legendsymbols"><g class="legendpoints"/></g></g><text class="legendtext user-select-none" x="40" y="4.680000000000001" style="text-anchor: start; font-family: 'Open Sans', verdana, arial, sans-serif; font-size: 12px; fill: rgb(68, 68, 68); fill-opacity: 1; white-space: pre; visibility: visible;" data-bb="7140">recon</text><rect class="legendtoggle" pointer-events="all" style="cursor: pointer; fill: rgb(0, 0, 0); fill-opacity: 0;" x="0" y="-9.5" width="118" height="19"/></g><g class="traces" transform="translate(0, 33.5)" style="opacity: 1;"><g class="layers" style="opacity: 1;"><g class="legendfill"/><g class="legendlines"><path class="js-line" d="M5,0h30" style="fill: none; stroke: rgb(255, 127, 14); stroke-opacity: 1; stroke-width: 2px;"/></g><g class="legendsymbols"><g class="legendpoints"/></g></g><text class="legendtext user-select-none" x="40" y="4.680000000000001" style="text-anchor: start; font-family: 'Open Sans', verdana, arial, sans-serif; font-size: 12px; fill: rgb(68, 68, 68); fill-opacity: 1; white-space: pre; visibility: visible;" data-bb="7141">zero</text><rect class="legendtoggle" pointer-events="all" x="0" y="-9.5" width="118" height="19" style="cursor: pointer; fill: rgb(0, 0, 0); fill-opacity: 0;"/></g></g></g><rect class="scrollbar" rx="20" ry="2" width="0" height="0" style="fill: rgb(128, 139, 164); fill-opacity: 1;"/></g></g></svg>