<svg class="main-svg" xmlns="http://www.w3.org/2000/svg" xmlns:xlink="http://www.w3.org/1999/xlink" width="700" height="450"><rect x="0" y="0" width="700" height="450" style="fill: rgb(255, 255, 255); fill-opacity: 1;"/><defs id="defs-5f47a9"><g class="clips"><clipPath class="axesclip" id="clip5f47a9x"><rect x="60" y="0" width="539" height="450"/></clipPath><clipPath class="axesclip" id="clip5f47a9y"><rect x="0" y="60" width="700" height="330"/></clipPath><clipPath class="axesclip" id="clip5f47a9xy"><rect x="60" y="60" width="539" height="330"/></clipPath><clipPath class="plotclip" id="clip5f47a9xyplot"><rect width="539" height="330"/></clipPath></g></defs><g class="bglayer"><rect class="bg" x="60" y="60" width="539" height="330" style="fill: rgb(255, 255, 255); fill-opacity: 1; stroke-width: 0;"/></g><g class="layer-below"><g class="imagelayer"/><g class="shapelayer"/></g><g class="cartesianlayer"><g class="subplot xy"><g class="layer-subplot"><g class="shapelayer"/><g class="imagelayer"/></g><g class="gridlayer" transform="translate(60,60)"><path class="xgrid crisp" d="M0,0v330" transform="translate(85.2,0)" style="stroke: rgb(238, 238, 238); stroke-opacity: 1; stroke-width: 1px;"/><path class="xgrid crisp" d="M0,0v330" transform="translate(172.13,0)" style="stroke: rgb(238, 238, 238); stroke-opacity: 1; stroke-width: 1px;"/><path class="xgrid crisp" d="M0,0v330" transform="translate(259.07,0)" style="stroke: rgb(238, 238, 238); stroke-opacity: 1; stroke-width: 1px;"/><path class="xgrid crisp" d="M0,0v330" transform="translate(346,0)" style="stroke: rgb(238, 238, 238); stroke-opacity: 1; stroke-width: 1px;"/><path class="xgrid crisp" d="M0,0v330" transform="translate(432.94,0)" style="stroke: rgb(238, 238, 238); stroke-opacity: 1; stroke-width: 1px;"/><path class="xgrid crisp" d="M0,0v330" transform="translate(519.87,0)" style="stroke: rgb(238, 238, 238); stroke-opacity: 1; stroke-width: 1px;"/><path class="ygrid crisp" d="M0,0h539" transform="translate(0,247.21)" style="stroke: rgb(238, 238, 238); stroke-opacity: 1; stroke-width: 1px;"/><path class="ygrid crisp" d="M0,0h539" transform="translate(0,180.92)" style="stroke: rgb(238, 238, 238); stroke-opacity: 1; stroke-width: 1px;"/><path class="ygrid crisp" d="M0,0h539" transform="translate(0,114.62)" style="stroke: rgb(238, 238, 238); stroke-opacity: 1; stroke-width: 1px;"/><path class="ygrid crisp" d="M0,0h539" transform="translate(0,48.33)" style="stroke: rgb(238, 238, 238); stroke-opacity: 1; stroke-width: 1px;"/></g><g class="overgrid"/><g class="zerolinelayer" transform="translate(60,60)"><path class="yzl zl crisp" d="M0,0h539" transform="translate(0,313.5)" style="stroke: rgb(68, 68, 68); stroke-opacity: 1; stroke-width: 1px;"/></g><g class="overzero"/><g class="plot" transform="translate(60, 60)" clip-path="url(#clip5f47a9xyplot)"><g class="imagelayer"/><g class="maplayer"/><g class="barlayer"/><g class="carpetlayer"/><g class="boxlayer"/><g class="scatterlayer"><g class="trace scatter trace77d500" style="stroke-miterlimit: 2; opacity: 1;"><path class="js-line" d="M0,184.93L1.74,187.55L3.48,188.19L6.95,206.42L8.69,211.99L10.43,212.11L12.17,208.14L13.91,210.17L15.65,204.38L17.39,211.76L19.13,214.09L20.86,216.26L22.6,214.08L26.08,222.42L27.82,221.27L29.56,219.14L31.3,222.91L33.04,221.93L34.77,223.15L36.51,220.6L38.25,222.08L39.99,217.41L41.73,215.17L43.47,211.75L45.21,211.95L46.95,214.2L48.68,211.32L50.42,212.95L52.16,209.29L53.9,201.54L55.64,198.5L59.12,185.48L60.85,186.34L64.33,186.35L66.07,196.33L69.55,201.72L71.29,198.53L73.03,204.35L74.76,204.37L76.5,210.96L78.24,204.43L79.98,202.89L81.72,196.25L83.46,200.86L85.2,198.07L86.94,209.14L88.67,211.23L90.41,220.53L92.15,221.25L93.89,224.47L95.63,216.8L97.37,215.89L99.11,211.87L102.58,213.71L104.32,211.93L106.06,216.89L107.8,215.88L109.54,215.75L111.28,218.94L113.02,218.11L114.75,220.22L116.49,214.86L118.23,220.33L119.97,217.15L121.71,218L123.45,221.5L125.19,222.59L128.66,232.95L130.4,236.36L132.14,239.65L133.88,239.55L135.62,243.44L137.36,241.8L139.1,242.73L140.84,239.96L142.57,237.87L144.31,231.21L146.05,224.85L147.79,228.41L149.53,225.59L151.27,226.88L153.01,228.84L154.75,228.65L156.48,222.21L158.22,218.81L159.96,204.94L161.7,199.77L163.44,195.42L165.18,195.28L168.65,177.54L170.39,178.58L172.13,178.49L173.87,184.47L175.61,178.43L177.35,149.8L180.83,93.09L182.56,76.07L184.3,62.72L186.04,56.51L187.78,65.75L189.52,80.75L193,106.32L194.74,101.78L196.47,99.56L198.21,104.14L201.69,105.16L203.43,103.34L205.17,101.71L206.91,95.88L208.65,103.63L210.38,123.66L212.12,141.73L213.86,141.35L217.34,128.72L219.08,143.18L220.82,164.23L222.55,171.61L224.29,173.43L226.03,168.56L227.77,159.63L229.51,160.68L231.25,161.65L232.99,173.41L234.73,176.84L236.46,175.03L238.2,177.76L239.94,178.62L241.68,187.44L243.42,192.21L246.9,202.46L248.64,203.62L252.11,200.61L253.85,197.12L255.59,192.75L257.33,190.67L259.07,194.15L260.81,193.81L262.55,200.89L264.28,202.69L267.76,206.48L269.5,213.29L271.24,215.08L272.98,221.86L274.72,221.51L276.45,224.51L278.19,224.53L279.93,226.72L281.67,221.23L283.41,223.65L285.15,222.97L286.89,220.1L288.63,220.19L290.36,221.91L292.1,218.76L293.84,220.31L295.58,214.4L297.32,213.53L299.06,190.47L300.8,192.2L302.54,189.51L304.27,192.91L306.01,205.32L307.75,208.59L311.23,214.94L312.97,210.29L314.71,209.68L316.45,212.06L319.92,196.5L321.66,193.67L323.4,184.52L325.14,170.44L326.88,164.23L328.62,164.7L332.09,179.08L333.83,181.3L335.57,183.44L337.31,174.76L339.05,169.68L340.79,182.91L344.26,211.16L346,210.44L349.48,207.17L351.22,204.37L354.7,211.25L356.44,207.09L359.91,217.31L361.65,227.85L363.39,233.35L365.13,236.33L366.87,235.45L368.61,227.54L370.35,222.73L372.08,221.01L382.52,164.67L384.25,123.02L387.73,56.45L389.47,40.32L391.21,19.3L392.95,27.58L394.69,47.12L396.43,52.66L398.16,60.33L399.9,72.82L401.64,73.09L403.38,76.81L405.12,105.36L406.86,117.55L412.07,136.4L413.81,150.59L419.03,178.62L420.77,180.58L422.51,184.85L424.25,178.78L427.72,184.81L429.46,192.66L432.94,206.12L434.68,212.51L438.15,218.54L439.89,213.06L441.63,215.26L443.37,211.6L445.11,191.89L446.85,184.43L448.59,182.5L450.33,189.28L452.06,203.08L453.8,204.21L455.54,202.27L457.28,189.68L460.76,149.56L462.5,142.63L464.24,148.25L465.97,159.49L467.71,159.67L469.45,153.04L471.19,161.11L472.93,178.66L474.67,202.67L476.41,202.64L478.15,201.16L479.88,201.41L481.62,202.65L483.36,213.22L486.84,223.83L488.58,226.46L490.32,222.96L492.05,212.03L497.27,172.57L499.01,138.6L500.75,83.96L502.49,58.19L505.96,18.14L507.7,16.5L509.44,42.64L511.18,51.12L514.66,72.07L516.4,96.76L518.14,109.44L519.87,135.37L523.35,163.14L525.09,168.32L526.83,169.79L528.57,169.41L533.78,202.32L535.52,207.72L537.26,208.89L539,205.74" style="vector-effect: non-scaling-stroke; fill: none; stroke: rgb(31, 119, 180); stroke-opacity: 1; stroke-width: 2px; opacity: 1;"/><g class="points"/></g><g class="trace scatter tracedad5ab" style="stroke-miterlimit: 2; opacity: 1;"><path class="js-line" d="M0,313.5L539,313.5" style="vector-effect: non-scaling-stroke; fill: none; stroke: rgb(255, 127, 14); stroke-opacity: 1; stroke-width: 2px; opacity: 1;"/><g class="points"/></g></g></g><g class="overplot"/><path class="xlines crisp" transform="translate(60,60)" d="M-1,330.5h541" style="fill: none; stroke-width: 1px; stroke: rgb(0, 0, 0); stroke-opacity: 0;"/><path class="ylines crisp" transform="translate(60,60)" d="M-0.5,-1v331" stroke-width="1px" style="fill: none; stroke: rgb(0, 0, 0); stroke-opacity: 0;"/><g class="overlines"/><g class="xaxislayer" transform="translate(60,60)"><g class="xtick" data-bb="7172"><text text-anchor="middle" x="0" y="344" transform="translate(85.2,0)" style="font-family: 'Open Sans', verdana, arial, sans-serif; font-size: 12px; fill: rgb(68, 68, 68); fill-opacity: 1; visibility: visible; white-space: pre;" data-bb="7165">50</text></g><g class="xtick" data-bb="7173"><text text-anchor="middle" x="0" y="344" transform="translate(172.13,0)" style="font-family: 'Open Sans', verdana, arial, sans-serif; font-size: 12px; fill: rgb(68, 68, 68); fill-opacity: 1; visibility: visible; white-space: pre;" data-bb="7166">100</text></g><g class="xtick" data-bb="7174"><text text-anchor="middle" x="0" y="344" transform="translate(259.07,0)" style="font-family: 'Open Sans', verdana, arial, sans-serif; font-size: 12px; fill: rgb(68, 68, 68); fill-opacity: 1; visibility: visible; white-space: pre;" data-bb="7167">150</text></g><g class="xtick" data-bb="7175"><text text-anchor="middle" x="0" y="344" transform="translate(346,0)" style="font-family: 'Open Sans', verdana, arial, sans-serif; font-size: 12px; fill: rgb(68, 68, 68); fill-opacity: 1; visibility: visible; white-space: pre;" data-bb="7168">200</text></g><g class="xtick" data-bb="7176"><text text-anchor="middle" x="0" y="344" transform="translate(432.94,0)" style="font-family: 'Open Sans', verdana, arial, sans-serif; font-size: 12px; fill: rgb(68, 68, 68); fill-opacity: 1; visibility: visible; white-space: pre;" data-bb="7169">250</text></g><g class="xtick" data-bb="7177"><text text-anchor="middle" x="0" y="344" transform="translate(519.87,0)" style="font-family: 'Open Sans', verdana, arial, sans-serif; font-size: 12px; fill: rgb(68, 68, 68); fill-opacity: 1; visibility: visible; white-space: pre;" data-bb="7170">300</text></g></g><g class="yaxislayer" transform="translate(60,60)"><g class="ytick" data-bb="7179"><text text-anchor="end" x="-2" y="6" transform="translate(0,313.5)" style="font-family: 'Open Sans', verdana, arial, sans-serif; font-size: 12px; fill: rgb(68, 68, 68); fill-opacity: 1; visibility: visible; white-space: pre;">0</text></g><g class="ytick" data-bb="7180"><text text-anchor="end" x="-2" y="6" transform="translate(0,247.21)" style="font-family: 'Open Sans', verdana, arial, sans-serif; font-size: 12px; fill: rgb(68, 68, 68); fill-opacity: 1; visibility: visible; white-space: pre;">500</text></g><g class="ytick" data-bb="7181"><text text-anchor="end" x="-2" y="6" transform="translate(0,180.92)" style="font-family: 'Open Sans', verdana, arial, sans-serif; font-size: 12px; fill: rgb(68, 68, 68); fill-opacity: 1; visibility: visible; white-space: pre;">1000</text></g><g class="ytick" data-bb="7182"><text text-anchor="end" x="-2" y="6" transform="translate(0,114.62)" style="font-family: 'Open Sans', verdana, arial, sans-serif; font-size: 12px; fill: rgb(68, 68, 68); fill-opacity: 1; visibility: visible; white-space: pre;">1500</text></g><g class="ytick" data-bb="7183"><text text-anchor="end" x="-2" y="6" transform="translate(0,48.33)" style="font-family: 'Open Sans', verdana, arial, sans-serif; font-size: 12px; fill: rgb(68, 68, 68); fill-opacity: 1; visibility: visible; white-space: pre;">2000</text></g></g><g class="overaxes"/></g></g><g class="ternarylayer"/><g class="geolayer"/><g class="layer-above"><g class="imagelayer"/><g class="shapelayer"/></g><g class="pielayer"/><g class="glimages"/><defs id="topdefs-5f47a9"><clipPath id="legend5f47a9"><rect width="78" height="48" x="0" y="0"/></clipPath></defs><g class="infolayer"><g class="g-gtitle"><text class="gtitle" x="350" y="30" text-anchor="middle" style="font-family: 'Open Sans', verdana, arial, sans-serif; font-size: 17px; fill: rgb(68, 68, 68); opacity: 1; font-weight: normal; white-space: pre; visibility: visible;">avenue: video_15</text></g><g class="g-xtitle" data-bb="7171"><text class="xtitle" x="329.5" y="442" text-anchor="middle" style="font-family: 'Open Sans', verdana, arial, sans-serif; font-size: 14px; fill: rgb(68, 68, 68); opacity: 1; font-weight: normal; white-space: pre; visibility: visible;">sample index</text></g><g class="g-ytitle" data-bb="7178" transform="translate(-1,0)"><text class="ytitle" transform="rotate(-90,22,225) translate(0, 0)" x="22" y="225" text-anchor="middle" style="font-family: 'Open Sans', verdana, arial, sans-serif; font-size: 14px; fill: rgb(68, 68, 68); opacity: 1; font-weight: normal; white-space: pre; visibility: visible;">reconstruction cost</text></g><g class="legend" pointer-events="all" transform="translate(609.78, 60)"><rect class="bg" shape-rendering="crispEdges" style="stroke: rgb(68, 68, 68); stroke-opacity: 1; fill: rgb(255, 255, 255); fill-opacity: 1; stroke-width: 0px;" width="78" height="48" x="0" y="0"/><g class="scrollbox" transform="translate(0, 0)" clip-path="url(#legend5f47a9)"><g class="groups"><g class="traces" transform="translate(0, 14.5)" style="opacity: 1;"><g class="layers" style="opacity: 1;"><g class="legendfill"/><g class="legendlines"><path class="js-line" d="M5,0h30" style="fill: none; stroke: rgb(31, 119, 180); stroke-opacity: 1; stroke-width: 2px;"/></g><g class="legendsymbols"><g class="legendpoints"/></g></g><text class="legendtext user-select-none" x="40" y="4.680000000000001" style="text-anchor: start; font-family: 'Open Sans', verdana, arial, sans-serif; font-size: 12px; fill: rgb(68, 68, 68); fill-opacity: 1; white-space: pre; visibility: visible;" data-bb="7184">recon</text><rect class="legendtoggle" pointer-events="all" style="cursor: pointer; fill: rgb(0, 0, 0); fill-opacity: 0;" x="0" y="-9.5" width="118" height="19"/></g><g class="traces" transform="translate(0, 33.5)" style="opacity: 1;"><g class="layers" style="opacity: 1;"><g class="legendfill"/><g class="legendlines"><path class="js-line" d="M5,0h30" style="fill: none; stroke: rgb(255, 127, 14); stroke-opacity: 1; stroke-width: 2px;"/></g><g class="legendsymbols"><g class="legendpoints"/></g></g><text class="legendtext user-select-none" x="40" y="4.680000000000001" style="text-anchor: start; font-family: 'Open Sans', verdana, arial, sans-serif; font-size: 12px; fill: rgb(68, 68, 68); fill-opacity: 1; white-space: pre; visibility: visible;" data-bb="7185">zero</text><rect class="legendtoggle" pointer-events="all" x="0" y="-9.5" width="118" height="19" style="cursor: pointer; fill: rgb(0, 0, 0); fill-opacity: 0;"/></g></g></g><rect class="scrollbar" rx="20" ry="2" width="0" height="0" style="fill: rgb(128, 139, 164); fill-opacity: 1;"/></g></g></svg>