<svg class="main-svg" xmlns="http://www.w3.org/2000/svg" xmlns:xlink="http://www.w3.org/1999/xlink" width="700" height="450"><rect x="0" y="0" width="700" height="450" style="fill: rgb(255, 255, 255); fill-opacity: 1;"/><defs id="defs-382cf0"><g class="clips"><clipPath class="axesclip" id="clip382cf0x"><rect x="60" y="0" width="539" height="450"/></clipPath><clipPath class="axesclip" id="clip382cf0y"><rect x="0" y="60" width="700" height="330"/></clipPath><clipPath class="axesclip" id="clip382cf0xy"><rect x="60" y="60" width="539" height="330"/></clipPath><clipPath class="plotclip" id="clip382cf0xyplot"><rect width="539" height="330"/></clipPath></g></defs><g class="bglayer"><rect class="bg" x="60" y="60" width="539" height="330" style="fill: rgb(255, 255, 255); fill-opacity: 1; stroke-width: 0;"/></g><g class="layer-below"><g class="imagelayer"/><g class="shapelayer"/></g><g class="cartesianlayer"><g class="subplot xy"><g class="layer-subplot"><g class="shapelayer"/><g class="imagelayer"/></g><g class="gridlayer" transform="translate(60,60)"><path class="xgrid crisp" d="M0,0v330" transform="translate(78.18,0)" style="stroke: rgb(238, 238, 238); stroke-opacity: 1; stroke-width: 1px;"/><path class="xgrid crisp" d="M0,0v330" transform="translate(156.75,0)" style="stroke: rgb(238, 238, 238); stroke-opacity: 1; stroke-width: 1px;"/><path class="xgrid crisp" d="M0,0v330" transform="translate(235.32,0)" style="stroke: rgb(238, 238, 238); stroke-opacity: 1; stroke-width: 1px;"/><path class="xgrid crisp" d="M0,0v330" transform="translate(313.89,0)" style="stroke: rgb(238, 238, 238); stroke-opacity: 1; stroke-width: 1px;"/><path class="xgrid crisp" d="M0,0v330" transform="translate(392.46,0)" style="stroke: rgb(238, 238, 238); stroke-opacity: 1; stroke-width: 1px;"/><path class="xgrid crisp" d="M0,0v330" transform="translate(471.04,0)" style="stroke: rgb(238, 238, 238); stroke-opacity: 1; stroke-width: 1px;"/><path class="ygrid crisp" d="M0,0h539" transform="translate(0,254.89)" style="stroke: rgb(238, 238, 238); stroke-opacity: 1; stroke-width: 1px;"/><path class="ygrid crisp" d="M0,0h539" transform="translate(0,196.27)" style="stroke: rgb(238, 238, 238); stroke-opacity: 1; stroke-width: 1px;"/><path class="ygrid crisp" d="M0,0h539" transform="translate(0,137.66)" style="stroke: rgb(238, 238, 238); stroke-opacity: 1; stroke-width: 1px;"/><path class="ygrid crisp" d="M0,0h539" transform="translate(0,79.04)" style="stroke: rgb(238, 238, 238); stroke-opacity: 1; stroke-width: 1px;"/><path class="ygrid crisp" d="M0,0h539" transform="translate(0,20.43)" style="stroke: rgb(238, 238, 238); stroke-opacity: 1; stroke-width: 1px;"/></g><g class="overgrid"/><g class="zerolinelayer" transform="translate(60,60)"><path class="yzl zl crisp" d="M0,0h539" transform="translate(0,313.5)" style="stroke: rgb(68, 68, 68); stroke-opacity: 1; stroke-width: 1px;"/></g><g class="overzero"/><g class="plot" transform="translate(60, 60)" clip-path="url(#clip382cf0xyplot)"><g class="imagelayer"/><g class="maplayer"/><g class="barlayer"/><g class="carpetlayer"/><g class="boxlayer"/><g class="scatterlayer"><g class="trace scatter trace93de28" style="stroke-miterlimit: 2; opacity: 1;"><path class="js-line" d="M0,205.19L0.39,206.58L0.79,205.77L1.18,215.33L1.57,215.23L1.96,221.15L2.75,227.05L3.14,225.18L3.54,227.47L4.32,221.12L4.71,221.53L5.11,223.76L5.5,223.83L5.89,233.17L6.29,237.85L6.68,233.67L7.07,235.7L7.46,230.18L7.86,232.26L8.25,232.85L9.43,225.62L9.82,230.18L10.61,218.77L11,231.79L11.39,231.69L11.79,230.6L12.96,215.93L13.36,226.88L13.75,227.16L14.14,215.75L14.54,214.62L14.93,204.31L16.11,219.84L16.5,216.16L16.89,207.14L17.68,210.36L18.07,198.99L18.46,192.5L18.86,201.34L19.25,208.1L19.64,203.19L20.04,207.47L21.21,185.37L21.61,183.17L23.18,144.79L23.57,167.48L23.96,177.8L24.36,172.39L24.75,172.18L25.93,167.6L26.32,178.81L27.11,194.54L27.5,184.72L28.29,202.74L28.68,196.79L29.07,194.94L30.25,184.6L30.64,190.26L31.43,184.21L31.82,202.38L32.21,196.6L32.61,208.14L33,217.3L33.39,216.92L33.79,202.85L34.57,217.54L34.96,215.22L35.36,211.88L36.14,206.85L36.54,208.6L36.93,211.48L37.32,210.69L37.71,195.6L38.89,215.09L39.29,218.53L39.68,215.83L40.07,223.89L41.25,234.05L41.64,231.64L42.04,238.77L42.43,232.56L42.82,236.06L43.61,222.21L44,229.41L44.39,234.99L44.79,229.73L45.18,229.18L45.57,231.09L46.36,224.36L46.75,229.85L47.14,223.72L47.54,226.99L47.93,230.36L48.32,235.65L48.71,227.42L49.11,231.34L49.5,227.1L51.07,199.13L51.46,200.35L52.64,186.03L53.04,183L53.82,188.09L54.21,177.91L54.61,181.78L55,176.93L56.57,200.48L56.96,199.08L57.36,192.9L59.32,213.48L59.71,218.56L60.11,216.41L60.5,226.38L60.89,230.93L61.29,228.1L61.68,224.84L62.07,226.18L62.46,214.15L62.86,225.33L63.25,216.54L63.64,209.11L66.79,171L67.18,176.47L67.57,171.59L67.96,176.35L68.75,171.82L69.14,173.19L69.54,174.51L69.93,161.59L71.11,171.46L71.5,165.79L72.29,162.36L72.68,165.13L73.86,190.27L74.25,189.92L75.43,195.27L75.82,187.53L77.39,206.51L77.79,199.58L78.18,200.57L78.57,198.01L78.96,198.36L79.36,200.79L80.14,202.69L80.54,208.07L81.32,220.7L81.71,217.41L82.11,218.79L84.46,169.27L84.86,174.95L86.04,188.8L86.43,178.69L86.82,181.74L87.21,176.09L88.39,182.34L88.79,181.85L89.96,163.21L90.36,162.29L90.75,165.9L91.14,159.32L91.93,178.27L92.32,171.07L92.71,178.37L93.11,177.83L93.5,169.59L95.46,199.54L95.86,168.62L96.25,173.99L96.64,171.65L97.04,161.76L97.43,162.43L97.82,155.39L98.61,153.22L99,159.52L100.18,179.05L100.57,174.13L100.96,169.78L102.14,150.84L102.54,112.08L103.71,51.87L104.11,54.11L107.25,179.27L107.64,182.84L109.21,198.33L109.61,193.87L111.18,227.46L111.57,227.68L113.14,247.53L113.54,241.71L113.93,226.84L114.32,236.07L114.71,236.9L115.11,243.05L115.5,231.45L115.89,232.27L116.29,236.84L116.68,236.4L117.07,224.85L118.25,238.34L118.64,238.91L119.04,238.48L119.43,224.46L119.82,215.89L120.21,222.55L120.61,222.19L121,220.42L121.39,227.29L122.57,233.14L122.96,239.64L124.54,230.76L124.93,223.06L125.71,202.42L126.11,209.85L126.5,212.67L127.29,197.53L127.68,204.26L128.46,192.6L128.86,192.81L129.25,193.57L129.64,196.85L130.04,195.92L130.43,195.29L132,203.31L132.39,210.37L132.79,208.99L133.18,213.6L133.57,212.02L133.96,207.22L134.36,201.59L134.75,203.25L135.14,211.82L135.54,212.29L135.93,219.88L137.89,235.34L138.29,234.12L138.68,233.6L139.46,235.84L139.86,238.42L141.04,226.2L141.43,229.82L141.82,220.51L142.21,224.47L142.61,228.89L143,227.86L143.39,231.75L143.79,229.66L144.18,230.66L144.57,235.06L145.75,222.67L146.14,233.22L146.54,232.54L146.93,235.88L147.71,233.2L148.11,224.95L149.29,239.58L149.68,239.95L150.07,239.92L150.46,245.34L150.86,247.59L151.25,246.93L151.64,246.67L152.43,250.73L152.82,246.6L153.61,251.11L154,245.66L155.18,253.55L155.57,252.43L155.96,247.43L157.14,239.78L157.54,241.82L158.32,233.33L158.71,236.99L159.11,240.74L159.5,235.18L160.29,232.35L160.68,245.8L161.07,248.4L161.46,239.08L161.86,230.62L162.25,240.94L162.64,239.84L163.04,231.38L163.43,230.67L163.82,232.81L165.79,249.6L166.18,252.41L166.57,250.28L166.96,259.95L167.36,263.66L167.75,254.77L168.93,251.32L169.32,255.58L170.5,250.81L170.89,251.89L171.29,246.61L172.46,230.71L172.86,233.31L173.25,234.42L173.64,230.47L174.04,229.96L174.43,230.34L174.82,231.4L176,230.79L176.39,233.07L176.79,233.63L177.18,242.36L177.57,239.88L177.96,254.51L179.14,244.62L179.54,245.13L179.93,244.48L181.11,236.16L181.5,239.14L181.89,242.59L182.29,233.64L182.68,233.87L183.07,233.09L183.86,235.39L184.25,234.34L185.43,239.31L185.82,241.16L186.21,238.37L186.61,242.03L187.79,233.83L188.18,238.16L188.57,239.99L188.96,214.79L190.54,170.45L190.93,170.52L191.32,178.99L191.71,177.16L192.11,179.01L192.5,163.36L192.89,167.49L193.29,167.28L194.86,133.07L195.25,129.11L196.04,140.38L196.43,139.6L196.82,144.77L198.39,186.58L198.79,185.38L199.18,175.4L199.57,186.91L199.96,175L201.14,155.81L201.54,165.87L202.71,169.72L203.11,175.82L203.5,174.39L203.89,182.77L204.68,195.22L205.07,193.2L205.46,197.28L205.86,182.48L206.25,186.44L206.64,176.39L207.04,167.77L207.43,180.69L207.82,185.89L208.21,171.84L209.79,201.13L210.18,198.3L210.57,198.6L210.96,198.43L211.36,193.96L211.75,193.13L212.14,196.51L213.32,183.5L213.71,191.94L214.5,183.78L214.89,190.77L215.68,199.54L216.07,194.07L216.46,198.37L216.86,180.39L218.04,156.39L218.43,154.27L218.82,146.65L219.21,162.17L219.61,159.26L220,165.47L221.18,157.95L221.57,170.27L221.96,168.72L222.36,171.14L223.14,190.93L223.54,183.76L224.71,203.56L225.11,206.96L226.68,234.99L227.07,234.47L227.46,231.74L227.86,234.05L228.25,237.07L228.64,237.38L229.04,234.08L229.43,231.93L229.82,237.71L230.21,238.5L230.61,233.39L231,240.29L231.39,235.54L231.79,237.02L232.96,243.18L233.36,242.75L233.75,238.19L234.14,238.35L234.54,241.25L234.93,241.98L235.32,240.22L235.71,240.29L236.11,236.1L236.89,239.88L237.29,238.1L238.86,253.39L239.25,248.2L240.04,252.74L240.43,241.09L240.82,246.01L241.21,239.43L241.61,239.19L242,229.69L242.39,229.78L242.79,239.49L243.18,241.99L243.57,236.09L243.96,238.65L244.36,236.8L244.75,232.15L245.54,196.82L245.93,171.55L246.71,159.39L247.11,131.32L247.5,134.7L247.89,125.58L248.68,120.22L249.07,127.09L249.86,128.35L250.25,132.44L250.64,131.36L251.04,141.31L253,120.75L253.39,126.65L254.57,82.75L254.96,89.32L255.36,91.96L256.54,84.54L256.93,72.06L257.32,76.85L257.71,71.83L258.11,69.76L258.5,70.36L258.89,80.03L261.64,177.56L262.04,172.54L262.43,174.34L262.82,173.53L263.21,172.24L264,164.27L264.39,173.38L264.79,163.51L265.18,184.01L265.57,169.88L265.96,176.82L266.36,178.77L266.75,168.78L267.14,179.57L268.71,163.94L269.11,164.6L269.5,168.95L269.89,164.96L270.29,162.37L272.25,134.49L272.64,150.58L273.04,151.53L273.43,160.83L273.82,153.33L274.21,172.99L275,187.86L275.39,182.37L276.57,197.57L276.96,194.04L278.14,179.68L278.54,175.85L278.93,186.9L279.32,186.11L279.71,180.54L280.89,187.47L281.29,180.08L282.86,167.23L283.25,177.39L283.64,187.35L284.04,178.51L284.43,177.71L286,204.34L286.39,202.3L286.79,204.84L287.18,202.19L287.57,183.37L287.96,191.75L288.36,188.81L289.54,174.08L289.93,174.9L290.71,188.33L291.11,185.23L292.29,204.43L292.68,199.87L293.07,204.21L293.46,201.81L293.86,202.44L294.25,202.56L294.64,191.65L295.04,211.62L295.43,206.29L295.82,204.28L296.21,202.84L296.61,220.68L297,225.34L297.39,220.67L297.79,223.04L298.18,221.94L298.57,231.36L299.36,212.65L299.75,223L300.14,222.24L300.54,224.74L302.11,206.12L302.5,211.76L303.29,208.82L303.68,197.89L305.25,167.61L305.64,158.12L306.82,145.79L307.21,154.49L307.61,154.98L308,157.92L309.18,184.14L309.57,179.05L309.96,179.1L310.36,171.56L311.54,206.02L311.93,207.09L312.71,192.03L313.11,200.52L315.07,228.6L315.46,219.77L315.86,233.52L316.25,223.74L316.64,230.44L317.04,228.8L317.43,231.24L318.61,226.87L319,212.38L319.39,213.82L319.79,207.12L320.96,182.92L321.36,175.51L322.54,185.15L322.93,181.77L325.29,225.78L325.68,222.44L328.43,151.05L328.82,149.89L329.21,153.11L329.61,150.34L330,147.79L331.57,163.94L331.96,165.35L333.54,189.35L333.93,182.48L334.32,181.09L334.71,193.61L335.11,209.23L335.5,200.49L335.89,197.75L337.07,156.56L337.46,161.27L338.25,170.98L338.64,170.5L339.04,157.31L340.21,150.93L340.61,147.67L341.79,169.07L342.18,176.32L342.57,171.22L342.96,149.5L343.36,127.3L343.75,140.55L344.14,132.71L344.93,158.29L345.32,109.45L346.11,32.96L346.5,34.71L346.89,33.12L347.68,93.93L348.07,135.69L350.43,223.5L350.82,227.82L351.61,234.09L352,234.57L352.39,229.21L352.79,232.13L353.18,235.04L353.96,216.41L354.36,218.89L354.75,216.95L355.14,218.27L355.54,222.72L355.93,231.04L356.32,226.44L356.71,218.68L358.68,187.36L359.07,187.02L359.86,191.33L360.25,203.12L360.64,199.71L361.04,203.8L361.82,202.68L362.21,208.59L363.39,225.4L363.79,220.47L364.96,230.68L365.36,226.25L365.75,218.21L366.14,219.99L366.54,218.17L367.71,233.45L368.11,231.26L368.5,233.67L368.89,232.85L369.29,231.88L370.07,244.71L370.46,243.22L370.86,244.34L372.04,250.79L372.43,242.56L373.61,228.39L374,219.17L374.39,237.04L374.79,234.07L375.18,232.48L375.57,226.49L375.96,230.21L376.36,228.41L377.93,248.96L378.32,255.93L378.71,259.43L379.11,257.86L379.5,246.99L379.89,249.35L380.29,235.6L380.68,230.78L381.07,230.94L381.46,215.91L382.25,221.14L382.64,214.15L383.82,244.92L384.21,242.61L384.61,233.67L385,226.14L385.39,230.53L385.79,230.31L386.57,227.14L386.96,229.57L387.75,231.7L388.14,240.48L388.93,212.29L389.32,173.67L389.71,174.56L390.11,166.35L392.46,124.49L392.86,130.14L394.04,169.05L394.43,173.2L395.61,152.74L396,159.82L397.18,185.14L397.57,181.87L398.36,154.68L398.75,161.64L399.14,173.84L400.32,195.33L400.71,189.63L401.11,168.48L401.5,172.38L401.89,184.86L402.29,192.15L402.68,180.6L403.07,170.01L403.46,129.98L403.86,130.3L404.25,133.32L404.64,130.38L405.04,137.42L406.21,166.22L406.61,183.43L408.18,233.29L408.57,231.95L408.96,229.54L410.54,240.93L410.93,240.94L411.32,241.14L411.71,233.39L412.11,231.79L412.5,235.62L412.89,234.49L413.29,236.59L414.07,246.58L414.46,238.33L414.86,241.03L415.25,225.44L415.64,236.67L416.04,234.44L416.43,227.93L417.61,163.14L418,131.51L418.79,96.6L419.18,98.41L419.57,93.97L419.96,92.2L420.36,93.79L420.75,94.96L421.93,64.93L422.32,59.25L423.11,44.73L423.5,48.3L423.89,64.01L424.29,62.7L424.68,89.81L426.25,161.01L426.64,156.46L427.43,163.67L427.82,162.55L428.21,161.41L428.61,151.52L429,156.06L429.39,149.98L430.18,138.71L430.57,141.27L430.96,142.41L431.36,149.24L432.14,165.79L432.54,173.32L432.93,175.16L433.32,165.98L433.71,164.88L434.11,161.19L434.5,164.13L434.89,148.65L435.68,152.82L436.07,151.57L436.46,166.75L436.86,166.09L437.25,173.15L437.64,189.74L438.04,181.47L438.43,179.37L439.21,157.35L439.61,165.92L440.79,196.64L441.18,193.55L441.57,193.79L441.96,204.87L442.75,208.19L443.14,205.38L443.93,227.67L444.32,217.24L444.71,207.62L445.11,215.78L445.5,213.54L445.89,214.03L446.29,206.05L446.68,204.28L447.07,191.25L447.46,197.21L447.86,174.91L449.43,132.21L449.82,144.8L450.61,155.63L451,164.72L452.96,198.52L453.36,193.79L453.75,196.46L454.14,204.36L455.32,225.85L455.71,223.16L456.11,221.12L456.5,220.12L456.89,227.19L457.29,228.47L457.68,212.92L459.64,168.45L460.04,179.01L460.43,177.69L460.82,198.18L461.21,197.33L461.61,201.11L462,200.68L462.39,204.62L463.96,139.99L464.36,133.4L464.75,128.94L465.14,136.54L466.32,141.89L466.71,160.16L468.68,189.91L469.07,166.47L469.46,163.21L469.86,146.6L470.25,151.06L470.64,142.26L471.04,119.02L471.43,128.47L471.82,141.75L472.61,141.96L473,151.08L473.39,151.14L473.79,131.27L474.18,131.59L474.57,119.07L475.75,36.48L476.14,36.69L476.54,47.62L476.93,63.76L477.32,138.24L478.89,218.29L479.29,225.9L480.07,230L480.46,224.83L481.64,214.14L482.04,219.5L482.43,205.67L482.82,212.79L483.21,212.76L483.61,188.85L484,190.62L484.39,188.5L486.36,209.64L486.75,204.3L487.54,220.91L487.93,216.45L488.32,218.78L488.71,215.22L489.5,212.69L489.89,224.01L491.07,234.99L491.46,233L492.25,250.86L492.64,250.24L493.04,242.14L493.82,227.88L494.21,231.07L494.61,223.58L495,225.2L495.39,223.11L497.36,254.63L497.75,246.8L499.32,214.43L499.71,222.05L501.29,234.58L501.68,234.25L502.46,220.69L502.86,228.36L503.25,234.33L503.64,227.59L506.79,115.84L507.18,129.35L507.96,155.15L508.36,152.1L508.75,155.97L509.54,165.39L509.93,163.05L510.32,155.55L510.71,149.69L511.11,159.9L511.89,177.92L512.29,173.47L512.68,169.47L513.07,170.67L513.46,149.31L513.86,144.88L514.25,122.69L514.64,112.19L515.04,116.83L515.43,120.7L517.79,228.27L518.18,234.92L519.36,224.36L519.75,233.51L520.14,230.36L520.54,237.92L520.93,242.75L521.32,238.58L521.71,226.18L522.11,234.82L522.5,222.38L524.46,65.38L524.86,66.87L525.25,68.69L525.64,63.73L526.04,46.46L526.82,16.5L527.21,33.19L529.57,156.68L529.96,149.53L531.14,127.58L531.54,128.26L531.93,124.03L532.32,131.28L533.5,146.62L533.89,142.19L534.29,152.23L534.68,152L535.07,137.39L535.46,130.38L535.86,141.07L536.64,170.7L537.04,160.89L537.43,172.19L537.82,159.73L538.21,170.3L538.61,179.09L539,179.98" style="vector-effect: non-scaling-stroke; fill: none; stroke: rgb(31, 119, 180); stroke-opacity: 1; stroke-width: 2px; opacity: 1;"/><g class="points"/></g><g class="trace scatter traceb1ef6f" style="stroke-miterlimit: 2; opacity: 1;"><path class="js-line" d="M0,313.5L539,313.5" style="vector-effect: non-scaling-stroke; fill: none; stroke: rgb(255, 127, 14); stroke-opacity: 1; stroke-width: 2px; opacity: 1;"/><g class="points"/></g></g></g><g class="overplot"/><path class="xlines crisp" transform="translate(60,60)" d="M-1,330.5h541" style="fill: none; stroke-width: 1px; stroke: rgb(0, 0, 0); stroke-opacity: 0;"/><path class="ylines crisp" transform="translate(60,60)" d="M-0.5,-1v331" stroke-width="1px" style="fill: none; stroke: rgb(0, 0, 0); stroke-opacity: 0;"/><g class="overlines"/><g class="xaxislayer" transform="translate(60,60)"><g class="xtick" data-bb="6787"><text text-anchor="middle" x="0" y="344" transform="translate(78.18,0)" style="font-family: 'Open Sans', verdana, arial, sans-serif; font-size: 12px; fill: rgb(68, 68, 68); fill-opacity: 1; visibility: visible; white-space: pre;" data-bb="6780">200</text></g><g class="xtick" data-bb="6788"><text text-anchor="middle" x="0" y="344" transform="translate(156.75,0)" style="font-family: 'Open Sans', verdana, arial, sans-serif; font-size: 12px; fill: rgb(68, 68, 68); fill-opacity: 1; visibility: visible; white-space: pre;" data-bb="6781">400</text></g><g class="xtick" data-bb="6789"><text text-anchor="middle" x="0" y="344" transform="translate(235.32,0)" style="font-family: 'Open Sans', verdana, arial, sans-serif; font-size: 12px; fill: rgb(68, 68, 68); fill-opacity: 1; visibility: visible; white-space: pre;" data-bb="6782">600</text></g><g class="xtick" data-bb="6790"><text text-anchor="middle" x="0" y="344" transform="translate(313.89,0)" style="font-family: 'Open Sans', verdana, arial, sans-serif; font-size: 12px; fill: rgb(68, 68, 68); fill-opacity: 1; visibility: visible; white-space: pre;" data-bb="6783">800</text></g><g class="xtick" data-bb="6791"><text text-anchor="middle" x="0" y="344" transform="translate(392.46,0)" style="font-family: 'Open Sans', verdana, arial, sans-serif; font-size: 12px; fill: rgb(68, 68, 68); fill-opacity: 1; visibility: visible; white-space: pre;" data-bb="6784">1000</text></g><g class="xtick" data-bb="6792"><text text-anchor="middle" x="0" y="344" transform="translate(471.04,0)" style="font-family: 'Open Sans', verdana, arial, sans-serif; font-size: 12px; fill: rgb(68, 68, 68); fill-opacity: 1; visibility: visible; white-space: pre;" data-bb="6785">1200</text></g></g><g class="yaxislayer" transform="translate(60,60)"><g class="ytick" data-bb="6794"><text text-anchor="end" x="-2" y="6" transform="translate(0,313.5)" style="font-family: 'Open Sans', verdana, arial, sans-serif; font-size: 12px; fill: rgb(68, 68, 68); fill-opacity: 1; visibility: visible; white-space: pre;">0</text></g><g class="ytick" data-bb="6795"><text text-anchor="end" x="-2" y="6" transform="translate(0,254.89)" style="font-family: 'Open Sans', verdana, arial, sans-serif; font-size: 12px; fill: rgb(68, 68, 68); fill-opacity: 1; visibility: visible; white-space: pre;">200</text></g><g class="ytick" data-bb="6796"><text text-anchor="end" x="-2" y="6" transform="translate(0,196.27)" style="font-family: 'Open Sans', verdana, arial, sans-serif; font-size: 12px; fill: rgb(68, 68, 68); fill-opacity: 1; visibility: visible; white-space: pre;">400</text></g><g class="ytick" data-bb="6797"><text text-anchor="end" x="-2" y="6" transform="translate(0,137.66)" style="font-family: 'Open Sans', verdana, arial, sans-serif; font-size: 12px; fill: rgb(68, 68, 68); fill-opacity: 1; visibility: visible; white-space: pre;">600</text></g><g class="ytick" data-bb="6798"><text text-anchor="end" x="-2" y="6" transform="translate(0,79.04)" style="font-family: 'Open Sans', verdana, arial, sans-serif; font-size: 12px; fill: rgb(68, 68, 68); fill-opacity: 1; visibility: visible; white-space: pre;">800</text></g><g class="ytick" data-bb="6799"><text text-anchor="end" x="-2" y="6" transform="translate(0,20.43)" style="font-family: 'Open Sans', verdana, arial, sans-serif; font-size: 12px; fill: rgb(68, 68, 68); fill-opacity: 1; visibility: visible; white-space: pre;">1000</text></g></g><g class="overaxes"/></g></g><g class="ternarylayer"/><g class="geolayer"/><g class="layer-above"><g class="imagelayer"/><g class="shapelayer"/></g><g class="pielayer"/><g class="glimages"/><defs id="topdefs-382cf0"><clipPath id="legend382cf0"><rect width="78" height="48" x="0" y="0"/></clipPath></defs><g class="infolayer"><g class="g-gtitle"><text class="gtitle" x="350" y="30" text-anchor="middle" style="font-family: 'Open Sans', verdana, arial, sans-serif; font-size: 17px; fill: rgb(68, 68, 68); opacity: 1; font-weight: normal; white-space: pre; visibility: visible;">avenue: video_06</text></g><g class="g-xtitle" data-bb="6786"><text class="xtitle" x="329.5" y="442" text-anchor="middle" style="font-family: 'Open Sans', verdana, arial, sans-serif; font-size: 14px; fill: rgb(68, 68, 68); opacity: 1; font-weight: normal; white-space: pre; visibility: visible;">sample index</text></g><g class="g-ytitle" data-bb="6793"><text class="ytitle" transform="rotate(-90,22,225) translate(0, 0)" x="22" y="225" text-anchor="middle" style="font-family: 'Open Sans', verdana, arial, sans-serif; font-size: 14px; fill: rgb(68, 68, 68); opacity: 1; font-weight: normal; white-space: pre; visibility: visible;">reconstruction cost</text></g><g class="legend" pointer-events="all" transform="translate(609.78, 60)"><rect class="bg" shape-rendering="crispEdges" style="stroke: rgb(68, 68, 68); stroke-opacity: 1; fill: rgb(255, 255, 255); fill-opacity: 1; stroke-width: 0px;" width="78" height="48" x="0" y="0"/><g class="scrollbox" transform="translate(0, 0)" clip-path="url(#legend382cf0)"><g class="groups"><g class="traces" transform="translate(0, 14.5)" style="opacity: 1;"><g class="layers" style="opacity: 1;"><g class="legendfill"/><g class="legendlines"><path class="js-line" d="M5,0h30" style="fill: none; stroke: rgb(31, 119, 180); stroke-opacity: 1; stroke-width: 2px;"/></g><g class="legendsymbols"><g class="legendpoints"/></g></g><text class="legendtext user-select-none" x="40" y="4.680000000000001" style="text-anchor: start; font-family: 'Open Sans', verdana, arial, sans-serif; font-size: 12px; fill: rgb(68, 68, 68); fill-opacity: 1; white-space: pre; visibility: visible;" data-bb="6800">recon</text><rect class="legendtoggle" pointer-events="all" style="cursor: pointer; fill: rgb(0, 0, 0); fill-opacity: 0;" x="0" y="-9.5" width="118" height="19"/></g><g class="traces" transform="translate(0, 33.5)" style="opacity: 1;"><g class="layers" style="opacity: 1;"><g class="legendfill"/><g class="legendlines"><path class="js-line" d="M5,0h30" style="fill: none; stroke: rgb(255, 127, 14); stroke-opacity: 1; stroke-width: 2px;"/></g><g class="legendsymbols"><g class="legendpoints"/></g></g><text class="legendtext user-select-none" x="40" y="4.680000000000001" style="text-anchor: start; font-family: 'Open Sans', verdana, arial, sans-serif; font-size: 12px; fill: rgb(68, 68, 68); fill-opacity: 1; white-space: pre; visibility: visible;" data-bb="6801">zero</text><rect class="legendtoggle" pointer-events="all" x="0" y="-9.5" width="118" height="19" style="cursor: pointer; fill: rgb(0, 0, 0); fill-opacity: 0;"/></g></g></g><rect class="scrollbar" rx="20" ry="2" width="0" height="0" style="fill: rgb(128, 139, 164); fill-opacity: 1;"/></g></g></svg>