<svg class="main-svg" xmlns="http://www.w3.org/2000/svg" xmlns:xlink="http://www.w3.org/1999/xlink" width="700" height="450"><rect x="0" y="0" width="700" height="450" style="fill: rgb(255, 255, 255); fill-opacity: 1;"/><defs id="defs-657907"><g class="clips"><clipPath class="axesclip" id="clip657907x"><rect x="60" y="0" width="539" height="450"/></clipPath><clipPath class="axesclip" id="clip657907y"><rect x="0" y="60" width="700" height="330"/></clipPath><clipPath class="axesclip" id="clip657907xy"><rect x="60" y="60" width="539" height="330"/></clipPath><clipPath class="plotclip" id="clip657907xyplot"><rect width="539" height="330"/></clipPath></g></defs><g class="bglayer"><rect class="bg" x="60" y="60" width="539" height="330" style="fill: rgb(255, 255, 255); fill-opacity: 1; stroke-width: 0;"/></g><g class="layer-below"><g class="imagelayer"/><g class="shapelayer"/></g><g class="cartesianlayer"><g class="subplot xy"><g class="layer-subplot"><g class="shapelayer"/><g class="imagelayer"/></g><g class="gridlayer" transform="translate(60,60)"><path class="xgrid crisp" d="M0,0v330" transform="translate(78.18,0)" style="stroke: rgb(238, 238, 238); stroke-opacity: 1; stroke-width: 1px;"/><path class="xgrid crisp" d="M0,0v330" transform="translate(156.75,0)" style="stroke: rgb(238, 238, 238); stroke-opacity: 1; stroke-width: 1px;"/><path class="xgrid crisp" d="M0,0v330" transform="translate(235.32,0)" style="stroke: rgb(238, 238, 238); stroke-opacity: 1; stroke-width: 1px;"/><path class="xgrid crisp" d="M0,0v330" transform="translate(313.89,0)" style="stroke: rgb(238, 238, 238); stroke-opacity: 1; stroke-width: 1px;"/><path class="xgrid crisp" d="M0,0v330" transform="translate(392.46,0)" style="stroke: rgb(238, 238, 238); stroke-opacity: 1; stroke-width: 1px;"/><path class="xgrid crisp" d="M0,0v330" transform="translate(471.04,0)" style="stroke: rgb(238, 238, 238); stroke-opacity: 1; stroke-width: 1px;"/><path class="ygrid crisp" d="M0,0h539" transform="translate(0,231.66)" style="stroke: rgb(238, 238, 238); stroke-opacity: 1; stroke-width: 1px;"/><path class="ygrid crisp" d="M0,0h539" transform="translate(0,149.82)" style="stroke: rgb(238, 238, 238); stroke-opacity: 1; stroke-width: 1px;"/><path class="ygrid crisp" d="M0,0h539" transform="translate(0,67.98)" style="stroke: rgb(238, 238, 238); stroke-opacity: 1; stroke-width: 1px;"/></g><g class="overgrid"/><g class="zerolinelayer" transform="translate(60,60)"><path class="yzl zl crisp" d="M0,0h539" transform="translate(0,313.5)" style="stroke: rgb(68, 68, 68); stroke-opacity: 1; stroke-width: 1px;"/></g><g class="overzero"/><g class="plot" transform="translate(60, 60)" clip-path="url(#clip657907xyplot)"><g class="imagelayer"/><g class="maplayer"/><g class="barlayer"/><g class="carpetlayer"/><g class="boxlayer"/><g class="scatterlayer"><g class="trace scatter traced4b9c4" style="stroke-miterlimit: 2; opacity: 1;"><path class="js-line" d="M0,272.55L0.39,271.86L0.79,268.92L2.36,276.2L2.75,277.4L3.93,279.55L4.32,280.6L5.11,283.83L5.5,276.49L5.89,284.31L6.29,281.2L6.68,273.64L7.86,281.42L8.25,280.32L8.64,279.34L9.04,280.56L10.61,287L11,285.98L11.39,285.04L11.79,289.23L12.18,286.25L12.57,286.83L12.96,289.77L13.36,290.2L13.75,285.92L14.14,288.15L14.54,286.64L14.93,288.02L15.32,287.36L15.71,288.97L16.11,283.61L16.5,287.62L16.89,286.89L18.07,287.53L18.46,284.48L18.86,286.07L19.25,283.03L20.43,289.81L20.82,286.67L21.21,287.41L21.61,285.14L22.39,287.21L22.79,285.73L23.18,285.85L23.57,287.55L23.96,286.23L24.36,289.36L25.14,284.4L25.54,288.28L25.93,282.55L26.32,289.04L27.5,285.04L27.89,285.57L28.29,288.83L28.68,284.39L29.07,288.56L29.46,287.14L29.86,287.58L30.25,284.68L30.64,286.85L31.04,285.46L31.43,288.05L31.82,286.37L32.21,287.88L32.61,272.27L33,287.46L33.39,289.47L33.79,280.79L34.57,288.31L34.96,287.5L35.36,286.27L35.75,286.04L36.14,288.12L36.54,288.62L36.93,286.89L37.32,288.33L37.71,286.88L38.11,284.84L38.5,285.99L38.89,288L39.29,289.24L39.68,287.24L40.46,288.01L40.86,284.25L41.25,288L41.64,284.7L42.04,286.53L42.43,284.67L42.82,275.96L43.21,285.32L43.61,280.82L44,280.54L44.39,280.7L44.79,281.72L45.18,280.63L45.57,280.93L45.96,273.64L46.36,282.44L46.75,280.32L47.14,280.45L47.54,279.71L47.93,281.45L48.32,275.13L48.71,283.07L49.11,282.39L49.5,277.06L49.89,285.29L50.29,284.28L50.68,283.54L51.07,284.86L51.46,280.84L51.86,278.97L52.25,280.51L52.64,284.19L53.04,276.87L53.43,282.93L53.82,281.53L54.61,278.97L55,281.98L55.39,280.77L55.79,282.78L56.18,283.26L56.57,278.06L56.96,279.82L57.36,272.33L57.75,282.43L58.14,279.09L58.54,283.35L58.93,282.34L59.32,277.5L59.71,281.25L60.11,281.01L60.5,275.95L60.89,277.94L61.29,274.39L61.68,274.64L62.07,276.86L62.86,280.02L63.25,277.75L63.64,277.05L64.04,278.95L64.43,279.43L64.82,277.99L65.21,278.15L65.61,283.37L66,280.35L66.39,282.16L66.79,282.36L67.57,280.26L67.96,275.11L68.36,271.64L68.75,276.44L69.14,276.87L69.54,273.58L70.32,276.6L70.71,273.84L71.11,276.89L71.5,269.94L72.29,275.19L72.68,273.56L73.46,272.13L73.86,268.58L74.25,267.36L74.64,269.99L75.82,277.63L76.21,265.81L76.61,272.71L77,269.44L77.39,263.32L78.57,240.24L78.96,241.98L79.36,241.02L80.93,211.08L81.32,204.14L82.89,171.04L83.29,177.52L83.68,172.65L84.07,172.88L84.46,172.82L86.82,115.51L87.21,128.47L87.61,139.34L88,136.91L88.39,134.5L89.18,129.19L89.57,139.92L91.14,170.74L91.54,170.73L93.11,181.61L93.5,172.35L94.68,161.96L95.07,158.53L95.46,160.71L95.86,172.87L97.04,197.53L97.43,196.03L97.82,199.65L99.39,217.5L99.79,209.72L100.18,216.11L100.57,213.14L100.96,213.84L101.36,209.69L101.75,209.77L102.14,216.67L105.29,237.18L105.68,235.86L106.46,235.59L106.86,227.89L108.04,240.13L108.43,238.63L108.82,240L109.21,238.06L110.39,248.72L110.79,244.88L111.18,243.97L111.57,238.92L111.96,226.14L112.36,230.03L112.75,235.71L113.54,238.64L113.93,244.75L114.32,238.87L114.71,246.28L115.5,256.96L115.89,255.6L116.29,262.13L116.68,262.43L117.07,264.9L118.25,254.88L118.64,256.88L119.04,260.93L119.43,239.65L119.82,257.76L120.21,253.78L120.61,258.1L121,254.58L121.39,254.09L121.79,257.92L122.18,257.17L122.57,256.56L123.36,262.06L123.75,256.5L124.14,258.93L124.54,256.33L124.93,259.28L125.32,254.75L125.71,253.51L126.11,260.33L126.5,257.63L126.89,258.26L127.29,260.56L128.86,256.96L129.25,262.69L129.64,263.12L130.04,257.12L130.43,261.14L130.82,258.85L131.21,253.69L131.61,254.82L132,251.08L132.39,249.37L132.79,252.98L133.18,257.35L133.57,256.13L133.96,254.26L134.36,254.11L134.75,256.05L135.14,253.77L135.54,258.9L135.93,253.82L136.32,257.48L136.71,255.4L137.5,250.46L137.89,254.36L138.68,248.85L139.07,251.19L139.46,248.6L139.86,253.73L140.64,262.89L141.04,260.05L141.43,257.45L141.82,258.86L142.21,253.9L142.61,250.72L143,254.08L143.39,254.15L143.79,257.99L144.96,262.26L145.36,258.82L146.54,264.73L146.93,264.52L147.32,260.9L147.71,261.8L148.11,264.47L149.68,258.64L150.07,254.75L150.46,260.43L150.86,257.78L151.25,257.58L151.64,254.57L152.04,258.15L152.43,260.96L152.82,258.86L153.21,257.98L153.61,262.35L154,262.11L154.39,259.29L154.79,262.1L155.18,258.17L155.57,256.05L155.96,262.58L156.36,264.95L156.75,264.14L157.14,264.72L158.32,260.84L158.71,264.85L159.11,262.93L159.5,266.5L161.46,259.56L161.86,261.13L163.43,247.23L163.82,248.09L164.21,247.99L164.61,250.95L166.18,255.8L166.57,252.25L166.96,241.43L167.36,252.84L167.75,254.96L168.14,254.61L168.54,253.36L168.93,251.97L169.32,254.14L170.11,253.3L170.5,254.95L171.29,253.87L171.68,250.94L172.86,260.38L173.25,260.36L173.64,261.96L174.04,259.78L174.43,259.63L174.82,251.53L175.21,256.13L175.61,254.67L176,250.06L176.39,250.7L176.79,247.24L177.18,252.71L177.57,246.39L178.36,237.05L178.75,237.65L179.14,227.39L179.54,227.48L179.93,226.02L180.32,220.09L180.71,221.82L181.11,220.38L181.89,217.44L182.29,217.87L182.68,226.14L183.07,223.08L183.46,234.18L184.64,259.4L185.04,257.19L185.43,251.34L185.82,251.01L186.21,244.34L187.39,247.25L187.79,252.01L188.18,257.44L188.57,253.56L188.96,257.09L189.36,255.03L189.75,247.31L190.14,246.62L190.54,239.66L190.93,244.36L191.32,240.85L191.71,240.95L192.11,242.54L192.5,241.32L192.89,247.4L194.07,234.45L194.46,241.46L194.86,236.95L195.25,239.79L195.64,237.49L196.04,234.27L196.43,237.88L197.21,240.22L197.61,242.82L198,245.58L198.39,254.55L199.57,259.98L199.96,260.95L201.54,252.85L201.93,253.3L203.5,241.24L203.89,242.16L205.46,231.93L205.86,232.19L206.25,230.85L206.64,223.64L207.04,229.11L207.43,223.71L208.21,227.88L208.61,227.7L210.57,213.67L210.96,217.33L213.32,193.99L213.71,195.23L215.29,185.77L215.68,179.53L217.64,212.83L218.04,204.23L218.82,193.33L219.21,187.22L220.39,195.54L220.79,198.49L221.18,199.59L221.57,208.27L225.11,254.66L225.5,255.4L225.89,253.95L226.29,258.01L227.07,255.94L227.46,255.96L227.86,259.13L228.25,258.4L228.64,257L229.04,253.91L229.43,257.52L229.82,252.64L230.21,256.27L230.61,254.23L231,250.69L231.39,253.92L231.79,255.76L232.18,254.78L232.57,251.59L233.75,242.18L234.14,243.29L234.54,244.47L234.93,243.24L235.32,244.02L235.71,241.03L237.29,252.13L237.68,252.17L238.07,252.76L238.46,256.03L238.86,254.28L239.25,249.17L239.64,252.24L240.04,248.67L240.82,250.22L241.21,245.27L242,248.47L242.39,247.68L243.96,235.64L244.36,236.03L244.75,236.03L245.14,240.19L246.32,244.3L246.71,240.34L247.5,247.25L247.89,239.55L248.68,248.15L249.07,247.52L251.04,238.1L251.43,241.53L251.82,240.73L252.21,238.05L253,242.09L253.39,240.11L253.79,238.73L254.18,240.1L254.57,230.54L254.96,231.33L255.36,230L256.14,223.98L256.54,230.05L256.93,228.72L257.32,235.87L258.11,230.85L258.5,235.16L260.86,223.35L261.25,209.65L261.64,213.36L262.04,207.51L262.43,209.59L262.82,204.43L264,210.07L264.39,207.22L265.96,147.18L266.36,156.97L266.75,159.84L267.14,153.05L267.54,136.83L267.93,152.36L269.11,201.84L269.5,201.68L269.89,195.88L271.07,183.42L271.46,189.62L272.64,199.86L273.04,216.49L273.43,218.56L273.82,213.02L274.61,214.6L275,206.99L276.18,197.9L276.57,191.92L278.14,208.85L278.54,204.25L278.93,201.92L279.32,203.81L279.71,201.82L280.11,206.28L280.5,201.34L281.29,187.49L281.68,191.09L282.07,191.04L282.46,199.63L282.86,199.51L283.25,193.84L283.64,198.05L284.04,186.55L284.43,185.53L284.82,178.18L285.21,179.13L285.61,168.4L286.39,160.31L286.79,162.43L287.18,165.85L287.96,171.81L288.36,178.2L289.14,171.96L289.54,164.39L289.93,165.31L290.32,161.88L290.71,153.41L291.11,153.91L291.5,162.45L292.68,176.86L293.07,175.22L293.46,172.95L294.25,154.69L294.64,144.75L295.04,273.9L295.43,270.76L295.82,273.55L297.39,283.73L297.79,282.13L298.57,279.82L298.96,282.85L299.36,285.78L299.75,281.28L300.93,287.06L301.32,287.3L301.71,289.16L302.11,287.35L302.5,288.92L302.89,287.02L303.29,288.81L303.68,284.77L304.07,290.09L304.46,279.03L305.64,288.83L306.04,288.89L307.21,285.59L307.61,288.82L308,286.66L308.39,287.07L308.79,287.78L309.18,287.61L309.57,288.72L309.96,283.22L310.36,289.44L311.14,285.77L311.54,286.22L311.93,286.75L312.32,286.14L312.71,287.81L313.11,287.27L313.5,287.59L313.89,284.7L314.29,286.89L314.68,284.2L315.07,287.52L315.46,286.48L315.86,282.81L316.25,283.9L316.64,281.8L317.04,281.88L317.43,279.14L317.82,282.43L318.21,278.03L318.61,274.22L319,276.13L319.39,282.07L319.79,283.67L320.18,280.73L320.57,280.39L320.96,281.71L321.36,280.54L321.75,284.3L322.14,280L322.54,283.28L322.93,282.32L323.32,282.04L323.71,280.12L324.11,280.37L324.5,276.35L324.89,278.78L325.29,277.32L325.68,273.5L326.07,268.25L326.46,278.8L326.86,279.24L327.25,281.39L328.04,275.91L328.43,276.88L328.82,279.51L329.61,272.54L330,276.93L331.57,265.89L331.96,271.43L332.36,271.49L332.75,267.63L334.71,214.4L335.11,184.87L337.07,98.3L337.46,64.66L337.86,63.68L338.25,68.06L341,149.49L341.39,145.44L342.18,135.25L342.57,149.62L344.54,193.31L344.93,191.18L345.71,196.76L346.11,196.68L346.5,209.84L348.07,225.17L348.46,225.87L348.86,224.33L349.25,233.51L349.64,233.52L350.04,230.74L350.82,224.74L351.21,230.45L353.18,260.6L353.57,260.12L353.96,251.03L354.36,253.28L354.75,245.96L355.93,256.56L356.32,255.78L357.5,254.69L357.89,257.73L358.29,256.32L358.68,258.36L359.07,261.04L359.46,257.41L360.64,249.81L361.04,252.01L361.43,253.9L361.82,250.4L362.21,252.2L362.61,249.22L363.79,244.42L364.18,247.14L365.36,255.18L365.75,254.87L366.14,252.77L366.54,256.91L366.93,257.45L367.32,260.2L367.71,259.48L368.11,262.03L368.5,263L368.89,261.93L370.46,251.47L370.86,253.8L371.25,254.78L371.64,258.58L372.04,260.15L372.43,259.07L372.82,259.43L373.21,259.79L373.61,262.89L374,264.32L374.39,253.67L374.79,262.15L375.18,258.38L375.57,249.64L377.14,246.3L377.54,252.72L377.93,248.86L378.32,250.16L378.71,250.14L379.11,247.75L379.5,251.24L380.29,248.88L380.68,251.47L381.07,248.83L381.46,252.15L381.86,251.8L382.25,250.46L384.61,215.72L385,210.25L385.79,218.73L386.18,229.48L387.36,245.52L387.75,239.54L388.93,245.89L389.32,243.12L389.71,242.67L390.11,234.97L390.5,236.54L390.89,233.7L391.29,230.1L391.68,231.26L392.07,231.66L392.46,232.89L392.86,227.22L394.43,249.4L394.82,248.27L395.21,246.82L397.18,220.23L397.57,220.7L397.96,222.03L398.36,218.18L399.14,213.3L399.54,216.7L401.5,176.52L401.89,176.86L402.29,181.17L402.68,183.5L403.07,179.45L403.46,186.28L403.86,182.05L404.25,179.67L404.64,175.64L405.04,186.15L407,239.67L407.39,247.2L408.18,253.94L408.57,253.82L408.96,251.04L409.36,245.54L409.75,248.69L410.14,252.68L412.11,231.61L412.5,237.97L413.68,247.99L414.07,248.33L415.25,241.53L415.64,243.76L416.43,221.73L416.82,228.24L417.21,230.03L418,238.45L418.39,242.18L421.14,220.91L421.54,228.42L421.93,226.69L422.32,218.27L423.5,227.93L423.89,227.37L424.29,217.39L424.68,217.69L425.07,215.43L426.64,180.55L427.04,152.67L427.82,124.59L428.21,128.95L428.61,134.22L429.79,177.49L430.18,175.26L430.57,180.38L431.75,197.73L432.14,192.94L432.54,179.3L432.93,181.32L433.32,179.81L433.71,179.82L434.11,188.34L434.5,188.86L434.89,183.19L436.07,169.38L436.46,166.56L437.64,143.39L438.04,137.63L438.82,133.35L439.21,126.08L439.61,136.21L440,134.95L440.39,131.45L441.18,153.86L441.57,147.12L442.36,275.36L442.75,275.14L444.32,284.03L444.71,280.58L445.5,287.4L445.89,286.77L446.68,287.09L447.07,284.74L447.46,285.56L447.86,289.21L449.04,287.59L449.43,289.86L449.82,283.71L450.21,287.14L450.61,286.95L451,286.18L451.39,288.37L451.79,288.79L452.18,280.15L452.57,287.73L452.96,285.31L453.36,288.18L453.75,284.09L454.14,286.24L454.54,288.89L454.93,287.46L455.32,282.06L455.71,276.91L456.11,277.57L456.5,280.74L456.89,279.28L457.29,283.34L458.46,278.73L458.86,284.97L459.25,281.62L459.64,284.55L460.04,284.92L460.43,279.29L460.82,283.36L461.21,279.53L461.61,278.68L462,279.53L462.39,276.72L462.79,275.99L463.18,280.88L464.75,266.51L465.14,274.54L465.54,273.58L465.93,267.51L466.32,268.85L466.71,263.54L468.29,173.6L468.68,140.12L469.46,76.37L469.86,27.7L470.25,16.5L470.64,30.05L473,114.07L473.39,125.52L474.96,168.86L475.36,174.42L477.71,218.88L478.11,216.85L478.5,216.42L478.89,220.32L479.68,231.42L480.07,247.07L480.86,253.34L481.25,248.02L481.64,249.5L482.04,248.59L482.43,253.28L482.82,253.89L483.21,249.62L484,254.16L484.39,252.1L485.18,252.77L485.57,252.16L486.75,243.83L487.14,244.63L488.32,250.04L488.71,250.13L489.5,256.34L489.89,251.47L491.07,256.09L491.46,253.71L491.86,253.9L492.25,252.26L494.21,262.04L494.61,258.47L496.18,237.32L496.57,243.46L497.36,247.59L497.75,244.28L498.14,243.94L498.54,245.37L498.93,249.84L499.32,245.78L499.71,243L500.5,233.07L500.89,221.51L501.68,207.31L502.07,218.21L503.64,235.79L504.04,236.48L504.43,238.01L504.82,232.64L505.61,226.84L506,230.44L506.39,231.25L506.79,228.5L508.36,236.82L508.75,229.21L511.11,205.29L511.5,206.06L514.25,164.95L514.64,180.93L515.04,179.8L515.43,197.69L517,241.52L517.39,245.72L519.75,222.69L520.14,228.82L520.93,239.4L521.32,238.95L521.71,235.89L522.89,223.55L523.29,223.51L524.07,233.53L524.46,228.26L524.86,218.47L525.25,219.2L525.64,223.21L526.82,217.54L527.21,221.23L528.39,202.94L528.79,197.87L529.96,131.37L530.36,133.29L530.75,114.48L531.14,123.05L531.54,151.35L533.11,168.15L533.5,166.68L533.89,158.95L534.29,154.3L534.68,157.99L535.07,164.85L536.25,135.06L536.64,127.64L537.04,127.36L537.43,111.57L537.82,112.2L538.21,118.18L538.61,127.88L539,120.59" style="vector-effect: non-scaling-stroke; fill: none; stroke: rgb(31, 119, 180); stroke-opacity: 1; stroke-width: 2px; opacity: 1;"/><g class="points"/></g><g class="trace scatter tracee0a192" style="stroke-miterlimit: 2; opacity: 1;"><path class="js-line" d="M0,313.5L539,313.5" style="vector-effect: non-scaling-stroke; fill: none; stroke: rgb(255, 127, 14); stroke-opacity: 1; stroke-width: 2px; opacity: 1;"/><g class="points"/></g></g></g><g class="overplot"/><path class="xlines crisp" transform="translate(60,60)" d="M-1,330.5h541" style="fill: none; stroke-width: 1px; stroke: rgb(0, 0, 0); stroke-opacity: 0;"/><path class="ylines crisp" transform="translate(60,60)" d="M-0.5,-1v331" stroke-width="1px" style="fill: none; stroke: rgb(0, 0, 0); stroke-opacity: 0;"/><g class="overlines"/><g class="xaxislayer" transform="translate(60,60)"><g class="xtick" data-bb="6695"><text text-anchor="middle" x="0" y="344" transform="translate(78.18,0)" style="font-family: 'Open Sans', verdana, arial, sans-serif; font-size: 12px; fill: rgb(68, 68, 68); fill-opacity: 1; visibility: visible; white-space: pre;" data-bb="6688">200</text></g><g class="xtick" data-bb="6696"><text text-anchor="middle" x="0" y="344" transform="translate(156.75,0)" style="font-family: 'Open Sans', verdana, arial, sans-serif; font-size: 12px; fill: rgb(68, 68, 68); fill-opacity: 1; visibility: visible; white-space: pre;" data-bb="6689">400</text></g><g class="xtick" data-bb="6697"><text text-anchor="middle" x="0" y="344" transform="translate(235.32,0)" style="font-family: 'Open Sans', verdana, arial, sans-serif; font-size: 12px; fill: rgb(68, 68, 68); fill-opacity: 1; visibility: visible; white-space: pre;" data-bb="6690">600</text></g><g class="xtick" data-bb="6698"><text text-anchor="middle" x="0" y="344" transform="translate(313.89,0)" style="font-family: 'Open Sans', verdana, arial, sans-serif; font-size: 12px; fill: rgb(68, 68, 68); fill-opacity: 1; visibility: visible; white-space: pre;" data-bb="6691">800</text></g><g class="xtick" data-bb="6699"><text text-anchor="middle" x="0" y="344" transform="translate(392.46,0)" style="font-family: 'Open Sans', verdana, arial, sans-serif; font-size: 12px; fill: rgb(68, 68, 68); fill-opacity: 1; visibility: visible; white-space: pre;" data-bb="6692">1000</text></g><g class="xtick" data-bb="6700"><text text-anchor="middle" x="0" y="344" transform="translate(471.04,0)" style="font-family: 'Open Sans', verdana, arial, sans-serif; font-size: 12px; fill: rgb(68, 68, 68); fill-opacity: 1; visibility: visible; white-space: pre;" data-bb="6693">1200</text></g></g><g class="yaxislayer" transform="translate(60,60)"><g class="ytick" data-bb="6702"><text text-anchor="end" x="-2" y="6" transform="translate(0,313.5)" style="font-family: 'Open Sans', verdana, arial, sans-serif; font-size: 12px; fill: rgb(68, 68, 68); fill-opacity: 1; visibility: visible; white-space: pre;">0</text></g><g class="ytick" data-bb="6703"><text text-anchor="end" x="-2" y="6" transform="translate(0,231.66)" style="font-family: 'Open Sans', verdana, arial, sans-serif; font-size: 12px; fill: rgb(68, 68, 68); fill-opacity: 1; visibility: visible; white-space: pre;">500</text></g><g class="ytick" data-bb="6704"><text text-anchor="end" x="-2" y="6" transform="translate(0,149.82)" style="font-family: 'Open Sans', verdana, arial, sans-serif; font-size: 12px; fill: rgb(68, 68, 68); fill-opacity: 1; visibility: visible; white-space: pre;">1000</text></g><g class="ytick" data-bb="6705"><text text-anchor="end" x="-2" y="6" transform="translate(0,67.98)" style="font-family: 'Open Sans', verdana, arial, sans-serif; font-size: 12px; fill: rgb(68, 68, 68); fill-opacity: 1; visibility: visible; white-space: pre;">1500</text></g></g><g class="overaxes"/></g></g><g class="ternarylayer"/><g class="geolayer"/><g class="layer-above"><g class="imagelayer"/><g class="shapelayer"/></g><g class="pielayer"/><g class="glimages"/><defs id="topdefs-657907"><clipPath id="legend657907"><rect width="78" height="48" x="0" y="0"/></clipPath></defs><g class="infolayer"><g class="g-gtitle"><text class="gtitle" x="350" y="30" text-anchor="middle" style="font-family: 'Open Sans', verdana, arial, sans-serif; font-size: 17px; fill: rgb(68, 68, 68); opacity: 1; font-weight: normal; white-space: pre; visibility: visible;">avenue: video_04</text></g><g class="g-xtitle" data-bb="6694"><text class="xtitle" x="329.5" y="442" text-anchor="middle" style="font-family: 'Open Sans', verdana, arial, sans-serif; font-size: 14px; fill: rgb(68, 68, 68); opacity: 1; font-weight: normal; white-space: pre; visibility: visible;">sample index</text></g><g class="g-ytitle" data-bb="6701" transform="translate(-1,0)"><text class="ytitle" transform="rotate(-90,22,225) translate(0, 0)" x="22" y="225" text-anchor="middle" style="font-family: 'Open Sans', verdana, arial, sans-serif; font-size: 14px; fill: rgb(68, 68, 68); opacity: 1; font-weight: normal; white-space: pre; visibility: visible;">reconstruction cost</text></g><g class="legend" pointer-events="all" transform="translate(609.78, 60)"><rect class="bg" shape-rendering="crispEdges" style="stroke: rgb(68, 68, 68); stroke-opacity: 1; fill: rgb(255, 255, 255); fill-opacity: 1; stroke-width: 0px;" width="78" height="48" x="0" y="0"/><g class="scrollbox" transform="translate(0, 0)" clip-path="url(#legend657907)"><g class="groups"><g class="traces" transform="translate(0, 14.5)" style="opacity: 1;"><g class="layers" style="opacity: 1;"><g class="legendfill"/><g class="legendlines"><path class="js-line" d="M5,0h30" style="fill: none; stroke: rgb(31, 119, 180); stroke-opacity: 1; stroke-width: 2px;"/></g><g class="legendsymbols"><g class="legendpoints"/></g></g><text class="legendtext user-select-none" x="40" y="4.680000000000001" style="text-anchor: start; font-family: 'Open Sans', verdana, arial, sans-serif; font-size: 12px; fill: rgb(68, 68, 68); fill-opacity: 1; white-space: pre; visibility: visible;" data-bb="6706">recon</text><rect class="legendtoggle" pointer-events="all" style="cursor: pointer; fill: rgb(0, 0, 0); fill-opacity: 0;" x="0" y="-9.5" width="118" height="19"/></g><g class="traces" transform="translate(0, 33.5)" style="opacity: 1;"><g class="layers" style="opacity: 1;"><g class="legendfill"/><g class="legendlines"><path class="js-line" d="M5,0h30" style="fill: none; stroke: rgb(255, 127, 14); stroke-opacity: 1; stroke-width: 2px;"/></g><g class="legendsymbols"><g class="legendpoints"/></g></g><text class="legendtext user-select-none" x="40" y="4.680000000000001" style="text-anchor: start; font-family: 'Open Sans', verdana, arial, sans-serif; font-size: 12px; fill: rgb(68, 68, 68); fill-opacity: 1; white-space: pre; visibility: visible;" data-bb="6707">zero</text><rect class="legendtoggle" pointer-events="all" x="0" y="-9.5" width="118" height="19" style="cursor: pointer; fill: rgb(0, 0, 0); fill-opacity: 0;"/></g></g></g><rect class="scrollbar" rx="20" ry="2" width="0" height="0" style="fill: rgb(128, 139, 164); fill-opacity: 1;"/></g></g></svg>