<svg class="main-svg" xmlns="http://www.w3.org/2000/svg" xmlns:xlink="http://www.w3.org/1999/xlink" width="700" height="450"><rect x="0" y="0" width="700" height="450" style="fill: rgb(255, 255, 255); fill-opacity: 1;"/><defs id="defs-409591"><g class="clips"><clipPath class="axesclip" id="clip409591x"><rect x="60" y="0" width="539" height="450"/></clipPath><clipPath class="axesclip" id="clip409591y"><rect x="0" y="60" width="700" height="330"/></clipPath><clipPath class="axesclip" id="clip409591xy"><rect x="60" y="60" width="539" height="330"/></clipPath><clipPath class="plotclip" id="clip409591xyplot"><rect width="539" height="330"/></clipPath></g></defs><g class="bglayer"><rect class="bg" x="60" y="60" width="539" height="330" style="fill: rgb(255, 255, 255); fill-opacity: 1; stroke-width: 0;"/></g><g class="layer-below"><g class="imagelayer"/><g class="shapelayer"/></g><g class="cartesianlayer"><g class="subplot xy"><g class="layer-subplot"><g class="shapelayer"/><g class="imagelayer"/></g><g class="gridlayer" transform="translate(60,60)"><path class="xgrid crisp" d="M0,0v330" transform="translate(107.91,0)" style="stroke: rgb(238, 238, 238); stroke-opacity: 1; stroke-width: 1px;"/><path class="xgrid crisp" d="M0,0v330" transform="translate(216.36,0)" style="stroke: rgb(238, 238, 238); stroke-opacity: 1; stroke-width: 1px;"/><path class="xgrid crisp" d="M0,0v330" transform="translate(324.81,0)" style="stroke: rgb(238, 238, 238); stroke-opacity: 1; stroke-width: 1px;"/><path class="xgrid crisp" d="M0,0v330" transform="translate(433.26,0)" style="stroke: rgb(238, 238, 238); stroke-opacity: 1; stroke-width: 1px;"/><path class="ygrid crisp" d="M0,0h539" transform="translate(0,274.1)" style="stroke: rgb(238, 238, 238); stroke-opacity: 1; stroke-width: 1px;"/><path class="ygrid crisp" d="M0,0h539" transform="translate(0,234.69)" style="stroke: rgb(238, 238, 238); stroke-opacity: 1; stroke-width: 1px;"/><path class="ygrid crisp" d="M0,0h539" transform="translate(0,195.29)" style="stroke: rgb(238, 238, 238); stroke-opacity: 1; stroke-width: 1px;"/><path class="ygrid crisp" d="M0,0h539" transform="translate(0,155.88)" style="stroke: rgb(238, 238, 238); stroke-opacity: 1; stroke-width: 1px;"/><path class="ygrid crisp" d="M0,0h539" transform="translate(0,116.48)" style="stroke: rgb(238, 238, 238); stroke-opacity: 1; stroke-width: 1px;"/><path class="ygrid crisp" d="M0,0h539" transform="translate(0,77.07)" style="stroke: rgb(238, 238, 238); stroke-opacity: 1; stroke-width: 1px;"/><path class="ygrid crisp" d="M0,0h539" transform="translate(0,37.67)" style="stroke: rgb(238, 238, 238); stroke-opacity: 1; stroke-width: 1px;"/></g><g class="overgrid"/><g class="zerolinelayer" transform="translate(60,60)"><path class="yzl zl crisp" d="M0,0h539" transform="translate(0,313.5)" style="stroke: rgb(68, 68, 68); stroke-opacity: 1; stroke-width: 1px;"/></g><g class="overzero"/><g class="plot" transform="translate(60, 60)" clip-path="url(#clip409591xyplot)"><g class="imagelayer"/><g class="maplayer"/><g class="barlayer"/><g class="carpetlayer"/><g class="boxlayer"/><g class="scatterlayer"><g class="trace scatter trace92f26b" style="stroke-miterlimit: 2; opacity: 1;"><path class="js-line" d="M0,285.77L1.08,285.6L1.63,289.16L2.17,294.4L2.71,292.89L3.25,294.13L4.34,295.92L4.88,296.89L5.42,297.39L5.96,296.65L6.51,296.52L7.05,295.15L8.68,295.49L9.22,294.29L9.76,294.63L10.3,292.79L10.85,293.34L11.39,291.58L12.47,288.83L13.01,288.27L14.1,284.73L14.64,286.7L16.81,292.3L17.35,291.37L18.44,292.75L18.98,292.3L20.06,293.03L20.61,292.34L21.15,292L21.69,292.93L22.23,293.48L22.77,295.18L24.4,296.92L24.94,296.29L25.49,295.82L26.03,296.64L28.2,294.66L28.74,295.95L30.91,298L31.45,299.21L33.62,298.13L34.16,298.94L34.7,297.41L35.25,299.01L36.33,298.58L36.87,298.38L39.04,300.32L39.58,300.57L40.13,302.09L40.67,301.08L41.75,302.29L42.3,302.34L42.84,300.96L43.38,301.66L43.92,301.03L44.46,302.4L45.01,301.29L45.55,302.18L46.09,302.97L46.63,302.34L48.26,304.87L48.8,303.88L49.89,304.75L50.43,304.74L51.51,303.35L52.06,304.09L53.68,302.44L54.23,303.58L54.77,302.78L55.31,303.37L55.85,303.7L56.39,302.66L56.94,303.49L57.48,302.78L58.02,303.62L58.56,302.97L60.19,304.37L60.73,303.39L62.36,303.84L62.9,303.41L65.61,302.31L66.15,301.35L67.78,300.87L68.32,301.16L68.87,301.64L69.41,300.75L70.49,301.71L71.04,301.38L72.66,303.48L73.2,304.77L74.29,305.78L74.83,305.87L75.92,306.2L76.46,305.26L77,304.64L77.54,302.14L78.08,304.81L78.63,304.38L79.17,302.48L80.8,300.69L81.34,300.62L82.96,298.88L83.51,299.15L84.05,298.83L84.59,300.32L85.68,301.49L86.22,302.93L86.76,303.5L87.3,302.91L88.39,302.1L88.93,302.9L90.56,301.85L91.1,303L93.27,304.59L93.81,303.41L94.35,303.53L94.89,301.89L95.98,301.81L96.52,301.75L97.06,300.87L97.61,301.49L98.69,301.63L99.23,301.31L101.94,302.51L102.49,302.3L103.57,302.07L104.11,301.08L105.2,301.7L105.74,301.15L106.28,301.37L106.82,299.74L107.91,301.29L108.45,300.37L110.62,299.07L111.16,298.64L112.25,298.24L112.79,298.82L114.42,299.33L114.96,300.53L117.13,299.51L117.67,298.79L118.75,298.44L119.3,297.02L120.38,299.3L120.92,299.11L122.01,299.93L122.55,299.27L124.18,298.13L124.72,296.3L126.35,295.51L126.89,292.55L127.97,294.5L128.51,293.95L130.14,297.52L130.68,297.39L131.77,298.43L132.31,297.74L133.39,297.76L133.94,296.52L135.02,293.92L135.56,296.23L136.65,295.26L137.19,295.88L138.82,295.07L139.36,295.94L140.44,295.19L140.99,295.93L142.61,294.32L143.15,292.3L143.7,293.75L144.24,292.59L146.95,295.39L147.49,296.54L149.12,295.62L149.66,296.27L151.29,293.8L151.83,293.57L153.46,295.2L154,293.93L157.25,293.87L157.8,293.76L158.34,292.83L158.88,294.12L160.51,295.71L161.05,294.5L162.68,296.19L163.22,295.17L164.3,296.64L164.85,296.97L165.39,297.67L165.93,296.69L168.1,300.51L168.64,299.99L169.18,300.22L169.73,301.93L172.98,300.31L173.52,299.37L174.06,300.69L174.61,298.97L175.15,297.75L175.69,298.75L177.32,296.46L177.86,297.2L179.49,298.43L180.03,297.93L181.11,296.79L181.65,295.1L183.28,293.86L183.82,294.14L186.54,298.91L187.08,298.8L188.7,296.1L189.25,296.3L190.87,295.27L191.42,295.87L193.58,298.52L194.13,298.36L195.21,299.39L195.75,298.69L196.3,297.46L196.84,298.84L197.92,300.49L198.46,296.08L201.18,204.41L201.72,193.22L202.8,172.31L203.35,173.44L204.43,182.98L204.97,196.11L206.06,214.28L206.6,212.2L207.14,206.63L207.68,207.47L208.23,223.99L210.94,250.26L211.48,253.05L212.02,255.4L212.56,248.52L213.11,240.85L213.65,241.47L214.19,247.62L216.36,276.37L216.9,274.77L217.44,272.88L217.99,275.24L218.53,278.56L219.07,277.56L219.61,278.19L220.7,275.72L221.24,279.11L222.87,287.4L223.41,286.87L224.49,285.75L225.04,286.08L226.66,282.71L227.2,283.25L227.75,285.28L228.29,284.36L228.83,284.07L229.37,282.24L231.54,275.11L232.08,276.92L234.8,290.2L235.34,290.43L235.88,292.41L236.42,291.73L236.96,292.35L237.51,291.01L238.05,291.34L238.59,290.51L239.13,290.24L239.68,291L242.93,295.34L243.47,295.87L244.56,294.6L245.1,293.53L245.64,292.21L246.18,292.66L246.73,292.6L247.27,293.64L247.81,293.07L248.35,293.39L251.61,289.17L252.15,290.29L254.32,291.29L254.86,290.6L255.4,291.86L255.94,289.12L258.65,294.11L259.2,294.33L260.28,293.13L260.82,293.65L261.91,293.18L262.45,294.45L263.54,294.37L264.08,294.94L265.7,296.75L266.25,294.86L267.87,293.91L268.42,293.92L268.96,294.22L269.5,292.94L270.58,294.37L271.13,293.22L273.3,293.32L273.84,292.05L274.92,291.01L275.46,290.33L276.01,289.58L276.55,291.02L277.09,290.33L277.63,292.81L278.72,295.11L279.26,295.27L280.35,297.28L280.89,296.77L285.77,288.06L286.31,289.22L286.85,289.57L287.39,291.05L289.02,291.89L289.56,291.66L290.65,291.52L291.19,292.33L291.73,291.2L292.27,292.02L292.82,291.34L293.36,292.87L294.44,293.54L294.99,293.54L296.07,286.95L296.61,286.4L297.15,288.81L297.7,295.59L299.32,292.66L299.87,292.76L302.58,283.81L303.12,286.59L304.2,291.33L304.75,290.53L305.29,289.97L305.83,289.38L306.37,291.95L307.46,295.23L308,294.6L308.54,294.59L309.08,293.46L309.63,293.31L310.17,296.28L311.8,297.79L312.34,297.31L312.88,296.53L313.42,296.93L313.96,298.48L314.51,299.25L315.05,301.49L315.59,301.2L316.13,299.69L317.22,302.15L317.76,301.93L319.93,303.76L320.47,303.58L321.56,302.58L322.1,302.92L323.73,302.21L324.27,303.22L324.81,303.32L325.35,302.15L328.06,301.13L328.61,299.38L330.23,300.68L330.77,300.69L332.4,305.69L332.94,305.01L333.49,304.86L334.03,303.05L336.74,297.14L337.28,298.46L338.91,301.32L339.45,300.66L341.08,302.73L341.62,301.9L342.16,300.71L342.7,301.65L344.33,300.17L344.87,300.33L345.42,300.02L345.96,300.77L348.13,299.2L348.67,300.3L350.3,296.35L350.84,296.78L351.38,296.12L351.92,297.63L353.01,298.5L353.55,297.73L354.63,295.07L355.18,296.47L355.72,296.26L356.26,294.91L356.8,294.59L357.35,293.04L358.43,291.13L358.97,291.24L360.06,293.45L360.6,294.75L363.31,291.62L363.85,293.13L364.39,293.24L364.94,292.16L365.48,291.36L366.02,292.2L367.65,289.56L368.19,291.82L369.82,291.32L370.36,291.43L370.9,291.46L371.44,289.9L371.99,291.55L372.53,290.38L373.07,289.72L373.61,290.62L374.15,290.39L374.7,291.53L375.78,293.95L376.32,293.58L379.04,298.55L379.58,299.65L380.12,300.44L380.66,299.88L381.2,300.38L381.75,298.62L382.29,298.13L382.83,296.44L383.37,295.3L383.92,295.74L384.46,295.7L386.08,293.5L386.63,291.8L388.25,295.26L388.8,294.87L390.42,291.51L390.96,292.53L392.05,296.99L392.59,295.99L393.13,296.86L393.68,286.87L396.39,83.43L396.93,100.05L398.01,132.58L398.56,154.18L400.18,219.15L400.73,216.44L401.27,215.18L402.35,236.44L402.89,254.06L403.44,264.12L403.98,263.54L404.52,266.16L406.69,281.21L407.23,276.9L407.77,275.01L408.32,276.54L409.4,272.74L409.94,266.86L410.49,266.01L411.03,271.08L412.65,288.51L413.2,290.46L414.82,290.8L415.37,291.61L416.99,293.08L417.54,291.94L418.08,291.52L418.62,289.75L421.33,287.57L421.87,288.69L422.42,288.42L422.96,289.82L423.5,289L424.04,290.59L425.13,292.52L425.67,292.63L426.21,293.35L426.75,291.75L427.3,293.34L427.84,292.18L428.92,292.82L429.46,292.65L430.55,290.35L431.09,290.39L433.26,288.55L433.8,290.15L434.89,293.85L435.43,293.04L437.6,287.21L438.14,286.49L438.68,287.09L439.23,289.42L439.77,288.98L440.31,289.54L440.85,289.18L441.39,290.27L442.48,288.66L443.02,287.13L444.11,284.68L444.65,289.93L445.19,289.27L445.73,284.47L446.27,282.45L446.82,283.35L447.9,287.4L448.44,287.1L448.99,287.02L450.61,293.35L451.15,292.04L452.24,296.27L452.78,295.95L453.32,295.82L454.95,298.31L455.49,300.19L456.58,300.44L457.12,302.32L457.66,302.85L458.2,301.94L459.29,302.53L459.83,301.71L461.46,302.33L462,301.12L462.54,301.94L463.08,301.12L464.71,299.91L465.25,300.78L466.88,303.36L467.42,303.18L469.05,296.89L469.59,297.3L471.22,300.34L471.76,300.44L472.85,300.8L473.39,300.58L474.47,297.37L475.01,298.89L476.64,299.52L477.18,299.11L478.81,295.81L479.35,296.47L479.89,296.48L480.44,295.74L480.98,295.7L481.52,294.03L484.23,288.52L484.77,289.26L485.32,290.53L485.86,289.97L486.4,289.1L486.94,289.62L487.49,289.01L488.57,291.2L489.11,290.22L489.65,286.92L490.2,288.28L491.28,288.2L491.82,290.47L493.45,289.42L493.99,289.09L494.54,289.52L495.08,288.85L496.16,294.1L496.7,294.43L498.87,298.94L499.42,297.84L501.04,292.71L501.58,292.33L502.67,293.61L503.21,292.57L504.3,293.77L504.84,293.49L505.38,292.5L505.92,293.42L506.46,294.65L507.01,290.72L509.72,16.5L510.26,38.5L512.43,186.28L512.97,205.02L515.14,261.54L515.68,267.94L516.23,268.22L516.77,270.36L518.39,258.18L518.94,263.8L521.11,289.25L521.65,291.25L522.19,291.39L522.73,290.14L523.82,289.5L524.36,287.9L525.44,287.07L525.99,287.23L527.07,288.25L527.61,289.57L529.24,292.18L529.78,290.78L530.32,292.56L530.87,291.4L533.04,286.7L533.58,287.24L535.2,289.6L535.75,288.36L536.29,285.12L536.83,286.15L537.37,286.06L537.92,285.81L538.46,286.81L539,287.57" style="vector-effect: non-scaling-stroke; fill: none; stroke: rgb(31, 119, 180); stroke-opacity: 1; stroke-width: 2px; opacity: 1;"/><g class="points"/></g><g class="trace scatter trace0a50d0" style="stroke-miterlimit: 2; opacity: 1;"><path class="js-line" d="M0,313.5L539,313.5" style="vector-effect: non-scaling-stroke; fill: none; stroke: rgb(255, 127, 14); stroke-opacity: 1; stroke-width: 2px; opacity: 1;"/><g class="points"/></g></g></g><g class="overplot"/><path class="xlines crisp" transform="translate(60,60)" d="M-1,330.5h541" style="fill: none; stroke-width: 1px; stroke: rgb(0, 0, 0); stroke-opacity: 0;"/><path class="ylines crisp" transform="translate(60,60)" d="M-0.5,-1v331" stroke-width="1px" style="fill: none; stroke: rgb(0, 0, 0); stroke-opacity: 0;"/><g class="overlines"/><g class="xaxislayer" transform="translate(60,60)"><g class="xtick" data-bb="6829"><text text-anchor="middle" x="0" y="344" transform="translate(107.91,0)" style="font-family: 'Open Sans', verdana, arial, sans-serif; font-size: 12px; fill: rgb(68, 68, 68); fill-opacity: 1; visibility: visible; white-space: pre;" data-bb="6824">200</text></g><g class="xtick" data-bb="6830"><text text-anchor="middle" x="0" y="344" transform="translate(216.36,0)" style="font-family: 'Open Sans', verdana, arial, sans-serif; font-size: 12px; fill: rgb(68, 68, 68); fill-opacity: 1; visibility: visible; white-space: pre;" data-bb="6825">400</text></g><g class="xtick" data-bb="6831"><text text-anchor="middle" x="0" y="344" transform="translate(324.81,0)" style="font-family: 'Open Sans', verdana, arial, sans-serif; font-size: 12px; fill: rgb(68, 68, 68); fill-opacity: 1; visibility: visible; white-space: pre;" data-bb="6826">600</text></g><g class="xtick" data-bb="6832"><text text-anchor="middle" x="0" y="344" transform="translate(433.26,0)" style="font-family: 'Open Sans', verdana, arial, sans-serif; font-size: 12px; fill: rgb(68, 68, 68); fill-opacity: 1; visibility: visible; white-space: pre;" data-bb="6827">800</text></g></g><g class="yaxislayer" transform="translate(60,60)"><g class="ytick" data-bb="6834"><text text-anchor="end" x="-2" y="6" transform="translate(0,313.5)" style="font-family: 'Open Sans', verdana, arial, sans-serif; font-size: 12px; fill: rgb(68, 68, 68); fill-opacity: 1; visibility: visible; white-space: pre;">0</text></g><g class="ytick" data-bb="6835"><text text-anchor="end" x="-2" y="6" transform="translate(0,274.1)" style="font-family: 'Open Sans', verdana, arial, sans-serif; font-size: 12px; fill: rgb(68, 68, 68); fill-opacity: 1; visibility: visible; white-space: pre;">1000</text></g><g class="ytick" data-bb="6836"><text text-anchor="end" x="-2" y="6" transform="translate(0,234.69)" style="font-family: 'Open Sans', verdana, arial, sans-serif; font-size: 12px; fill: rgb(68, 68, 68); fill-opacity: 1; visibility: visible; white-space: pre;">2000</text></g><g class="ytick" data-bb="6837"><text text-anchor="end" x="-2" y="6" transform="translate(0,195.29)" style="font-family: 'Open Sans', verdana, arial, sans-serif; font-size: 12px; fill: rgb(68, 68, 68); fill-opacity: 1; visibility: visible; white-space: pre;">3000</text></g><g class="ytick" data-bb="6838"><text text-anchor="end" x="-2" y="6" transform="translate(0,155.88)" style="font-family: 'Open Sans', verdana, arial, sans-serif; font-size: 12px; fill: rgb(68, 68, 68); fill-opacity: 1; visibility: visible; white-space: pre;">4000</text></g><g class="ytick" data-bb="6839"><text text-anchor="end" x="-2" y="6" transform="translate(0,116.48)" style="font-family: 'Open Sans', verdana, arial, sans-serif; font-size: 12px; fill: rgb(68, 68, 68); fill-opacity: 1; visibility: visible; white-space: pre;">5000</text></g><g class="ytick" data-bb="6840"><text text-anchor="end" x="-2" y="6" transform="translate(0,77.07)" style="font-family: 'Open Sans', verdana, arial, sans-serif; font-size: 12px; fill: rgb(68, 68, 68); fill-opacity: 1; visibility: visible; white-space: pre;">6000</text></g><g class="ytick" data-bb="6841"><text text-anchor="end" x="-2" y="6" transform="translate(0,37.67)" style="font-family: 'Open Sans', verdana, arial, sans-serif; font-size: 12px; fill: rgb(68, 68, 68); fill-opacity: 1; visibility: visible; white-space: pre;">7000</text></g></g><g class="overaxes"/></g></g><g class="ternarylayer"/><g class="geolayer"/><g class="layer-above"><g class="imagelayer"/><g class="shapelayer"/></g><g class="pielayer"/><g class="glimages"/><defs id="topdefs-409591"><clipPath id="legend409591"><rect width="78" height="48" x="0" y="0"/></clipPath></defs><g class="infolayer"><g class="g-gtitle"><text class="gtitle" x="350" y="30" text-anchor="middle" style="font-family: 'Open Sans', verdana, arial, sans-serif; font-size: 17px; fill: rgb(68, 68, 68); opacity: 1; font-weight: normal; white-space: pre; visibility: visible;">avenue: video_07</text></g><g class="g-xtitle" data-bb="6828"><text class="xtitle" x="329.5" y="442" text-anchor="middle" style="font-family: 'Open Sans', verdana, arial, sans-serif; font-size: 14px; fill: rgb(68, 68, 68); opacity: 1; font-weight: normal; white-space: pre; visibility: visible;">sample index</text></g><g class="g-ytitle" data-bb="6833" transform="translate(-1,0)"><text class="ytitle" transform="rotate(-90,22,225) translate(0, 0)" x="22" y="225" text-anchor="middle" style="font-family: 'Open Sans', verdana, arial, sans-serif; font-size: 14px; fill: rgb(68, 68, 68); opacity: 1; font-weight: normal; white-space: pre; visibility: visible;">reconstruction cost</text></g><g class="legend" pointer-events="all" transform="translate(609.78, 60)"><rect class="bg" shape-rendering="crispEdges" style="stroke: rgb(68, 68, 68); stroke-opacity: 1; fill: rgb(255, 255, 255); fill-opacity: 1; stroke-width: 0px;" width="78" height="48" x="0" y="0"/><g class="scrollbox" transform="translate(0, 0)" clip-path="url(#legend409591)"><g class="groups"><g class="traces" transform="translate(0, 14.5)" style="opacity: 1;"><g class="layers" style="opacity: 1;"><g class="legendfill"/><g class="legendlines"><path class="js-line" d="M5,0h30" style="fill: none; stroke: rgb(31, 119, 180); stroke-opacity: 1; stroke-width: 2px;"/></g><g class="legendsymbols"><g class="legendpoints"/></g></g><text class="legendtext user-select-none" x="40" y="4.680000000000001" style="text-anchor: start; font-family: 'Open Sans', verdana, arial, sans-serif; font-size: 12px; fill: rgb(68, 68, 68); fill-opacity: 1; white-space: pre; visibility: visible;" data-bb="6842">recon</text><rect class="legendtoggle" pointer-events="all" style="cursor: pointer; fill: rgb(0, 0, 0); fill-opacity: 0;" x="0" y="-9.5" width="118" height="19"/></g><g class="traces" transform="translate(0, 33.5)" style="opacity: 1;"><g class="layers" style="opacity: 1;"><g class="legendfill"/><g class="legendlines"><path class="js-line" d="M5,0h30" style="fill: none; stroke: rgb(255, 127, 14); stroke-opacity: 1; stroke-width: 2px;"/></g><g class="legendsymbols"><g class="legendpoints"/></g></g><text class="legendtext user-select-none" x="40" y="4.680000000000001" style="text-anchor: start; font-family: 'Open Sans', verdana, arial, sans-serif; font-size: 12px; fill: rgb(68, 68, 68); fill-opacity: 1; white-space: pre; visibility: visible;" data-bb="6843">zero</text><rect class="legendtoggle" pointer-events="all" x="0" y="-9.5" width="118" height="19" style="cursor: pointer; fill: rgb(0, 0, 0); fill-opacity: 0;"/></g></g></g><rect class="scrollbar" rx="20" ry="2" width="0" height="0" style="fill: rgb(128, 139, 164); fill-opacity: 1;"/></g></g></svg>