<svg class="main-svg" xmlns="http://www.w3.org/2000/svg" xmlns:xlink="http://www.w3.org/1999/xlink" width="700" height="450"><rect x="0" y="0" width="700" height="450" style="fill: rgb(255, 255, 255); fill-opacity: 1;"/><defs id="defs-072201"><g class="clips"><clipPath class="axesclip" id="clip072201x"><rect x="60" y="0" width="539" height="450"/></clipPath><clipPath class="axesclip" id="clip072201y"><rect x="0" y="60" width="700" height="330"/></clipPath><clipPath class="axesclip" id="clip072201xy"><rect x="60" y="60" width="539" height="330"/></clipPath><clipPath class="plotclip" id="clip072201xyplot"><rect width="539" height="330"/></clipPath></g></defs><g class="bglayer"><rect class="bg" x="60" y="60" width="539" height="330" style="fill: rgb(255, 255, 255); fill-opacity: 1; stroke-width: 0;"/></g><g class="layer-below"><g class="imagelayer"/><g class="shapelayer"/></g><g class="cartesianlayer"><g class="subplot xy"><g class="layer-subplot"><g class="shapelayer"/><g class="imagelayer"/></g><g class="gridlayer" transform="translate(60,60)"><path class="xgrid crisp" d="M0,0v330" transform="translate(116.84,0)" style="stroke: rgb(238, 238, 238); stroke-opacity: 1; stroke-width: 1px;"/><path class="xgrid crisp" d="M0,0v330" transform="translate(234.27,0)" style="stroke: rgb(238, 238, 238); stroke-opacity: 1; stroke-width: 1px;"/><path class="xgrid crisp" d="M0,0v330" transform="translate(351.7,0)" style="stroke: rgb(238, 238, 238); stroke-opacity: 1; stroke-width: 1px;"/><path class="xgrid crisp" d="M0,0v330" transform="translate(469.13,0)" style="stroke: rgb(238, 238, 238); stroke-opacity: 1; stroke-width: 1px;"/><path class="ygrid crisp" d="M0,0h539" transform="translate(0,247.01)" style="stroke: rgb(238, 238, 238); stroke-opacity: 1; stroke-width: 1px;"/><path class="ygrid crisp" d="M0,0h539" transform="translate(0,180.52)" style="stroke: rgb(238, 238, 238); stroke-opacity: 1; stroke-width: 1px;"/><path class="ygrid crisp" d="M0,0h539" transform="translate(0,114.03)" style="stroke: rgb(238, 238, 238); stroke-opacity: 1; stroke-width: 1px;"/><path class="ygrid crisp" d="M0,0h539" transform="translate(0,47.54)" style="stroke: rgb(238, 238, 238); stroke-opacity: 1; stroke-width: 1px;"/></g><g class="overgrid"/><g class="zerolinelayer" transform="translate(60,60)"><path class="yzl zl crisp" d="M0,0h539" transform="translate(0,313.5)" style="stroke: rgb(68, 68, 68); stroke-opacity: 1; stroke-width: 1px;"/></g><g class="overzero"/><g class="plot" transform="translate(60, 60)" clip-path="url(#clip072201xyplot)"><g class="imagelayer"/><g class="maplayer"/><g class="barlayer"/><g class="carpetlayer"/><g class="boxlayer"/><g class="scatterlayer"><g class="trace scatter traced52a1c" style="stroke-miterlimit: 2; opacity: 1;"><path class="js-line" d="M0,140.25L1.17,129.71L1.76,132.85L2.94,157.89L3.52,154.99L5.28,138.53L5.87,135.31L6.46,139L7.05,150.79L8.22,162.31L8.81,167.28L9.39,166.04L9.98,162.19L11.74,147.41L12.33,151.24L12.92,138.92L13.5,156.59L14.09,166.68L14.68,162.88L16.44,185.36L17.03,189.26L17.61,179.94L18.2,183.45L18.79,183.42L19.38,176.19L19.96,174.31L20.55,157.74L22.31,141.85L22.9,144.44L23.49,142.91L24.07,134.32L26.42,102.85L27.01,105.89L28.77,132.42L29.36,139.74L30.53,147.46L31.12,144.22L32.29,135.2L32.88,136.23L33.47,137.36L34.05,146L34.64,152.14L35.23,151.08L35.82,149.76L36.4,147.27L36.99,151.95L38.75,164.82L39.34,162.12L39.93,152.46L40.51,157L41.69,165.85L42.27,163.8L42.86,166.16L43.45,164.26L44.04,163.54L44.62,167.93L46.38,191.95L46.97,189.36L47.56,188.34L48.15,183.71L48.73,184.04L49.32,189.41L50.49,198.01L51.08,195.9L55.19,230.24L55.78,228.98L56.95,236.33L57.54,234.6L58.13,232.36L58.71,238.97L59.3,235.54L59.89,238.87L61.06,249.06L61.65,246.96L62.24,247.02L62.82,245.38L64.59,233.91L65.17,234.83L65.76,237.79L66.35,238.14L66.93,237.34L67.52,238.78L68.11,238.36L68.7,238.38L69.87,237.13L70.46,234.25L73.98,253.41L74.57,258.65L75.15,260.56L75.74,266.37L76.92,262.71L77.5,266.65L78.09,268.4L78.68,266.68L79.26,264.17L79.85,269.5L80.44,266.14L81.03,268.86L82.2,264.03L82.79,268.67L85.14,255.51L85.72,247.73L87.48,227.72L88.07,224.62L89.25,214.24L89.83,217.69L91.01,222.68L91.59,223.46L92.18,225.04L92.77,222.58L93.36,222.69L93.94,225.73L95.12,232.59L95.7,229.54L96.88,231.42L97.47,229.75L99.23,238.12L99.81,236.18L101.58,244.12L102.16,250.42L104.51,272.66L105.1,274.69L107.45,258.5L108.03,259.34L108.62,256.09L111.56,248.08L112.14,245.78L113.32,249.95L113.91,251.54L114.49,255.4L115.08,254.32L115.67,254.85L116.25,255.11L116.84,253.23L117.43,247.36L118.02,248.6L118.6,245.22L119.78,249.03L120.36,252.81L120.95,251.13L121.54,253.21L122.71,258.83L123.3,257.67L123.89,257.73L124.47,259.67L125.06,258.82L125.65,259.93L126.24,266.41L126.82,263.35L128,258.31L128.58,258.24L129.17,257.66L129.76,258.93L130.35,257.03L130.93,262.1L132.11,262.43L132.69,264.72L133.87,265.01L134.46,261.06L136.81,251.19L137.39,252.82L138.57,255.78L139.15,256.14L139.74,256.94L140.33,252.23L140.92,250.86L141.5,252.43L142.09,251.11L142.68,253.15L144.44,253.96L145.03,258.18L146.79,269.55L147.37,270.12L148.55,264.34L149.14,260.16L149.72,253.32L150.31,259.09L150.9,251.97L151.48,253.53L152.07,254.56L152.66,250.83L153.25,254.19L154.42,253.28L155.01,249.46L155.59,248.79L156.18,250.58L156.77,253.89L157.36,252.53L157.94,251.94L158.53,257.73L159.7,255.4L160.29,259.94L160.88,257.92L161.47,263.64L162.05,264.41L162.64,263.8L163.81,256.24L164.4,243.91L166.16,213.45L166.75,217.94L167.34,219.6L167.92,208.13L168.51,198.04L169.1,208.01L171.45,260.29L172.03,257.76L172.62,255.92L173.21,259.63L173.8,258.51L174.38,261.65L174.97,262.32L175.56,257.59L176.14,259.55L176.73,254.39L178.49,262.44L179.08,263.5L179.67,265.83L180.25,264.45L182.02,272.32L182.6,278.2L183.78,283.38L184.36,279.77L184.95,283.31L185.54,281.38L186.13,282.86L186.71,279.42L188.47,272.1L189.06,275.43L189.65,273.8L190.24,279.01L190.82,279.17L191.41,277.03L192.58,283.4L193.17,282.04L193.76,286.28L194.35,282.04L194.93,283.73L195.52,282.34L197.28,287.07L197.87,286.81L198.46,284.58L199.04,288.2L199.63,290.3L200.22,288.2L201.39,290.2L201.98,291.42L203.15,292.34L203.74,291.28L204.91,290.96L205.5,293.13L206.09,293.74L206.68,292.7L207.26,290.58L207.85,291.32L209.61,293.59L210.2,292.45L210.79,290.79L211.37,292.62L211.96,292.71L212.55,290.35L213.72,294.07L214.31,292.69L216.66,289.37L217.24,290.4L219.59,283.08L220.18,278.63L220.77,280.27L221.35,276.92L222.53,275.07L223.12,269.69L224.29,273.11L224.88,273.16L226.05,275.88L226.64,274.36L227.23,275.06L227.81,274.26L228.99,270.11L229.57,271.44L230.16,267.7L230.75,268.62L231.34,269.28L231.92,266.83L232.51,270.51L234.27,281.06L234.86,281.53L236.03,281.48L236.62,277.46L237.21,279.64L237.79,278.1L238.38,278.9L238.97,277L239.56,278.79L240.14,275.57L240.73,276.64L241.32,275.16L242.49,273.93L243.08,273.88L243.67,273.33L244.25,268.2L244.84,271.67L245.43,271.36L246.01,273.71L247.19,278.4L247.78,275.81L248.36,277.02L248.95,274.93L249.54,276.74L250.12,268.42L250.71,272.77L251.3,268.5L251.89,265.3L252.47,267.5L254.82,256.15L255.41,246.52L256,254.85L256.58,252.17L257.76,255.02L258.34,254.27L258.93,253.59L259.52,254.37L260.11,255.63L260.69,254.81L261.28,251.73L261.87,255.56L263.04,261.05L263.63,257.2L265.39,217.83L265.98,219.96L267.15,205L267.74,215.88L270.67,251.29L271.26,255.33L272.44,264.7L273.02,261.44L273.61,256.41L274.2,258.18L274.78,259.07L275.37,262.38L277.13,255.05L277.72,253.76L280.07,212.25L280.66,207L281.24,207.62L281.83,212.51L282.42,207.94L283,213.53L284.18,219.64L284.77,215.35L285.35,216.15L285.94,225.19L287.7,251.78L288.29,253.5L288.88,248.79L289.46,250.38L290.64,251.97L291.22,257.19L292.99,260.39L293.57,258.58L295.33,264.24L295.92,110.16L297.1,78.3L297.68,82.42L300.03,129.93L300.62,129.1L301.21,126.45L301.79,130.06L303.55,170.71L304.14,168.24L304.73,153.79L308.84,41.61L309.43,69.64L310.6,87.09L311.19,85.89L311.77,90.09L312.36,101.24L313.54,96.42L314.12,98.24L314.71,100.21L315.3,108.73L316.47,118.1L317.06,133.78L318.82,150.14L319.41,150.35L319.99,153.69L320.58,162.31L324.1,219.7L324.69,224.29L325.28,222.78L325.87,234.29L327.04,226.27L327.63,220.58L328.8,226.18L329.39,228.1L329.98,230.54L330.56,227.3L331.74,236.61L332.32,246.46L333.5,253.69L334.09,256.7L334.67,261.43L335.26,261.27L335.85,259.09L336.43,262.65L337.02,258.06L340.54,199.73L341.13,204.4L341.72,207.2L342.31,206.21L342.89,212.77L343.48,209.29L345.83,234.2L346.42,245.77L348.18,264.44L348.76,260.46L350.53,246.28L351.11,245.17L352.29,239.83L352.87,243.81L354.64,236.33L355.22,237.67L356.98,250.38L357.57,246.65L358.16,251.64L358.75,251.48L359.33,249.46L359.92,248.68L360.51,245.66L361.68,256.79L362.27,253.61L364.03,243.83L364.62,244.63L365.2,244.36L365.79,242.19L368.14,252.63L368.73,261.48L371.66,244.84L372.25,238.98L373.42,240.36L374.01,245.42L374.6,242.41L375.19,247.2L375.77,253.46L376.36,247.98L376.95,241.81L377.53,214.09L378.71,191.41L379.3,198.06L379.88,189.02L380.47,216.21L381.64,255.82L382.23,255.35L382.82,251.72L383.41,255.91L383.99,256.18L384.58,258.36L385.17,260.03L385.75,266.19L386.34,269.5L386.93,278.43L387.52,275.48L388.1,277.98L388.69,278.48L389.28,276.51L389.86,276.79L390.45,279.03L391.04,279.11L391.63,281.57L393.39,284.85L393.97,284.17L394.56,283.98L395.15,289.46L395.74,289L396.32,291.33L396.91,288.77L397.5,292.69L398.67,291.08L399.26,293.14L399.85,293.5L400.43,291.01L401.02,291.84L401.61,294.4L402.78,289.69L403.37,289.75L403.96,287.86L404.54,279.55L405.13,277.76L405.72,272.51L406.89,268.03L407.48,261.95L408.65,269.38L409.24,265.35L411,261.33L411.59,265.32L413.35,278.57L413.94,275.99L415.7,266.89L416.29,266.55L416.87,264.39L417.46,265.26L418.05,264.77L418.64,267.84L419.22,274.57L419.81,269.88L422.16,252.08L422.75,243.85L423.33,247.83L423.92,239.93L426.27,254.76L426.86,235.9L428.03,206.7L428.62,218.53L429.2,223.44L429.79,217.8L431.55,254.44L432.14,255.3L433.31,250.72L433.9,238.39L436.25,206.31L436.84,207.08L437.42,201.34L438.01,208.94L438.6,215.95L439.19,234.71L439.77,246.23L440.36,244.75L440.95,247.35L442.12,252.89L442.71,78.68L443.3,65.24L443.88,69.37L445.06,91.47L445.64,103.36L446.82,123.46L447.41,141.51L447.99,132.36L448.58,110.16L450.93,16.5L451.52,22.97L453.28,58.95L453.86,59.98L455.04,59.56L455.63,72.83L457.39,111.83L457.97,116.28L459.15,147.42L459.74,168.48L461.5,210.07L462.08,210.86L462.67,215.52L463.26,212.18L463.85,206.19L464.43,214.09L466.78,240.49L467.37,249.97L467.96,250.14L468.54,254.7L469.72,241.77L470.3,228.42L472.07,191.36L472.65,195.06L473.24,192.31L473.83,200.02L475.59,232.12L476.18,241.69L477.35,254.92L477.94,251.59L479.7,237.11L480.29,229.78L481.46,232.91L482.05,231.17L483.22,239.7L483.81,243.19L484.4,242.67L484.98,245.17L485.57,244.04L486.16,246.84L486.74,247.1L487.33,245.13L487.92,240.2L488.51,240.36L489.09,243.35L489.68,247.26L490.27,246.93L490.85,249.92L491.44,250.67L492.03,244.61L493.2,235.28L493.79,237.03L494.38,238.21L494.96,242.4L495.55,244.5L496.14,220.58L497.31,197.56L497.9,196.6L498.49,196.95L499.07,220.07L500.25,251.53L500.84,253.9L502.01,260.44L502.6,265.98L504.36,279.42L504.95,278.74L505.53,275.06L506.12,277.61L507.29,282.88L507.88,283.1L509.06,290L509.64,288.59L510.23,293.15L510.82,292.72L511.4,293.16L511.99,293.32L512.58,295.22L513.75,289.84L514.34,282.95L516.69,259.48L517.28,259.65L517.86,259.64L518.45,255.58L519.04,259.77L520.8,276.5L521.39,263.9L521.97,260.63L522.56,260.94L523.15,261.48L523.73,261.08L524.32,262.22L524.91,264.24L525.5,252.3L526.67,244.97L527.26,235.77L528.43,240.2L529.02,230.49L530.19,205.75L530.78,217.09L531.95,222.07L532.54,244.78L533.13,251.98L533.72,239.24L534.89,221.91L535.48,218.63L536.65,192.34L537.24,203.14L539,243.6" style="vector-effect: non-scaling-stroke; fill: none; stroke: rgb(31, 119, 180); stroke-opacity: 1; stroke-width: 2px; opacity: 1;"/><g class="points"/></g><g class="trace scatter trace865378" style="stroke-miterlimit: 2; opacity: 1;"><path class="js-line" d="M0,313.5L539,313.5" style="vector-effect: non-scaling-stroke; fill: none; stroke: rgb(255, 127, 14); stroke-opacity: 1; stroke-width: 2px; opacity: 1;"/><g class="points"/></g></g></g><g class="overplot"/><path class="xlines crisp" transform="translate(60,60)" d="M-1,330.5h541" style="fill: none; stroke-width: 1px; stroke: rgb(0, 0, 0); stroke-opacity: 0;"/><path class="ylines crisp" transform="translate(60,60)" d="M-0.5,-1v331" stroke-width="1px" style="fill: none; stroke: rgb(0, 0, 0); stroke-opacity: 0;"/><g class="overlines"/><g class="xaxislayer" transform="translate(60,60)"><g class="xtick" data-bb="6868"><text text-anchor="middle" x="0" y="344" transform="translate(116.84,0)" style="font-family: 'Open Sans', verdana, arial, sans-serif; font-size: 12px; fill: rgb(68, 68, 68); fill-opacity: 1; visibility: visible; white-space: pre;" data-bb="6863">200</text></g><g class="xtick" data-bb="6869"><text text-anchor="middle" x="0" y="344" transform="translate(234.27,0)" style="font-family: 'Open Sans', verdana, arial, sans-serif; font-size: 12px; fill: rgb(68, 68, 68); fill-opacity: 1; visibility: visible; white-space: pre;" data-bb="6864">400</text></g><g class="xtick" data-bb="6870"><text text-anchor="middle" x="0" y="344" transform="translate(351.7,0)" style="font-family: 'Open Sans', verdana, arial, sans-serif; font-size: 12px; fill: rgb(68, 68, 68); fill-opacity: 1; visibility: visible; white-space: pre;" data-bb="6865">600</text></g><g class="xtick" data-bb="6871"><text text-anchor="middle" x="0" y="344" transform="translate(469.13,0)" style="font-family: 'Open Sans', verdana, arial, sans-serif; font-size: 12px; fill: rgb(68, 68, 68); fill-opacity: 1; visibility: visible; white-space: pre;" data-bb="6866">800</text></g></g><g class="yaxislayer" transform="translate(60,60)"><g class="ytick" data-bb="6873"><text text-anchor="end" x="-2" y="6" transform="translate(0,313.5)" style="font-family: 'Open Sans', verdana, arial, sans-serif; font-size: 12px; fill: rgb(68, 68, 68); fill-opacity: 1; visibility: visible; white-space: pre;">0</text></g><g class="ytick" data-bb="6874"><text text-anchor="end" x="-2" y="6" transform="translate(0,247.01)" style="font-family: 'Open Sans', verdana, arial, sans-serif; font-size: 12px; fill: rgb(68, 68, 68); fill-opacity: 1; visibility: visible; white-space: pre;">500</text></g><g class="ytick" data-bb="6875"><text text-anchor="end" x="-2" y="6" transform="translate(0,180.52)" style="font-family: 'Open Sans', verdana, arial, sans-serif; font-size: 12px; fill: rgb(68, 68, 68); fill-opacity: 1; visibility: visible; white-space: pre;">1000</text></g><g class="ytick" data-bb="6876"><text text-anchor="end" x="-2" y="6" transform="translate(0,114.03)" style="font-family: 'Open Sans', verdana, arial, sans-serif; font-size: 12px; fill: rgb(68, 68, 68); fill-opacity: 1; visibility: visible; white-space: pre;">1500</text></g><g class="ytick" data-bb="6877"><text text-anchor="end" x="-2" y="6" transform="translate(0,47.54)" style="font-family: 'Open Sans', verdana, arial, sans-serif; font-size: 12px; fill: rgb(68, 68, 68); fill-opacity: 1; visibility: visible; white-space: pre;">2000</text></g></g><g class="overaxes"/></g></g><g class="ternarylayer"/><g class="geolayer"/><g class="layer-above"><g class="imagelayer"/><g class="shapelayer"/></g><g class="pielayer"/><g class="glimages"/><defs id="topdefs-072201"><clipPath id="legend072201"><rect width="78" height="48" x="0" y="0"/></clipPath></defs><g class="infolayer"><g class="g-gtitle"><text class="gtitle" x="350" y="30" text-anchor="middle" style="font-family: 'Open Sans', verdana, arial, sans-serif; font-size: 17px; fill: rgb(68, 68, 68); opacity: 1; font-weight: normal; white-space: pre; visibility: visible;">avenue: video_08</text></g><g class="g-xtitle" data-bb="6867"><text class="xtitle" x="329.5" y="442" text-anchor="middle" style="font-family: 'Open Sans', verdana, arial, sans-serif; font-size: 14px; fill: rgb(68, 68, 68); opacity: 1; font-weight: normal; white-space: pre; visibility: visible;">sample index</text></g><g class="g-ytitle" data-bb="6872" transform="translate(-1,0)"><text class="ytitle" transform="rotate(-90,22,225) translate(0, 0)" x="22" y="225" text-anchor="middle" style="font-family: 'Open Sans', verdana, arial, sans-serif; font-size: 14px; fill: rgb(68, 68, 68); opacity: 1; font-weight: normal; white-space: pre; visibility: visible;">reconstruction cost</text></g><g class="legend" pointer-events="all" transform="translate(609.78, 60)"><rect class="bg" shape-rendering="crispEdges" style="stroke: rgb(68, 68, 68); stroke-opacity: 1; fill: rgb(255, 255, 255); fill-opacity: 1; stroke-width: 0px;" width="78" height="48" x="0" y="0"/><g class="scrollbox" transform="translate(0, 0)" clip-path="url(#legend072201)"><g class="groups"><g class="traces" transform="translate(0, 14.5)" style="opacity: 1;"><g class="layers" style="opacity: 1;"><g class="legendfill"/><g class="legendlines"><path class="js-line" d="M5,0h30" style="fill: none; stroke: rgb(31, 119, 180); stroke-opacity: 1; stroke-width: 2px;"/></g><g class="legendsymbols"><g class="legendpoints"/></g></g><text class="legendtext user-select-none" x="40" y="4.680000000000001" style="text-anchor: start; font-family: 'Open Sans', verdana, arial, sans-serif; font-size: 12px; fill: rgb(68, 68, 68); fill-opacity: 1; white-space: pre; visibility: visible;" data-bb="6878">recon</text><rect class="legendtoggle" pointer-events="all" style="cursor: pointer; fill: rgb(0, 0, 0); fill-opacity: 0;" x="0" y="-9.5" width="118" height="19"/></g><g class="traces" transform="translate(0, 33.5)" style="opacity: 1;"><g class="layers" style="opacity: 1;"><g class="legendfill"/><g class="legendlines"><path class="js-line" d="M5,0h30" style="fill: none; stroke: rgb(255, 127, 14); stroke-opacity: 1; stroke-width: 2px;"/></g><g class="legendsymbols"><g class="legendpoints"/></g></g><text class="legendtext user-select-none" x="40" y="4.680000000000001" style="text-anchor: start; font-family: 'Open Sans', verdana, arial, sans-serif; font-size: 12px; fill: rgb(68, 68, 68); fill-opacity: 1; white-space: pre; visibility: visible;" data-bb="6879">zero</text><rect class="legendtoggle" pointer-events="all" x="0" y="-9.5" width="118" height="19" style="cursor: pointer; fill: rgb(0, 0, 0); fill-opacity: 0;"/></g></g></g><rect class="scrollbar" rx="20" ry="2" width="0" height="0" style="fill: rgb(128, 139, 164); fill-opacity: 1;"/></g></g></svg>