<svg class="main-svg" xmlns="http://www.w3.org/2000/svg" xmlns:xlink="http://www.w3.org/1999/xlink" width="700" height="450"><rect x="0" y="0" width="700" height="450" style="fill: rgb(255, 255, 255); fill-opacity: 1;"/><defs id="defs-c15769"><g class="clips"><clipPath class="axesclip" id="clipc15769x"><rect x="60" y="0" width="539" height="450"/></clipPath><clipPath class="axesclip" id="clipc15769y"><rect x="0" y="60" width="700" height="330"/></clipPath><clipPath class="axesclip" id="clipc15769xy"><rect x="60" y="60" width="539" height="330"/></clipPath><clipPath class="plotclip" id="clipc15769xyplot"><rect width="539" height="330"/></clipPath></g></defs><g class="bglayer"><rect class="bg" x="60" y="60" width="539" height="330" style="fill: rgb(255, 255, 255); fill-opacity: 1; stroke-width: 0;"/></g><g class="layer-below"><g class="imagelayer"/><g class="shapelayer"/></g><g class="cartesianlayer"><g class="subplot xy"><g class="layer-subplot"><g class="shapelayer"/><g class="imagelayer"/></g><g class="gridlayer" transform="translate(60,60)"><path class="xgrid crisp" d="M0,0v330" transform="translate(82.02,0)" style="stroke: rgb(238, 238, 238); stroke-opacity: 1; stroke-width: 1px;"/><path class="xgrid crisp" d="M0,0v330" transform="translate(165.72,0)" style="stroke: rgb(238, 238, 238); stroke-opacity: 1; stroke-width: 1px;"/><path class="xgrid crisp" d="M0,0v330" transform="translate(249.41,0)" style="stroke: rgb(238, 238, 238); stroke-opacity: 1; stroke-width: 1px;"/><path class="xgrid crisp" d="M0,0v330" transform="translate(333.11,0)" style="stroke: rgb(238, 238, 238); stroke-opacity: 1; stroke-width: 1px;"/><path class="xgrid crisp" d="M0,0v330" transform="translate(416.8,0)" style="stroke: rgb(238, 238, 238); stroke-opacity: 1; stroke-width: 1px;"/><path class="xgrid crisp" d="M0,0v330" transform="translate(500.5,0)" style="stroke: rgb(238, 238, 238); stroke-opacity: 1; stroke-width: 1px;"/><path class="ygrid crisp" d="M0,0h539" transform="translate(0,266.59)" style="stroke: rgb(238, 238, 238); stroke-opacity: 1; stroke-width: 1px;"/><path class="ygrid crisp" d="M0,0h539" transform="translate(0,219.67)" style="stroke: rgb(238, 238, 238); stroke-opacity: 1; stroke-width: 1px;"/><path class="ygrid crisp" d="M0,0h539" transform="translate(0,172.76)" style="stroke: rgb(238, 238, 238); stroke-opacity: 1; stroke-width: 1px;"/><path class="ygrid crisp" d="M0,0h539" transform="translate(0,125.84)" style="stroke: rgb(238, 238, 238); stroke-opacity: 1; stroke-width: 1px;"/><path class="ygrid crisp" d="M0,0h539" transform="translate(0,78.93)" style="stroke: rgb(238, 238, 238); stroke-opacity: 1; stroke-width: 1px;"/><path class="ygrid crisp" d="M0,0h539" transform="translate(0,32.01)" style="stroke: rgb(238, 238, 238); stroke-opacity: 1; stroke-width: 1px;"/></g><g class="overgrid"/><g class="zerolinelayer" transform="translate(60,60)"><path class="yzl zl crisp" d="M0,0h539" transform="translate(0,313.5)" style="stroke: rgb(68, 68, 68); stroke-opacity: 1; stroke-width: 1px;"/></g><g class="overzero"/><g class="plot" transform="translate(60, 60)" clip-path="url(#clipc15769xyplot)"><g class="imagelayer"/><g class="maplayer"/><g class="barlayer"/><g class="carpetlayer"/><g class="boxlayer"/><g class="scatterlayer"><g class="trace scatter trace086763" style="stroke-miterlimit: 2; opacity: 1;"><path class="js-line" d="M0,74.2L1.67,73.09L3.35,68.41L5.02,85.41L6.7,89.16L8.37,90.43L10.04,89.38L11.72,86.17L13.39,79.44L15.07,69.53L16.74,72.96L18.41,63.1L20.09,64.07L23.43,73.79L25.11,63.46L26.78,81.22L28.46,81L30.13,84.77L31.8,86.44L33.48,92.11L35.15,89.59L36.83,108.68L38.5,112.99L40.17,122.4L41.85,127.57L43.52,134.79L45.2,137.07L48.54,149.65L50.22,149.79L55.24,138.42L56.91,143.11L58.59,144.14L60.26,139.44L61.93,141.36L63.61,136.99L65.28,132.79L66.96,117.52L68.63,113.69L70.3,117.23L71.98,118.15L73.65,104.95L75.33,115.63L77,118.7L78.67,119.22L80.35,125.22L82.02,128.74L83.7,134.91L85.37,125.94L87.04,127.7L88.72,128.53L90.39,126.1L92.07,136.26L93.74,137.76L95.41,156.13L97.09,159.4L98.76,157.3L100.43,149.25L102.11,157.77L103.78,155L105.46,170.33L107.13,172.19L110.48,170.3L112.15,170.55L113.83,170.7L115.5,138.73L118.85,152.13L120.52,150.03L122.2,162.97L123.87,163.12L125.54,182.77L127.22,184.09L128.89,183.39L130.57,186.62L132.24,187.05L133.91,181.36L135.59,187.53L137.26,178.1L138.93,177.9L140.61,179.13L142.28,186.54L143.96,180.69L145.63,191.4L147.3,187.88L148.98,184.36L150.65,183.25L152.33,183.26L154,177.83L155.67,190.66L157.35,186.43L159.02,192.46L160.7,169.32L162.37,176.01L164.04,169.04L165.72,164.1L167.39,149.93L170.74,174.95L172.41,173.71L174.09,180.83L175.76,177.65L177.43,184.1L179.11,187.49L180.78,191.03L182.46,179.6L184.13,172.9L185.8,169.34L187.48,164.57L189.15,156.67L190.83,147.72L192.5,150.44L194.17,149.79L195.85,147.33L197.52,141.28L199.2,151.07L200.87,145L202.54,147.03L204.22,129.24L205.89,130.91L207.57,127.55L209.24,137.26L210.91,131.04L212.59,143.62L214.26,152.02L215.93,147.51L217.61,141.76L219.28,124.09L220.96,119.38L222.63,122.17L224.3,111.22L225.98,107.94L229.33,115L231,125.49L234.35,118.43L236.02,106.93L237.7,115.94L239.37,116.34L241.04,116.43L242.72,109.73L244.39,110.52L246.07,115.38L247.74,137.44L249.41,146.11L251.09,163.04L252.76,164.54L254.43,148.8L256.11,152.48L257.78,154.64L259.46,169.23L261.13,167.03L262.8,158.64L264.48,159.23L266.15,143.28L267.83,147.4L269.5,142.68L271.17,152.8L272.85,155L274.52,157.22L276.2,157.27L277.87,151.72L279.54,150.95L281.22,149.12L282.89,135.64L284.57,134L286.24,137.2L291.26,164.01L292.93,166.75L294.61,163.25L296.28,163.6L297.96,153.81L299.63,64.31L301.3,61.22L302.98,47.21L306.33,48.17L308,38.63L311.35,56.65L313.02,59.75L318.04,100.9L319.72,112.81L321.39,124.59L323.07,128.85L324.74,120.55L326.41,118.74L328.09,129.89L329.76,105.14L333.11,89.31L334.78,92.63L336.46,95.22L338.13,107.29L339.8,103.18L341.48,108.26L344.83,126.54L346.5,132.07L348.17,145.28L349.85,151.57L351.52,158.09L353.2,153.4L354.87,151.25L356.54,153.29L359.89,160.21L361.57,166.12L363.24,175.55L364.91,173.09L366.59,177.18L368.26,175.28L369.93,182.31L371.61,182.64L373.28,189.18L374.96,185.22L379.98,161.34L381.65,158.75L383.33,155.01L385,169.86L386.67,168.57L388.35,171.67L390.02,165.23L391.7,153.44L393.37,140.61L395.04,139.27L396.72,134.9L398.39,134.77L400.07,130.52L401.74,133.84L403.41,117.41L405.09,115.19L406.76,113.51L408.43,108.73L410.11,107.34L411.78,101.47L413.46,93.59L415.13,98.32L416.8,81.44L418.48,88.08L420.15,114.05L421.83,124.68L423.5,127.67L425.17,138.48L428.52,146.19L430.2,133.4L431.87,128.25L433.54,139.35L435.22,135.01L436.89,135.17L438.57,122.12L440.24,122.52L441.91,134.93L443.59,141.36L445.26,52.41L446.93,42.43L450.28,16.5L451.96,33.33L456.98,92.55L458.65,105.06L460.33,113.95L462,110.81L467.02,77.75L468.7,82.47L472.04,101.35L473.72,117.37L477.07,144.32L478.74,137.93L480.41,147.05L482.09,146.47L483.76,150.09L485.43,160.11L487.11,161.34L488.78,165.45L490.46,165.54L492.13,171.54L493.8,171.18L495.48,165.82L497.15,158.97L498.83,156.38L500.5,154.43L502.17,161.33L503.85,159.88L505.52,141.31L507.2,134.27L508.87,135.26L510.54,133.04L512.22,123.78L513.89,110.37L515.57,84.36L517.24,94.93L518.91,93.48L520.59,71.99L522.26,84.23L523.93,85.62L525.61,106.33L530.63,130.37L532.3,118.32L533.98,125.56L535.65,113.04L537.33,113.37L539,115.47" style="vector-effect: non-scaling-stroke; fill: none; stroke: rgb(31, 119, 180); stroke-opacity: 1; stroke-width: 2px; opacity: 1;"/><g class="points"/></g><g class="trace scatter trace814d47" style="stroke-miterlimit: 2; opacity: 1;"><path class="js-line" d="M0,313.5L539,313.5" style="vector-effect: non-scaling-stroke; fill: none; stroke: rgb(255, 127, 14); stroke-opacity: 1; stroke-width: 2px; opacity: 1;"/><g class="points"/></g></g></g><g class="overplot"/><path class="xlines crisp" transform="translate(60,60)" d="M-1,330.5h541" style="fill: none; stroke-width: 1px; stroke: rgb(0, 0, 0); stroke-opacity: 0;"/><path class="ylines crisp" transform="translate(60,60)" d="M-0.5,-1v331" stroke-width="1px" style="fill: none; stroke: rgb(0, 0, 0); stroke-opacity: 0;"/><g class="overlines"/><g class="xaxislayer" transform="translate(60,60)"><g class="xtick" data-bb="7088"><text text-anchor="middle" x="0" y="344" transform="translate(82.02,0)" style="font-family: 'Open Sans', verdana, arial, sans-serif; font-size: 12px; fill: rgb(68, 68, 68); fill-opacity: 1; visibility: visible; white-space: pre;" data-bb="7081">50</text></g><g class="xtick" data-bb="7089"><text text-anchor="middle" x="0" y="344" transform="translate(165.72,0)" style="font-family: 'Open Sans', verdana, arial, sans-serif; font-size: 12px; fill: rgb(68, 68, 68); fill-opacity: 1; visibility: visible; white-space: pre;" data-bb="7082">100</text></g><g class="xtick" data-bb="7090"><text text-anchor="middle" x="0" y="344" transform="translate(249.41,0)" style="font-family: 'Open Sans', verdana, arial, sans-serif; font-size: 12px; fill: rgb(68, 68, 68); fill-opacity: 1; visibility: visible; white-space: pre;" data-bb="7083">150</text></g><g class="xtick" data-bb="7091"><text text-anchor="middle" x="0" y="344" transform="translate(333.11,0)" style="font-family: 'Open Sans', verdana, arial, sans-serif; font-size: 12px; fill: rgb(68, 68, 68); fill-opacity: 1; visibility: visible; white-space: pre;" data-bb="7084">200</text></g><g class="xtick" data-bb="7092"><text text-anchor="middle" x="0" y="344" transform="translate(416.8,0)" style="font-family: 'Open Sans', verdana, arial, sans-serif; font-size: 12px; fill: rgb(68, 68, 68); fill-opacity: 1; visibility: visible; white-space: pre;" data-bb="7085">250</text></g><g class="xtick" data-bb="7093"><text text-anchor="middle" x="0" y="344" transform="translate(500.5,0)" style="font-family: 'Open Sans', verdana, arial, sans-serif; font-size: 12px; fill: rgb(68, 68, 68); fill-opacity: 1; visibility: visible; white-space: pre;" data-bb="7086">300</text></g></g><g class="yaxislayer" transform="translate(60,60)"><g class="ytick" data-bb="7095"><text text-anchor="end" x="-2" y="6" transform="translate(0,313.5)" style="font-family: 'Open Sans', verdana, arial, sans-serif; font-size: 12px; fill: rgb(68, 68, 68); fill-opacity: 1; visibility: visible; white-space: pre;">0</text></g><g class="ytick" data-bb="7096"><text text-anchor="end" x="-2" y="6" transform="translate(0,266.59)" style="font-family: 'Open Sans', verdana, arial, sans-serif; font-size: 12px; fill: rgb(68, 68, 68); fill-opacity: 1; visibility: visible; white-space: pre;">200</text></g><g class="ytick" data-bb="7097"><text text-anchor="end" x="-2" y="6" transform="translate(0,219.67)" style="font-family: 'Open Sans', verdana, arial, sans-serif; font-size: 12px; fill: rgb(68, 68, 68); fill-opacity: 1; visibility: visible; white-space: pre;">400</text></g><g class="ytick" data-bb="7098"><text text-anchor="end" x="-2" y="6" transform="translate(0,172.76)" style="font-family: 'Open Sans', verdana, arial, sans-serif; font-size: 12px; fill: rgb(68, 68, 68); fill-opacity: 1; visibility: visible; white-space: pre;">600</text></g><g class="ytick" data-bb="7099"><text text-anchor="end" x="-2" y="6" transform="translate(0,125.84)" style="font-family: 'Open Sans', verdana, arial, sans-serif; font-size: 12px; fill: rgb(68, 68, 68); fill-opacity: 1; visibility: visible; white-space: pre;">800</text></g><g class="ytick" data-bb="7100"><text text-anchor="end" x="-2" y="6" transform="translate(0,78.93)" style="font-family: 'Open Sans', verdana, arial, sans-serif; font-size: 12px; fill: rgb(68, 68, 68); fill-opacity: 1; visibility: visible; white-space: pre;">1000</text></g><g class="ytick" data-bb="7101"><text text-anchor="end" x="-2" y="6" transform="translate(0,32.01)" style="font-family: 'Open Sans', verdana, arial, sans-serif; font-size: 12px; fill: rgb(68, 68, 68); fill-opacity: 1; visibility: visible; white-space: pre;">1200</text></g></g><g class="overaxes"/></g></g><g class="ternarylayer"/><g class="geolayer"/><g class="layer-above"><g class="imagelayer"/><g class="shapelayer"/></g><g class="pielayer"/><g class="glimages"/><defs id="topdefs-c15769"><clipPath id="legendc15769"><rect width="78" height="48" x="0" y="0"/></clipPath></defs><g class="infolayer"><g class="g-gtitle"><text class="gtitle" x="350" y="30" text-anchor="middle" style="font-family: 'Open Sans', verdana, arial, sans-serif; font-size: 17px; fill: rgb(68, 68, 68); opacity: 1; font-weight: normal; white-space: pre; visibility: visible;">avenue: video_13</text></g><g class="g-xtitle" data-bb="7087"><text class="xtitle" x="329.5" y="442" text-anchor="middle" style="font-family: 'Open Sans', verdana, arial, sans-serif; font-size: 14px; fill: rgb(68, 68, 68); opacity: 1; font-weight: normal; white-space: pre; visibility: visible;">sample index</text></g><g class="g-ytitle" data-bb="7094"><text class="ytitle" transform="rotate(-90,22,225) translate(0, 0)" x="22" y="225" text-anchor="middle" style="font-family: 'Open Sans', verdana, arial, sans-serif; font-size: 14px; fill: rgb(68, 68, 68); opacity: 1; font-weight: normal; white-space: pre; visibility: visible;">reconstruction cost</text></g><g class="legend" pointer-events="all" transform="translate(609.78, 60)"><rect class="bg" shape-rendering="crispEdges" style="stroke: rgb(68, 68, 68); stroke-opacity: 1; fill: rgb(255, 255, 255); fill-opacity: 1; stroke-width: 0px;" width="78" height="48" x="0" y="0"/><g class="scrollbox" transform="translate(0, 0)" clip-path="url(#legendc15769)"><g class="groups"><g class="traces" transform="translate(0, 14.5)" style="opacity: 1;"><g class="layers" style="opacity: 1;"><g class="legendfill"/><g class="legendlines"><path class="js-line" d="M5,0h30" style="fill: none; stroke: rgb(31, 119, 180); stroke-opacity: 1; stroke-width: 2px;"/></g><g class="legendsymbols"><g class="legendpoints"/></g></g><text class="legendtext user-select-none" x="40" y="4.680000000000001" style="text-anchor: start; font-family: 'Open Sans', verdana, arial, sans-serif; font-size: 12px; fill: rgb(68, 68, 68); fill-opacity: 1; white-space: pre; visibility: visible;" data-bb="7102">recon</text><rect class="legendtoggle" pointer-events="all" style="cursor: pointer; fill: rgb(0, 0, 0); fill-opacity: 0;" x="0" y="-9.5" width="118" height="19"/></g><g class="traces" transform="translate(0, 33.5)" style="opacity: 1;"><g class="layers" style="opacity: 1;"><g class="legendfill"/><g class="legendlines"><path class="js-line" d="M5,0h30" style="fill: none; stroke: rgb(255, 127, 14); stroke-opacity: 1; stroke-width: 2px;"/></g><g class="legendsymbols"><g class="legendpoints"/></g></g><text class="legendtext user-select-none" x="40" y="4.680000000000001" style="text-anchor: start; font-family: 'Open Sans', verdana, arial, sans-serif; font-size: 12px; fill: rgb(68, 68, 68); fill-opacity: 1; white-space: pre; visibility: visible;" data-bb="7103">zero</text><rect class="legendtoggle" pointer-events="all" x="0" y="-9.5" width="118" height="19" style="cursor: pointer; fill: rgb(0, 0, 0); fill-opacity: 0;"/></g></g></g><rect class="scrollbar" rx="20" ry="2" width="0" height="0" style="fill: rgb(128, 139, 164); fill-opacity: 1;"/></g></g></svg>