<svg class="main-svg" xmlns="http://www.w3.org/2000/svg" xmlns:xlink="http://www.w3.org/1999/xlink" width="700" height="450"><rect x="0" y="0" width="700" height="450" style="fill: rgb(255, 255, 255); fill-opacity: 1;"/><defs id="defs-49cc23"><g class="clips"><clipPath class="axesclip" id="clip49cc23x"><rect x="60" y="0" width="539" height="450"/></clipPath><clipPath class="axesclip" id="clip49cc23y"><rect x="0" y="60" width="700" height="330"/></clipPath><clipPath class="axesclip" id="clip49cc23xy"><rect x="60" y="60" width="539" height="330"/></clipPath><clipPath class="plotclip" id="clip49cc23xyplot"><rect width="539" height="330"/></clipPath></g></defs><g class="bglayer"><rect class="bg" x="60" y="60" width="539" height="330" style="fill: rgb(255, 255, 255); fill-opacity: 1; stroke-width: 0;"/></g><g class="layer-below"><g class="imagelayer"/><g class="shapelayer"/></g><g class="cartesianlayer"><g class="subplot xy"><g class="layer-subplot"><g class="shapelayer"/><g class="imagelayer"/></g><g class="gridlayer" transform="translate(60,60)"><path class="xgrid crisp" d="M0,0v330" transform="translate(76.01,0)" style="stroke: rgb(238, 238, 238); stroke-opacity: 1; stroke-width: 1px;"/><path class="xgrid crisp" d="M0,0v330" transform="translate(152.79,0)" style="stroke: rgb(238, 238, 238); stroke-opacity: 1; stroke-width: 1px;"/><path class="xgrid crisp" d="M0,0v330" transform="translate(229.57,0)" style="stroke: rgb(238, 238, 238); stroke-opacity: 1; stroke-width: 1px;"/><path class="xgrid crisp" d="M0,0v330" transform="translate(306.35,0)" style="stroke: rgb(238, 238, 238); stroke-opacity: 1; stroke-width: 1px;"/><path class="xgrid crisp" d="M0,0v330" transform="translate(383.14,0)" style="stroke: rgb(238, 238, 238); stroke-opacity: 1; stroke-width: 1px;"/><path class="xgrid crisp" d="M0,0v330" transform="translate(459.92,0)" style="stroke: rgb(238, 238, 238); stroke-opacity: 1; stroke-width: 1px;"/><path class="xgrid crisp" d="M0,0v330" transform="translate(536.7,0)" style="stroke: rgb(238, 238, 238); stroke-opacity: 1; stroke-width: 1px;"/><path class="ygrid crisp" d="M0,0h539" transform="translate(0,244.06)" style="stroke: rgb(238, 238, 238); stroke-opacity: 1; stroke-width: 1px;"/><path class="ygrid crisp" d="M0,0h539" transform="translate(0,174.62)" style="stroke: rgb(238, 238, 238); stroke-opacity: 1; stroke-width: 1px;"/><path class="ygrid crisp" d="M0,0h539" transform="translate(0,105.19)" style="stroke: rgb(238, 238, 238); stroke-opacity: 1; stroke-width: 1px;"/><path class="ygrid crisp" d="M0,0h539" transform="translate(0,35.75)" style="stroke: rgb(238, 238, 238); stroke-opacity: 1; stroke-width: 1px;"/></g><g class="overgrid"/><g class="zerolinelayer" transform="translate(60,60)"><path class="yzl zl crisp" d="M0,0h539" transform="translate(0,313.5)" style="stroke: rgb(68, 68, 68); stroke-opacity: 1; stroke-width: 1px;"/></g><g class="overzero"/><g class="plot" transform="translate(60, 60)" clip-path="url(#clip49cc23xyplot)"><g class="imagelayer"/><g class="maplayer"/><g class="barlayer"/><g class="carpetlayer"/><g class="boxlayer"/><g class="scatterlayer"><g class="trace scatter trace220561" style="stroke-miterlimit: 2; opacity: 1;"><path class="js-line" d="M0,133.92L1.54,116.87L2.3,133.91L3.07,154.42L3.84,153.69L4.61,139.7L5.37,140.1L6.14,143.47L6.91,131.01L8.45,115.76L9.21,120.07L9.98,112.55L10.75,116.33L13.05,135.33L13.82,135.18L14.59,138.55L15.36,134.29L16.12,133.94L16.89,132.29L17.66,130.83L18.43,136.52L19.2,135.15L19.96,145.87L22.27,112.79L23.03,105.25L23.8,96.12L24.57,96.04L25.34,103.35L26.11,122L26.87,123.16L27.64,127.43L29.18,110.71L29.94,113.71L31.48,104.47L32.25,108.54L33.02,108.04L33.78,106.23L36.85,155.61L37.62,146.2L38.39,133.63L39.16,136.02L39.93,138.41L40.69,121.49L41.46,137.35L42.23,131.94L43.76,127.86L44.53,146.12L46.07,150.62L46.84,150.53L47.6,150.09L48.37,157.31L49.14,145.98L49.91,154.6L51.44,132.87L52.21,131.97L52.98,127.57L53.75,128.37L55.28,141.47L56.05,136.81L56.82,123.76L57.59,127.93L59.89,78.69L60.66,72.06L61.42,73.68L62.19,88.18L62.96,92.46L63.73,103.2L64.5,96.3L65.26,79.51L66.03,78.82L66.8,77.02L69.1,84.76L69.87,102.37L70.64,102.5L71.41,118.51L72.17,125.71L72.94,115.92L74.48,105.11L75.25,106.6L76.01,94.91L76.78,104.68L79.08,94.3L79.85,96.66L81.39,91.42L82.16,90.48L82.92,85.88L83.69,86.98L84.46,93.65L85.23,90.76L85.99,94.01L86.76,91.33L88.3,103.81L89.07,108.42L89.83,118.48L90.6,118.18L91.37,109.38L92.14,116.95L94.44,104.48L95.21,91.95L95.98,99.52L96.74,96.21L99.05,119.25L99.81,115.91L100.58,117.73L101.35,106.98L102.12,119.08L102.89,107.5L104.42,92.97L105.19,94.74L105.96,97.04L106.73,103.16L108.26,107.85L109.03,120.51L109.8,129.28L110.56,111.03L111.33,141.78L112.1,124.28L112.87,129.94L113.64,122.9L114.4,112.67L115.17,117.48L117.47,134.09L118.24,126.55L119.01,140.89L119.78,140.3L120.55,145.79L121.31,145.31L122.08,144.3L122.85,138.62L125.15,155.54L125.92,153.08L126.69,161.61L127.46,160.32L128.99,174.3L129.76,167.58L130.53,169.65L131.29,166.3L132.06,172.33L132.83,155.61L133.6,158.85L134.37,168.44L135.9,182.12L136.67,186.08L137.44,183.82L138.21,184.06L140.51,166L141.28,174.49L142.04,161.82L142.81,163.39L143.58,161.64L144.35,151.6L145.12,157.75L145.88,175.59L146.65,171.93L147.42,174.98L148.95,168.86L149.72,147.03L150.49,164.82L151.26,151.42L152.03,149.83L152.79,143.93L154.33,140.05L155.1,141.98L156.63,153.37L157.4,159.42L158.17,159.66L158.94,168.94L159.7,162.15L160.47,169.04L162.01,160.91L162.77,161.37L163.54,162.43L164.31,161.01L165.08,164.84L165.85,157.88L167.38,139.06L168.15,144.69L168.92,139.12L169.69,146.12L171.22,148.32L171.99,141.74L173.52,160.58L174.29,159.42L175.83,168.02L176.6,156.24L177.36,157.98L178.13,143.74L178.9,152.06L179.67,151.07L181.2,162.61L181.97,151.32L182.74,159.13L183.51,151.19L184.27,148.78L185.04,153.1L185.81,153.93L186.58,137.88L187.34,123.79L188.11,129.65L188.88,122.37L189.65,133.39L190.42,130.39L191.18,134.1L191.95,130.7L192.72,131.35L193.49,123.94L194.25,132.61L195.79,123.84L196.56,121.66L198.09,144.45L198.86,130.04L200.4,161.86L201.17,169.62L201.93,177.19L202.7,177.22L203.47,178.89L204.24,178.66L205,178.83L205.77,172.15L206.54,173.94L207.31,167.26L208.84,175.77L209.61,178.36L210.38,174.37L211.15,185.05L211.91,190.67L212.68,183.06L213.45,181.85L214.22,185.31L214.99,180.17L215.75,185.7L216.52,181.27L217.29,188.38L218.06,191.97L218.82,185.75L220.36,174.97L221.13,178.29L223.43,173.03L224.2,155.56L226.5,137.46L227.27,125.98L228.04,127.19L228.81,129.96L229.57,133.95L230.34,131.09L232.65,173.31L233.41,174.75L235.72,110.76L236.48,100.17L238.02,90L238.79,102.67L239.56,93.96L240.32,105.26L241.86,127.51L242.63,125.04L243.39,120.53L244.16,124.57L246.47,121.65L247.23,132.05L248.77,140.62L249.54,159.31L250.3,156.55L251.07,156.74L252.61,165.14L253.38,164.41L254.14,155.35L254.91,155.79L256.45,147.63L257.22,142.57L257.98,143.9L258.75,151.87L259.52,156.79L260.29,154.09L261.82,182.67L262.59,154.23L263.36,158.86L264.13,148.33L264.89,151.51L265.66,149.23L267.2,177.48L267.96,173.06L269.5,149.07L270.27,149.28L271.04,152.15L271.8,145.31L273.34,139.09L274.11,147.41L274.87,147.36L275.64,142.61L276.41,141.24L277.18,152.93L277.95,152.76L278.71,154.45L282.55,194.52L283.32,197.42L284.09,199.76L284.86,196.91L285.62,206.04L286.39,199.33L287.93,193.26L288.7,194.04L289.46,188.45L290.23,194.39L291.77,193.99L292.53,196.04L294.07,194.28L294.84,184.64L295.61,171.95L296.37,115.03L297.14,106.91L297.91,111.17L298.68,90.83L299.44,93.31L300.21,93.97L300.98,84.32L302.52,102.58L303.28,109.17L304.05,107.13L304.82,116.91L306.35,68.37L307.12,68.54L307.89,67.87L308.66,82.85L310.19,93.56L310.96,85.39L311.73,79L312.5,84.87L314.03,104.7L314.8,108.52L316.34,89.76L317.1,98.83L318.64,125.21L319.41,136.96L321.71,104.62L322.48,110.25L323.25,110.46L324.01,102.57L325.55,56.01L326.32,58.43L327.09,46.44L327.85,49.64L329.39,57.11L330.16,71.58L331.69,90.37L332.46,94.35L334,66.6L334.76,69.43L335.53,62.47L336.3,64.6L337.83,46.07L338.6,61.49L340.91,89.28L341.67,81.63L342.44,73.78L343.21,74L343.98,72.31L344.75,87.36L346.28,96.62L347.05,86.93L347.82,87.35L348.58,80.14L349.35,87.54L350.12,79.32L351.66,100.77L352.42,96.15L353.96,108.58L354.73,104.41L356.26,124.35L357.03,126.19L357.8,147.63L358.57,147.72L359.33,151.69L360.1,163.15L360.87,161.77L361.64,165.03L362.4,155.28L363.17,165.51L364.71,159.24L365.48,159.29L366.24,152.01L367.01,136.69L367.78,128.75L368.55,139.89L369.31,142.21L370.08,128.15L370.85,126.9L371.62,113.84L372.39,113.47L373.15,116.13L375.46,139.88L376.23,135.87L376.99,132.94L377.76,123.63L378.53,120.7L379.3,112.44L380.06,119.8L380.83,114.36L382.37,143.89L383.14,143.82L383.9,145.84L384.67,143.55L386.21,137.64L386.97,146.5L389.28,92.19L390.05,101.08L390.81,96.4L391.58,99.4L392.35,83.88L393.12,103.98L393.88,97L394.65,110.1L396.96,153.41L397.72,167.74L398.49,165.8L399.26,167.07L400.03,163.42L400.79,173.05L401.56,178.47L402.33,169.04L403.87,158.08L404.63,172.77L409.24,106.31L410.01,114.29L410.78,118.19L411.54,126.52L412.31,122.52L413.08,97.41L413.85,63.29L414.62,62.85L415.38,40.98L416.15,59.61L419.99,104.06L420.76,127.01L421.53,123.35L422.29,126.65L423.06,102.95L423.83,110.01L426.9,140.1L427.67,135.62L428.44,141.62L429.2,134.72L429.97,148.79L430.74,111.48L431.51,134.64L432.27,124.41L433.04,130.34L433.81,122.63L436.11,158.24L436.88,155.32L437.65,190.28L438.42,187.01L439.19,189.74L439.95,178.08L440.72,187.69L441.49,180.66L442.26,184.93L443.02,99.19L444.56,72.61L445.33,76.9L446.1,79.47L446.86,92.97L447.63,95.62L448.4,79.81L449.17,45.53L449.93,51.34L450.7,51.93L451.47,75.07L452.24,76.29L453.01,66.05L454.54,72.57L455.31,61.82L456.84,92.82L457.61,107.5L458.38,100.01L459.15,103.51L459.92,98.74L460.68,71.54L463.75,23.23L464.52,47.8L465.29,64.04L466.06,62.46L466.83,60.3L467.59,40.31L468.36,40.46L469.13,43.39L469.9,38.85L470.67,42.93L471.43,59.31L472.2,58.93L473.74,46.37L474.5,62.87L476.04,74.18L476.81,67.23L477.58,69.82L478.34,61.01L479.11,70.27L479.88,92.82L482.18,110.04L482.95,121.19L484.49,146.26L485.25,147.79L486.02,150.71L486.79,150.51L487.56,150.61L488.32,144.98L489.86,131.97L490.63,130.16L492.16,111.2L492.93,111.29L493.7,110.61L494.47,113.04L495.24,124.15L496,118.53L497.54,105.43L498.31,110.8L499.07,110.76L499.84,121.1L501.38,127.51L502.15,127.04L502.91,121.08L503.68,101.15L505.22,80.41L505.98,81.84L507.52,94.76L508.29,117.66L510.59,159.95L511.36,161.4L512.13,159.78L512.89,166.6L513.66,165.16L514.43,154.95L515.2,146.27L515.97,127.55L518.27,95.13L519.04,103.46L521.34,42.03L522.11,16.5L522.88,21.86L523.64,45.01L524.41,55.87L525.18,84.08L525.95,94.74L526.72,84.56L529.02,101.1L529.79,123.06L530.55,114.96L531.32,117.62L532.09,102.87L532.86,110.93L534.39,121.96L535.16,137.33L537.46,184.32L538.23,183.33L539,182.97" style="vector-effect: non-scaling-stroke; fill: none; stroke: rgb(31, 119, 180); stroke-opacity: 1; stroke-width: 2px; opacity: 1;"/><g class="points"/></g><g class="trace scatter trace541903" style="stroke-miterlimit: 2; opacity: 1;"><path class="js-line" d="M0,313.5L539,313.5" style="vector-effect: non-scaling-stroke; fill: none; stroke: rgb(255, 127, 14); stroke-opacity: 1; stroke-width: 2px; opacity: 1;"/><g class="points"/></g></g></g><g class="overplot"/><path class="xlines crisp" transform="translate(60,60)" d="M-1,330.5h541" style="fill: none; stroke-width: 1px; stroke: rgb(0, 0, 0); stroke-opacity: 0;"/><path class="ylines crisp" transform="translate(60,60)" d="M-0.5,-1v331" stroke-width="1px" style="fill: none; stroke: rgb(0, 0, 0); stroke-opacity: 0;"/><g class="overlines"/><g class="xaxislayer" transform="translate(60,60)"><g class="xtick" data-bb="6997"><text text-anchor="middle" x="0" y="344" transform="translate(76.01,0)" style="font-family: 'Open Sans', verdana, arial, sans-serif; font-size: 12px; fill: rgb(68, 68, 68); fill-opacity: 1; visibility: visible; white-space: pre;" data-bb="6989">100</text></g><g class="xtick" data-bb="6998"><text text-anchor="middle" x="0" y="344" transform="translate(152.79,0)" style="font-family: 'Open Sans', verdana, arial, sans-serif; font-size: 12px; fill: rgb(68, 68, 68); fill-opacity: 1; visibility: visible; white-space: pre;" data-bb="6990">200</text></g><g class="xtick" data-bb="6999"><text text-anchor="middle" x="0" y="344" transform="translate(229.57,0)" style="font-family: 'Open Sans', verdana, arial, sans-serif; font-size: 12px; fill: rgb(68, 68, 68); fill-opacity: 1; visibility: visible; white-space: pre;" data-bb="6991">300</text></g><g class="xtick" data-bb="7000"><text text-anchor="middle" x="0" y="344" transform="translate(306.35,0)" style="font-family: 'Open Sans', verdana, arial, sans-serif; font-size: 12px; fill: rgb(68, 68, 68); fill-opacity: 1; visibility: visible; white-space: pre;" data-bb="6992">400</text></g><g class="xtick" data-bb="7001"><text text-anchor="middle" x="0" y="344" transform="translate(383.14,0)" style="font-family: 'Open Sans', verdana, arial, sans-serif; font-size: 12px; fill: rgb(68, 68, 68); fill-opacity: 1; visibility: visible; white-space: pre;" data-bb="6993">500</text></g><g class="xtick" data-bb="7002"><text text-anchor="middle" x="0" y="344" transform="translate(459.92,0)" style="font-family: 'Open Sans', verdana, arial, sans-serif; font-size: 12px; fill: rgb(68, 68, 68); fill-opacity: 1; visibility: visible; white-space: pre;" data-bb="6994">600</text></g><g class="xtick" data-bb="7003"><text text-anchor="middle" x="0" y="344" transform="translate(536.7,0)" style="font-family: 'Open Sans', verdana, arial, sans-serif; font-size: 12px; fill: rgb(68, 68, 68); fill-opacity: 1; visibility: visible; white-space: pre;" data-bb="6995">700</text></g></g><g class="yaxislayer" transform="translate(60,60)"><g class="ytick" data-bb="7005"><text text-anchor="end" x="-2" y="6" transform="translate(0,313.5)" style="font-family: 'Open Sans', verdana, arial, sans-serif; font-size: 12px; fill: rgb(68, 68, 68); fill-opacity: 1; visibility: visible; white-space: pre;">0</text></g><g class="ytick" data-bb="7006"><text text-anchor="end" x="-2" y="6" transform="translate(0,244.06)" style="font-family: 'Open Sans', verdana, arial, sans-serif; font-size: 12px; fill: rgb(68, 68, 68); fill-opacity: 1; visibility: visible; white-space: pre;">200</text></g><g class="ytick" data-bb="7007"><text text-anchor="end" x="-2" y="6" transform="translate(0,174.62)" style="font-family: 'Open Sans', verdana, arial, sans-serif; font-size: 12px; fill: rgb(68, 68, 68); fill-opacity: 1; visibility: visible; white-space: pre;">400</text></g><g class="ytick" data-bb="7008"><text text-anchor="end" x="-2" y="6" transform="translate(0,105.19)" style="font-family: 'Open Sans', verdana, arial, sans-serif; font-size: 12px; fill: rgb(68, 68, 68); fill-opacity: 1; visibility: visible; white-space: pre;">600</text></g><g class="ytick" data-bb="7009"><text text-anchor="end" x="-2" y="6" transform="translate(0,35.75)" style="font-family: 'Open Sans', verdana, arial, sans-serif; font-size: 12px; fill: rgb(68, 68, 68); fill-opacity: 1; visibility: visible; white-space: pre;">800</text></g></g><g class="overaxes"/></g></g><g class="ternarylayer"/><g class="geolayer"/><g class="layer-above"><g class="imagelayer"/><g class="shapelayer"/></g><g class="pielayer"/><g class="glimages"/><defs id="topdefs-49cc23"><clipPath id="legend49cc23"><rect width="78" height="48" x="0" y="0"/></clipPath></defs><g class="infolayer"><g class="g-gtitle"><text class="gtitle" x="350" y="30" text-anchor="middle" style="font-family: 'Open Sans', verdana, arial, sans-serif; font-size: 17px; fill: rgb(68, 68, 68); opacity: 1; font-weight: normal; white-space: pre; visibility: visible;">avenue: video_11</text></g><g class="g-xtitle" data-bb="6996"><text class="xtitle" x="329.5" y="442" text-anchor="middle" style="font-family: 'Open Sans', verdana, arial, sans-serif; font-size: 14px; fill: rgb(68, 68, 68); opacity: 1; font-weight: normal; white-space: pre; visibility: visible;">sample index</text></g><g class="g-ytitle" data-bb="7004"><text class="ytitle" transform="rotate(-90,22,225) translate(0, 0)" x="22" y="225" text-anchor="middle" style="font-family: 'Open Sans', verdana, arial, sans-serif; font-size: 14px; fill: rgb(68, 68, 68); opacity: 1; font-weight: normal; white-space: pre; visibility: visible;">reconstruction cost</text></g><g class="legend" pointer-events="all" transform="translate(609.78, 60)"><rect class="bg" shape-rendering="crispEdges" style="stroke: rgb(68, 68, 68); stroke-opacity: 1; fill: rgb(255, 255, 255); fill-opacity: 1; stroke-width: 0px;" width="78" height="48" x="0" y="0"/><g class="scrollbox" transform="translate(0, 0)" clip-path="url(#legend49cc23)"><g class="groups"><g class="traces" transform="translate(0, 14.5)" style="opacity: 1;"><g class="layers" style="opacity: 1;"><g class="legendfill"/><g class="legendlines"><path class="js-line" d="M5,0h30" style="fill: none; stroke: rgb(31, 119, 180); stroke-opacity: 1; stroke-width: 2px;"/></g><g class="legendsymbols"><g class="legendpoints"/></g></g><text class="legendtext user-select-none" x="40" y="4.680000000000001" style="text-anchor: start; font-family: 'Open Sans', verdana, arial, sans-serif; font-size: 12px; fill: rgb(68, 68, 68); fill-opacity: 1; white-space: pre; visibility: visible;" data-bb="7010">recon</text><rect class="legendtoggle" pointer-events="all" style="cursor: pointer; fill: rgb(0, 0, 0); fill-opacity: 0;" x="0" y="-9.5" width="118" height="19"/></g><g class="traces" transform="translate(0, 33.5)" style="opacity: 1;"><g class="layers" style="opacity: 1;"><g class="legendfill"/><g class="legendlines"><path class="js-line" d="M5,0h30" style="fill: none; stroke: rgb(255, 127, 14); stroke-opacity: 1; stroke-width: 2px;"/></g><g class="legendsymbols"><g class="legendpoints"/></g></g><text class="legendtext user-select-none" x="40" y="4.680000000000001" style="text-anchor: start; font-family: 'Open Sans', verdana, arial, sans-serif; font-size: 12px; fill: rgb(68, 68, 68); fill-opacity: 1; white-space: pre; visibility: visible;" data-bb="7011">zero</text><rect class="legendtoggle" pointer-events="all" x="0" y="-9.5" width="118" height="19" style="cursor: pointer; fill: rgb(0, 0, 0); fill-opacity: 0;"/></g></g></g><rect class="scrollbar" rx="20" ry="2" width="0" height="0" style="fill: rgb(128, 139, 164); fill-opacity: 1;"/></g></g></svg>