<svg class="main-svg" xmlns="http://www.w3.org/2000/svg" xmlns:xlink="http://www.w3.org/1999/xlink" width="700" height="450"><rect x="0" y="0" width="700" height="450" style="fill: rgb(255, 255, 255); fill-opacity: 1;"/><defs id="defs-20ae4c"><g class="clips"><clipPath class="axesclip" id="clip20ae4cx"><rect x="60" y="0" width="539" height="450"/></clipPath><clipPath class="axesclip" id="clip20ae4cy"><rect x="0" y="60" width="700" height="330"/></clipPath><clipPath class="axesclip" id="clip20ae4cxy"><rect x="60" y="60" width="539" height="330"/></clipPath><clipPath class="plotclip" id="clip20ae4cxyplot"><rect width="539" height="330"/></clipPath></g></defs><g class="bglayer"><rect class="bg" x="60" y="60" width="539" height="330" style="fill: rgb(255, 255, 255); fill-opacity: 1; stroke-width: 0;"/></g><g class="layer-below"><g class="imagelayer"/><g class="shapelayer"/></g><g class="cartesianlayer"><g class="subplot xy"><g class="layer-subplot"><g class="shapelayer"/><g class="imagelayer"/></g><g class="gridlayer" transform="translate(60,60)"><path class="xgrid crisp" d="M0,0v330" transform="translate(96.81,0)" style="stroke: rgb(238, 238, 238); stroke-opacity: 1; stroke-width: 1px;"/><path class="xgrid crisp" d="M0,0v330" transform="translate(194.1,0)" style="stroke: rgb(238, 238, 238); stroke-opacity: 1; stroke-width: 1px;"/><path class="xgrid crisp" d="M0,0v330" transform="translate(291.39,0)" style="stroke: rgb(238, 238, 238); stroke-opacity: 1; stroke-width: 1px;"/><path class="xgrid crisp" d="M0,0v330" transform="translate(388.68,0)" style="stroke: rgb(238, 238, 238); stroke-opacity: 1; stroke-width: 1px;"/><path class="xgrid crisp" d="M0,0v330" transform="translate(485.98,0)" style="stroke: rgb(238, 238, 238); stroke-opacity: 1; stroke-width: 1px;"/><path class="ygrid crisp" d="M0,0h539" transform="translate(0,242.98)" style="stroke: rgb(238, 238, 238); stroke-opacity: 1; stroke-width: 1px;"/><path class="ygrid crisp" d="M0,0h539" transform="translate(0,172.47)" style="stroke: rgb(238, 238, 238); stroke-opacity: 1; stroke-width: 1px;"/><path class="ygrid crisp" d="M0,0h539" transform="translate(0,101.95)" style="stroke: rgb(238, 238, 238); stroke-opacity: 1; stroke-width: 1px;"/><path class="ygrid crisp" d="M0,0h539" transform="translate(0,31.44)" style="stroke: rgb(238, 238, 238); stroke-opacity: 1; stroke-width: 1px;"/></g><g class="overgrid"/><g class="zerolinelayer" transform="translate(60,60)"><path class="yzl zl crisp" d="M0,0h539" transform="translate(0,313.5)" style="stroke: rgb(68, 68, 68); stroke-opacity: 1; stroke-width: 1px;"/></g><g class="overzero"/><g class="plot" transform="translate(60, 60)" clip-path="url(#clip20ae4cxyplot)"><g class="imagelayer"/><g class="maplayer"/><g class="barlayer"/><g class="carpetlayer"/><g class="boxlayer"/><g class="scatterlayer"><g class="trace scatter trace5a7cc3" style="stroke-miterlimit: 2; opacity: 1;"><path class="js-line" d="M0,88.32L1.46,108.29L1.95,105.4L3.41,79.96L3.89,81.69L4.38,80.89L4.86,85.52L6.32,134.54L6.81,132.07L7.3,115.8L7.78,120.39L8.27,115.39L8.76,114.57L9.24,107.35L11.19,140.19L11.68,134.06L12.65,143.44L13.13,144.59L13.62,139.22L14.11,140.44L14.59,137.41L15.57,139.58L16.05,143.03L16.54,129.84L17.03,138.99L17.51,129.36L18,130.76L18.49,133.66L18.97,134.57L19.46,142.96L19.94,146.97L20.43,143.5L20.92,151.7L21.4,150.32L21.89,141.03L23.84,112.9L24.32,118.73L24.81,113.45L25.3,137.85L27.24,170.4L27.73,170.53L28.21,171.4L28.7,162.68L30.65,129.58L31.13,128.47L32.59,168.82L33.08,171.72L33.57,179.99L34.05,179.96L34.54,172.35L35.51,144.14L36,151.6L36.48,142.59L36.97,154.76L37.94,145.23L38.43,146.57L38.92,145.98L39.89,131.32L40.38,120.68L42.32,93.84L42.81,104.85L43.3,109.47L43.78,107.89L44.27,108.87L44.75,98.81L45.24,103.88L45.73,114.8L46.21,114.39L46.7,119.57L48.16,129.3L48.65,121.28L49.13,122.15L49.62,129.57L50.11,132.32L50.59,147.87L51.08,149.76L51.56,156.17L53.02,172.9L53.51,173.23L54,173.57L54.48,164.39L55.46,157.45L55.94,161L57.4,135.23L57.89,140.45L58.38,141.53L58.86,152.15L59.35,152.43L59.83,141.44L60.81,133.47L61.29,143.11L61.78,129.45L62.27,154.81L63.24,158.99L63.73,155.93L64.21,160.13L64.7,155.29L65.19,161.54L65.67,145.61L66.16,168.36L66.65,160.59L67.13,158.17L69.56,194.74L70.05,200.32L71.02,211.68L71.51,199.76L72,194.04L72.48,196.63L72.97,191.6L73.46,195.21L73.94,174.31L74.43,180.27L74.92,178.22L75.4,165.58L75.89,153.31L76.37,160.12L77.83,130.47L78.32,119.79L79.29,113.41L79.78,101.25L80.27,96.91L80.75,109.18L81.24,115.49L81.73,110.87L82.7,78.89L83.19,85.93L84.16,104.49L84.64,127.06L86.1,136.73L86.59,134.02L87.08,145.56L87.56,136.86L89.02,104.83L89.51,87.5L90.97,99.45L91.45,116.02L92.91,131.48L93.4,117.22L93.89,119.44L94.37,115.91L95.83,129.05L96.32,128.47L97.29,103.84L97.78,93.87L98.75,102.18L99.24,88.64L100.7,109.05L101.18,107.65L102.16,77.24L102.64,85.93L103.62,71.35L104.1,79.54L104.59,78.87L105.08,88.82L106.05,93.86L106.54,100.53L107.02,97.03L107.51,101.13L107.99,98.27L108.48,110.04L109.45,99.09L109.94,102.92L110.43,100.82L110.91,119.58L111.4,125.46L111.89,111.06L112.37,111.95L112.86,109.09L113.35,105.4L113.83,117.93L114.32,118.46L114.81,134.73L116.26,110.15L116.75,110.99L117.72,124.69L118.21,124.2L118.7,119.6L120.16,96.07L120.64,105.6L122.1,131.26L122.59,129.01L123.07,127.4L123.56,110.43L124.53,101.89L125.02,105.6L125.99,120.29L126.48,113.11L126.97,121.76L127.45,113.3L127.94,113.1L128.43,103.15L129.89,128.11L130.37,114.08L130.86,105.82L131.34,108.18L131.83,106.85L132.32,109.31L132.8,99.22L133.78,118.58L134.26,113L135.72,79.46L136.21,86.44L136.7,80.3L137.18,89.56L138.64,67.36L139.13,75.06L140.1,79.51L140.59,73.36L141.56,60.11L142.05,62.35L142.53,58.88L143.02,47.41L143.51,53.06L143.99,52.11L146.43,90.79L146.91,106.02L148.37,120.34L148.86,110.17L149.34,107.29L149.83,108.01L150.32,98.4L150.8,103.5L151.29,100.24L153.24,88.06L153.72,89.82L154.21,91.48L154.69,81.85L155.18,82.57L155.67,79.95L156.15,93.61L156.64,91.32L157.13,96.62L157.61,91.36L158.1,102.25L159.56,115.94L160.05,105.21L161.51,76.88L161.99,90.62L162.48,88.74L162.96,89.44L163.45,88.66L163.94,94.97L164.42,85.42L165.88,104.19L166.37,107.94L166.86,108.42L167.34,115.5L168.32,111.84L168.8,113.76L169.29,115.41L169.78,113.57L170.75,116.27L171.23,111.8L171.72,110.59L172.21,115.4L172.69,114.36L173.18,128.03L173.67,128.05L174.15,129.04L174.64,123.83L175.13,135.49L175.61,126.94L176.1,129.18L176.59,128.64L177.07,133.67L177.56,127.09L178.53,123.41L179.02,114.16L179.5,107.46L179.99,111.22L180.48,114.42L180.96,124.53L181.45,133.32L181.94,121.06L182.91,138.06L183.4,121.87L183.88,128.38L184.37,114.44L184.86,117.9L185.34,128.01L186.8,105.55L187.29,109.9L187.77,114.61L188.26,112.9L188.75,126.33L190.21,144.89L190.69,148.42L191.18,144.97L191.67,152.96L192.15,155.49L192.64,147.42L193.13,146.3L193.61,136.79L194.58,107.1L195.07,117.71L195.56,114.33L196.04,128.31L197.02,133.75L197.5,142.48L197.99,124.22L198.48,144.87L198.96,147.34L199.45,145.32L199.94,141.92L200.42,152.5L200.91,145.81L201.4,162.95L201.88,143.81L202.37,149.86L202.85,152.75L203.34,157.08L203.83,152.49L204.8,169.66L205.29,168.52L206.26,153.99L206.75,159.68L207.23,159.9L207.72,173.06L208.21,175.86L208.69,168.6L210.15,192.25L210.64,184.84L212.1,172.06L212.58,165.73L213.07,166.1L213.56,173.88L214.04,158.07L214.53,171.38L215.02,174.45L215.5,164.42L216.96,179.8L217.45,172.83L217.94,184.92L218.42,172.64L218.91,171.1L219.39,183.89L219.88,187.4L220.37,196.88L222.31,171.05L222.8,178.01L223.29,180.89L223.77,190.11L224.26,192.82L224.75,191.82L225.23,199.88L225.72,201.86L226.2,200.86L226.69,213.13L227.18,219.2L227.66,239.89L228.15,227.47L228.64,238.38L229.12,236.44L229.61,236.99L230.1,211.95L231.07,216.5L231.56,203.67L232.04,207.15L232.53,204.54L233.02,216.04L233.5,212.96L233.99,216.32L234.47,213.09L234.96,215.31L235.45,217.01L235.93,209.55L237.88,221.94L238.37,213.09L239.83,224.83L240.31,213.01L240.8,208.6L241.29,217.05L241.77,218.17L242.26,213.88L243.23,205.16L243.72,213.23L244.2,221.83L244.69,210.2L247.12,187.05L247.61,187.43L249.07,205.59L249.56,200.82L250.53,212.28L251.01,210.01L251.99,187.43L252.47,187.92L252.96,188.92L253.93,186.41L254.42,182.02L254.91,191.45L255.39,186.04L255.88,178.7L256.37,182.75L258.31,153.38L258.8,163.65L259.28,154.67L259.77,127.11L261.23,159.21L261.72,162.84L262.2,162.53L262.69,166.17L263.18,179.7L263.66,171.19L264.15,179.39L264.64,175.58L265.12,176.22L265.61,186.5L266.09,171.85L266.58,181.48L267.07,161L268.53,203.28L269.01,198.66L269.5,190.13L269.99,167.48L271.45,141.6L271.93,147.79L273.39,156.82L273.88,157.37L274.36,157.34L274.85,161.89L275.34,151.94L275.82,159.78L276.8,152.09L277.28,167.07L277.77,177.43L278.26,149.55L280.69,197.48L281.18,197.72L281.66,201.05L282.15,184.6L283.12,149.67L283.61,151.37L284.09,148.13L285.07,155.23L285.55,143.86L286.04,129L286.53,142.14L288.96,178.54L289.44,175.9L289.93,171.23L290.42,175.52L292.85,208.79L293.34,207.63L293.82,210.11L294.31,211.4L294.8,197.36L295.77,64.24L296.26,52.15L296.74,52.56L297.23,74.67L298.69,92.09L299.17,92.48L299.66,73.85L300.15,101.48L301.12,127.87L301.61,123.72L302.09,128.97L303.55,109.87L304.04,118.47L304.53,122.4L305.01,120.42L305.5,119.41L306.47,101.55L306.96,106.2L308.42,148.22L308.9,154.32L309.88,131.91L310.36,129.45L311.82,151.97L312.31,132.46L313.77,120.59L314.25,110.8L315.71,92.64L316.2,74.73L317.66,94.52L318.15,97.78L319.61,119.65L320.09,128.19L321.06,142.11L321.55,137.3L322.04,137.8L322.52,140.78L323.5,120.91L323.98,124.34L324.47,120.77L325.44,127.6L325.93,121.39L326.42,128.77L326.9,126.61L327.39,124.77L329.33,172.82L329.82,184.42L330.31,179.04L330.79,196.15L334.69,66.84L335.17,72.58L336.15,56.05L336.63,71.48L338.09,126.67L338.58,104.16L339.55,45.3L340.04,66.97L341.5,104.95L341.98,100.67L343.93,58.67L344.42,59.92L344.9,58.69L345.39,65.99L345.87,65.59L346.36,56.41L346.85,49.28L347.33,58.29L347.82,70.52L348.31,69.69L348.79,69.94L349.77,76.72L350.25,76.94L350.74,63.68L351.23,73.14L352.2,95.08L352.69,90.31L353.66,76.81L354.14,88.21L354.63,77.1L355.12,82.9L355.6,86.33L356.09,87.76L356.58,78.4L357.06,74.68L357.55,82.64L358.04,95.54L358.52,88.18L359.5,83.33L359.98,88.62L360.47,84.16L360.95,86.86L362.41,59.53L362.9,37.84L363.39,50.27L363.87,40.18L364.36,34.66L364.85,42.17L365.33,46.13L365.82,36.76L367.28,16.5L367.77,40.35L369.22,76.05L369.71,71.83L370.2,75.97L370.68,73.1L371.17,69.46L371.66,56.81L373.12,76.61L373.6,73.97L374.09,88.23L374.58,83.11L375.06,76.84L376.04,63.27L376.52,77.4L377.01,78.18L377.49,90.77L378.95,100.18L379.44,92.19L379.93,90.28L380.41,80.7L381.39,106.36L381.87,105.71L382.36,97.73L382.85,102.89L383.33,88.54L383.82,88.42L384.31,83.76L384.79,66.41L385.28,96.57L385.76,103.08L386.25,101.41L386.74,96.62L387.22,91.31L387.71,99.69L388.2,95.31L388.68,98.01L389.17,101.13L389.66,119.18L390.14,131.54L390.63,125.52L391.12,116.48L392.57,102.78L393.06,113.05L393.55,115.07L394.03,113.82L395.01,124.67L395.49,124.89L395.98,126.78L396.47,133.35L396.95,131.43L397.44,139.83L399.87,169.24L400.36,171.26L400.84,159.39L401.33,162.59L401.82,156.18L402.79,151.61L403.28,158.98L404.25,170.46L404.74,156.86L405.71,169.52L406.2,165.24L406.68,170.69L407.17,189.9L407.66,190.96L408.14,210.12L408.63,207.86L409.11,226.28L410.09,207.63L410.57,202.53L411.55,196.89L412.03,203.34L412.52,198.14L413.01,205.67L413.49,205.53L413.98,203.83L414.95,199.32L415.44,200.44L415.93,209.43L416.41,206.78L416.9,206.51L418.36,183.72L418.84,180.58L419.33,188.62L419.82,186.27L420.3,175.99L420.79,157.54L421.28,163.92L421.76,170.68L424.68,112.28L425.17,117.84L426.63,148.65L427.11,140.45L427.6,141.13L428.09,147.85L429.06,170.08L429.55,150.86L430.52,112.15L431.01,116.03L431.49,103.23L431.98,114.33L435.38,168.94L435.87,150.02L437.33,119.19L437.82,116.16L438.3,121.18L438.79,143.17L439.76,154.6L440.25,166.8L441.71,196.98L442.19,51.51L442.68,41.21L443.17,48.66L443.65,67.42L444.14,62.05L444.63,73.08L446.09,115.64L446.57,106.7L447.06,106.51L447.55,93.5L448.52,97.17L449,90.52L450.46,132.37L450.95,133.44L451.44,143.36L451.92,134.96L453.87,102.46L454.36,99.86L455.81,66.35L456.3,73.83L457.76,110.13L458.25,106.77L458.73,121.54L459.22,115.89L459.71,123L460.68,111.95L461.17,112.35L461.65,118.49L462.14,108.73L462.63,109.55L463.11,105.69L465.54,171.63L466.03,166.16L468.46,56.09L468.95,56.55L469.44,65.32L469.92,89.75L470.41,94.83L470.9,66.75L471.38,46.66L471.87,51.67L472.35,70.47L472.84,87.72L473.33,67.02L474.79,48.85L475.27,53.35L476.25,50.23L476.73,53.23L477.22,56.74L477.71,45.42L478.68,56.52L479.17,58.36L479.65,71.72L480.14,63.86L480.62,58.99L481.11,66.03L481.6,68.53L482.08,65.87L482.57,63.34L483.06,68.87L483.54,77.41L484.03,76.05L484.52,68.67L485.49,67.84L485.98,62.51L487.92,25.12L488.41,18.74L488.89,25.01L489.38,18.72L490.35,22.79L490.84,33.92L492.3,56.62L492.79,55.06L493.76,65.46L494.25,65.91L494.73,58.64L495.22,59.59L495.7,56.05L497.65,92.63L498.14,81.69L498.62,73L499.11,75.22L499.6,76.59L500.57,78.52L501.06,71.5L503,90.76L503.49,83.3L505.43,112.35L505.92,101.08L506.41,101.58L506.89,98.55L507.38,90.49L507.87,110.65L508.35,114.01L508.84,123.92L509.33,107.7L509.81,127.36L510.79,146.65L511.27,149.33L512.24,157.92L512.73,146.08L513.22,129.25L513.7,141.43L514.19,152.75L514.68,150.55L515.16,146.97L518.08,208.12L518.57,202.3L520.03,185.91L520.51,195.54L521.49,200.89L521.97,199.98L522.46,189.94L522.95,192.53L523.43,186.14L524.41,171.54L524.89,157.54L527.32,112.34L527.81,96.81L528.78,102.2L529.27,121.39L529.76,124.31L530.24,137.38L530.73,132.24L531.22,136.27L532.19,99.71L532.68,102.31L533.16,95.56L533.65,128.24L534.62,146.82L535.11,141.07L535.59,135.89L536.08,119.57L536.57,106.21L537.05,109.26L537.54,118.72L538.51,158.58L539,181.29" style="vector-effect: non-scaling-stroke; fill: none; stroke: rgb(31, 119, 180); stroke-opacity: 1; stroke-width: 2px; opacity: 1;"/><g class="points"/></g><g class="trace scatter tracefc4cfb" style="stroke-miterlimit: 2; opacity: 1;"><path class="js-line" d="M0,313.5L539,313.5" style="vector-effect: non-scaling-stroke; fill: none; stroke: rgb(255, 127, 14); stroke-opacity: 1; stroke-width: 2px; opacity: 1;"/><g class="points"/></g></g></g><g class="overplot"/><path class="xlines crisp" transform="translate(60,60)" d="M-1,330.5h541" style="fill: none; stroke-width: 1px; stroke: rgb(0, 0, 0); stroke-opacity: 0;"/><path class="ylines crisp" transform="translate(60,60)" d="M-0.5,-1v331" stroke-width="1px" style="fill: none; stroke: rgb(0, 0, 0); stroke-opacity: 0;"/><g class="overlines"/><g class="xaxislayer" transform="translate(60,60)"><g class="xtick" data-bb="6951"><text text-anchor="middle" x="0" y="344" transform="translate(96.81,0)" style="font-family: 'Open Sans', verdana, arial, sans-serif; font-size: 12px; fill: rgb(68, 68, 68); fill-opacity: 1; visibility: visible; white-space: pre;" data-bb="6945">200</text></g><g class="xtick" data-bb="6952"><text text-anchor="middle" x="0" y="344" transform="translate(194.1,0)" style="font-family: 'Open Sans', verdana, arial, sans-serif; font-size: 12px; fill: rgb(68, 68, 68); fill-opacity: 1; visibility: visible; white-space: pre;" data-bb="6946">400</text></g><g class="xtick" data-bb="6953"><text text-anchor="middle" x="0" y="344" transform="translate(291.39,0)" style="font-family: 'Open Sans', verdana, arial, sans-serif; font-size: 12px; fill: rgb(68, 68, 68); fill-opacity: 1; visibility: visible; white-space: pre;" data-bb="6947">600</text></g><g class="xtick" data-bb="6954"><text text-anchor="middle" x="0" y="344" transform="translate(388.68,0)" style="font-family: 'Open Sans', verdana, arial, sans-serif; font-size: 12px; fill: rgb(68, 68, 68); fill-opacity: 1; visibility: visible; white-space: pre;" data-bb="6948">800</text></g><g class="xtick" data-bb="6955"><text text-anchor="middle" x="0" y="344" transform="translate(485.98,0)" style="font-family: 'Open Sans', verdana, arial, sans-serif; font-size: 12px; fill: rgb(68, 68, 68); fill-opacity: 1; visibility: visible; white-space: pre;" data-bb="6949">1000</text></g></g><g class="yaxislayer" transform="translate(60,60)"><g class="ytick" data-bb="6957"><text text-anchor="end" x="-2" y="6" transform="translate(0,313.5)" style="font-family: 'Open Sans', verdana, arial, sans-serif; font-size: 12px; fill: rgb(68, 68, 68); fill-opacity: 1; visibility: visible; white-space: pre;">0</text></g><g class="ytick" data-bb="6958"><text text-anchor="end" x="-2" y="6" transform="translate(0,242.98)" style="font-family: 'Open Sans', verdana, arial, sans-serif; font-size: 12px; fill: rgb(68, 68, 68); fill-opacity: 1; visibility: visible; white-space: pre;">200</text></g><g class="ytick" data-bb="6959"><text text-anchor="end" x="-2" y="6" transform="translate(0,172.47)" style="font-family: 'Open Sans', verdana, arial, sans-serif; font-size: 12px; fill: rgb(68, 68, 68); fill-opacity: 1; visibility: visible; white-space: pre;">400</text></g><g class="ytick" data-bb="6960"><text text-anchor="end" x="-2" y="6" transform="translate(0,101.95)" style="font-family: 'Open Sans', verdana, arial, sans-serif; font-size: 12px; fill: rgb(68, 68, 68); fill-opacity: 1; visibility: visible; white-space: pre;">600</text></g><g class="ytick" data-bb="6961"><text text-anchor="end" x="-2" y="6" transform="translate(0,31.44)" style="font-family: 'Open Sans', verdana, arial, sans-serif; font-size: 12px; fill: rgb(68, 68, 68); fill-opacity: 1; visibility: visible; white-space: pre;">800</text></g></g><g class="overaxes"/></g></g><g class="ternarylayer"/><g class="geolayer"/><g class="layer-above"><g class="imagelayer"/><g class="shapelayer"/></g><g class="pielayer"/><g class="glimages"/><defs id="topdefs-20ae4c"><clipPath id="legend20ae4c"><rect width="78" height="48" x="0" y="0"/></clipPath></defs><g class="infolayer"><g class="g-gtitle"><text class="gtitle" x="350" y="30" text-anchor="middle" style="font-family: 'Open Sans', verdana, arial, sans-serif; font-size: 17px; fill: rgb(68, 68, 68); opacity: 1; font-weight: normal; white-space: pre; visibility: visible;">avenue: video_10</text></g><g class="g-xtitle" data-bb="6950"><text class="xtitle" x="329.5" y="442" text-anchor="middle" style="font-family: 'Open Sans', verdana, arial, sans-serif; font-size: 14px; fill: rgb(68, 68, 68); opacity: 1; font-weight: normal; white-space: pre; visibility: visible;">sample index</text></g><g class="g-ytitle" data-bb="6956"><text class="ytitle" transform="rotate(-90,22,225) translate(0, 0)" x="22" y="225" text-anchor="middle" style="font-family: 'Open Sans', verdana, arial, sans-serif; font-size: 14px; fill: rgb(68, 68, 68); opacity: 1; font-weight: normal; white-space: pre; visibility: visible;">reconstruction cost</text></g><g class="legend" pointer-events="all" transform="translate(609.78, 60)"><rect class="bg" shape-rendering="crispEdges" style="stroke: rgb(68, 68, 68); stroke-opacity: 1; fill: rgb(255, 255, 255); fill-opacity: 1; stroke-width: 0px;" width="78" height="48" x="0" y="0"/><g class="scrollbox" transform="translate(0, 0)" clip-path="url(#legend20ae4c)"><g class="groups"><g class="traces" transform="translate(0, 14.5)" style="opacity: 1;"><g class="layers" style="opacity: 1;"><g class="legendfill"/><g class="legendlines"><path class="js-line" d="M5,0h30" style="fill: none; stroke: rgb(31, 119, 180); stroke-opacity: 1; stroke-width: 2px;"/></g><g class="legendsymbols"><g class="legendpoints"/></g></g><text class="legendtext user-select-none" x="40" y="4.680000000000001" style="text-anchor: start; font-family: 'Open Sans', verdana, arial, sans-serif; font-size: 12px; fill: rgb(68, 68, 68); fill-opacity: 1; white-space: pre; visibility: visible;" data-bb="6962">recon</text><rect class="legendtoggle" pointer-events="all" style="cursor: pointer; fill: rgb(0, 0, 0); fill-opacity: 0;" x="0" y="-9.5" width="118" height="19"/></g><g class="traces" transform="translate(0, 33.5)" style="opacity: 1;"><g class="layers" style="opacity: 1;"><g class="legendfill"/><g class="legendlines"><path class="js-line" d="M5,0h30" style="fill: none; stroke: rgb(255, 127, 14); stroke-opacity: 1; stroke-width: 2px;"/></g><g class="legendsymbols"><g class="legendpoints"/></g></g><text class="legendtext user-select-none" x="40" y="4.680000000000001" style="text-anchor: start; font-family: 'Open Sans', verdana, arial, sans-serif; font-size: 12px; fill: rgb(68, 68, 68); fill-opacity: 1; white-space: pre; visibility: visible;" data-bb="6963">zero</text><rect class="legendtoggle" pointer-events="all" x="0" y="-9.5" width="118" height="19" style="cursor: pointer; fill: rgb(0, 0, 0); fill-opacity: 0;"/></g></g></g><rect class="scrollbar" rx="20" ry="2" width="0" height="0" style="fill: rgb(128, 139, 164); fill-opacity: 1;"/></g></g></svg>