<svg class="main-svg" xmlns="http://www.w3.org/2000/svg" xmlns:xlink="http://www.w3.org/1999/xlink" width="700" height="450"><rect x="0" y="0" width="700" height="450" style="fill: rgb(255, 255, 255); fill-opacity: 1;"/><defs id="defs-38d9b4"><g class="clips"><clipPath class="axesclip" id="clip38d9b4x"><rect x="60" y="0" width="539" height="450"/></clipPath><clipPath class="axesclip" id="clip38d9b4y"><rect x="0" y="60" width="700" height="330"/></clipPath><clipPath class="axesclip" id="clip38d9b4xy"><rect x="60" y="60" width="539" height="330"/></clipPath><clipPath class="plotclip" id="clip38d9b4xyplot"><rect width="539" height="330"/></clipPath></g></defs><g class="bglayer"><rect class="bg" x="60" y="60" width="539" height="330" style="fill: rgb(255, 255, 255); fill-opacity: 1; stroke-width: 0;"/></g><g class="layer-below"><g class="imagelayer"/><g class="shapelayer"/></g><g class="cartesianlayer"><g class="subplot xy"><g class="layer-subplot"><g class="shapelayer"/><g class="imagelayer"/></g><g class="gridlayer" transform="translate(60,60)"><path class="xgrid crisp" d="M0,0v330" transform="translate(79.45,0)" style="stroke: rgb(238, 238, 238); stroke-opacity: 1; stroke-width: 1px;"/><path class="xgrid crisp" d="M0,0v330" transform="translate(159.3,0)" style="stroke: rgb(238, 238, 238); stroke-opacity: 1; stroke-width: 1px;"/><path class="xgrid crisp" d="M0,0v330" transform="translate(239.16,0)" style="stroke: rgb(238, 238, 238); stroke-opacity: 1; stroke-width: 1px;"/><path class="xgrid crisp" d="M0,0v330" transform="translate(319.01,0)" style="stroke: rgb(238, 238, 238); stroke-opacity: 1; stroke-width: 1px;"/><path class="xgrid crisp" d="M0,0v330" transform="translate(398.86,0)" style="stroke: rgb(238, 238, 238); stroke-opacity: 1; stroke-width: 1px;"/><path class="xgrid crisp" d="M0,0v330" transform="translate(478.71,0)" style="stroke: rgb(238, 238, 238); stroke-opacity: 1; stroke-width: 1px;"/><path class="ygrid crisp" d="M0,0h539" transform="translate(0,243.92)" style="stroke: rgb(238, 238, 238); stroke-opacity: 1; stroke-width: 1px;"/><path class="ygrid crisp" d="M0,0h539" transform="translate(0,174.33)" style="stroke: rgb(238, 238, 238); stroke-opacity: 1; stroke-width: 1px;"/><path class="ygrid crisp" d="M0,0h539" transform="translate(0,104.75)" style="stroke: rgb(238, 238, 238); stroke-opacity: 1; stroke-width: 1px;"/><path class="ygrid crisp" d="M0,0h539" transform="translate(0,35.16)" style="stroke: rgb(238, 238, 238); stroke-opacity: 1; stroke-width: 1px;"/></g><g class="overgrid"/><g class="zerolinelayer" transform="translate(60,60)"><path class="yzl zl crisp" d="M0,0h539" transform="translate(0,313.5)" style="stroke: rgb(68, 68, 68); stroke-opacity: 1; stroke-width: 1px;"/></g><g class="overzero"/><g class="plot" transform="translate(60, 60)" clip-path="url(#clip38d9b4xyplot)"><g class="imagelayer"/><g class="maplayer"/><g class="barlayer"/><g class="carpetlayer"/><g class="boxlayer"/><g class="scatterlayer"><g class="trace scatter trace50790b" style="stroke-miterlimit: 2; opacity: 1;"><path class="js-line" d="M0,236.23L0.4,237.78L0.8,236.01L1.2,237.95L1.6,246.16L2,246.01L2.4,250.72L2.79,246.09L3.19,251.42L4.39,233.36L4.79,242.93L5.19,238.76L5.59,243.47L6.39,247.16L6.79,246.51L7.19,241.07L8.38,222.74L8.78,222.36L9.18,225.95L9.58,224.8L9.98,226.33L12.78,252.65L13.18,254.09L13.57,253L13.97,261.35L14.77,265.62L15.17,262.49L15.57,266.06L15.97,263.02L16.37,261.49L16.77,263.72L17.17,256.34L17.97,263.88L18.37,262.51L19.56,261.5L19.96,262.91L20.36,263.71L20.76,259.2L21.16,256.2L21.56,257.38L21.96,261.06L22.36,256.21L22.76,257.31L23.16,256.06L23.56,256.2L23.96,259.39L24.35,260.54L24.75,258.89L26.35,264.98L26.75,267.52L27.15,265.51L27.55,266.06L27.95,265.43L28.75,269.13L29.15,267.09L29.55,265.62L29.94,266.53L30.34,268.76L30.74,267.66L31.14,270.3L31.54,271.31L31.94,270.59L32.34,278.68L32.74,278.6L33.14,273.1L33.54,273.71L33.94,272.37L34.34,273.5L34.74,273.17L35.13,269.76L36.33,261.13L36.73,264.96L37.53,269.07L37.93,264.93L39.13,274.28L39.53,277.13L39.93,276.77L40.33,278.44L40.72,275.21L41.12,276.96L41.52,277.49L41.92,278.66L42.32,276.62L42.72,278.87L43.12,276.78L43.92,276.42L44.32,278.11L44.72,277.08L45.12,278.62L45.91,281.41L46.31,274.63L47.51,277.32L47.91,278.32L48.31,276.72L48.71,277.06L49.11,277.77L49.51,277.32L49.91,278.93L50.31,278.81L50.71,274.04L51.11,280.17L51.5,279.18L51.9,280.61L52.3,277.05L52.7,280.38L53.5,276.53L53.9,281.59L54.3,273.87L54.7,280.31L55.1,276.52L55.5,280.46L55.9,279.67L56.3,278.54L57.49,278.09L57.89,280.14L58.29,280.18L58.69,278.49L59.49,285.6L59.89,282.47L61.09,288.14L61.49,288.53L62.68,281.82L63.08,283.24L64.28,279.04L64.68,282.68L66.28,290.01L66.68,291.18L67.08,291.84L67.47,290.48L67.87,291.06L68.27,290.16L68.67,287.5L69.07,288.9L69.47,288.12L70.27,290.95L70.67,287.48L71.07,290.85L71.47,286.89L71.87,287.54L72.27,286.23L73.06,288.15L73.46,287.31L74.26,289.43L74.66,284.74L75.46,288.91L75.86,288.64L76.26,282.4L77.06,269.61L77.46,209.72L78.65,16.5L79.05,36.4L79.45,51.78L79.85,63.41L80.25,124.34L81.45,262.8L81.85,267.28L83.05,262.26L83.45,263.06L83.84,254.2L84.24,257.17L84.64,262.45L85.04,259.36L85.44,260.42L85.84,259.72L87.04,262.05L87.44,258.89L87.84,255.19L88.24,255.8L88.64,257.37L89.03,257.79L89.43,251.3L89.83,251.48L90.23,249.57L90.63,244.96L91.03,247.91L91.43,256.01L92.63,259.74L93.03,267.55L93.43,269.43L93.83,266.55L94.23,266.11L94.62,262.25L95.02,257.35L95.42,257.45L95.82,256.91L97.42,251.7L97.82,254.28L98.22,254.32L98.62,258.02L99.02,255.65L99.42,258.03L100.21,260.53L100.61,261.85L101.01,253.47L101.41,258.61L101.81,256.7L102.21,259.45L102.61,253.6L103.41,247.04L103.81,254.42L105.01,253.07L105.4,256.47L106.2,259.92L106.6,255.97L107,257.79L107.4,255.68L107.8,258.81L108.2,255.11L109.4,264.29L109.8,263.18L110.2,265.44L110.59,263.28L111.39,267.82L111.79,266.44L112.59,269.61L112.99,266.47L113.39,268.73L113.79,266.38L114.19,268.01L114.59,266.61L114.99,264.84L115.79,266.06L116.18,267.58L116.98,262.25L117.38,262.34L117.78,264.49L118.18,259.01L118.58,263.25L118.98,262.12L120.18,254.82L120.58,250.88L120.98,253.5L121.37,252.34L121.77,253.24L122.17,255.53L122.57,248.89L123.37,249.88L123.77,253.63L124.17,250.76L124.57,252.19L124.97,251.01L125.37,250.28L125.77,250.52L126.17,244.51L126.96,249.7L127.36,247.73L127.76,251L128.16,245.44L128.96,242.13L129.36,247.58L129.76,248.32L130.16,247.27L131.36,255.57L131.76,253.73L132.15,255.02L132.55,250.57L132.95,257.69L133.35,252.06L133.75,255.42L134.55,255.78L134.95,254.37L136.15,251.58L136.55,253.1L136.95,252.97L137.35,251.3L138.14,247.89L138.54,244.11L139.34,245.82L139.74,244.24L140.94,240.75L141.34,243.86L141.74,240.9L142.14,244.87L143.33,241L143.73,241.94L145.33,245.8L145.73,241.82L146.93,243.76L147.33,242.87L148.52,236.28L148.92,235.47L149.32,233.65L149.72,243.57L150.52,241.99L150.92,244.37L151.32,244.75L151.72,236.86L152.52,243.72L152.92,241.92L153.32,235.98L153.71,216.75L154.91,191.19L155.31,189.4L155.71,186.77L156.11,200.09L158.51,244.16L158.91,243.66L159.3,243.33L160.1,229.92L160.5,236.78L160.9,235.91L161.3,238.38L162.5,229.23L162.9,227.02L163.3,223.62L163.7,228.05L164.1,223.8L164.49,226.24L164.89,231.99L165.29,230.24L165.69,236.13L166.09,236.43L166.49,242.41L167.29,247.48L167.69,243.85L168.49,240.29L168.89,241.21L169.29,241.98L169.69,244.76L170.88,248.25L171.28,254.41L171.68,254.91L172.08,253L172.48,254.16L172.88,252.27L173.28,253.73L173.68,252.25L174.08,253.34L174.48,250.83L174.88,249.24L175.27,249.39L175.67,250.5L176.07,251.54L176.47,251.14L176.87,255.44L177.67,251.37L178.07,254.98L179.27,249.33L179.67,254.85L180.86,246.41L181.26,249.65L184.06,262.38L184.46,258.42L184.86,255.91L185.26,257.23L185.66,257.22L186.05,251.85L186.45,252.06L186.85,254.54L187.25,254.72L187.65,253.2L188.05,252.45L188.45,248.18L189.25,245.22L189.65,245.91L190.45,248.99L190.85,248.42L191.25,247.49L191.64,250.08L192.04,247.68L192.44,251.79L193.64,244.58L194.04,244.73L194.44,244.03L194.84,243.85L195.24,237.46L196.83,230.95L197.23,231.2L197.63,232.05L198.03,231.64L198.43,235.51L199.63,227.66L200.03,233.05L200.83,232.66L201.23,235.28L201.63,235L202.03,237.13L203.22,240.1L203.62,233.6L204.82,238.53L205.22,236.93L205.62,236.65L206.02,237.65L207.22,239.18L207.61,237.83L208.01,237.91L208.41,244.15L208.81,244.29L209.21,251.38L209.61,244.65L210.01,251.71L211.21,243.38L211.61,244.21L212.01,235.03L212.41,238.62L212.81,238.73L214,240.55L214.4,235.22L216,250.89L216.4,244.61L217.6,253.29L218,251.01L218.39,248.89L218.79,253.11L219.19,245.79L219.59,247.36L219.99,250.34L220.39,251.76L220.79,248.24L221.19,240.99L221.59,251L221.99,251.21L222.39,250.34L222.79,254.95L223.19,253.96L223.59,252.33L224.38,254.08L224.78,256.11L226.38,249.57L226.78,246.64L227.18,242.02L227.58,244.57L227.98,247.26L229.17,242.62L229.57,248.76L229.97,248.77L230.37,250.47L230.77,253.53L231.17,251.53L231.57,249.18L233.17,259.24L233.57,258.74L233.97,261.29L234.37,259.37L234.76,253.6L235.56,250.84L235.96,253.11L236.36,252.98L236.76,256.74L237.56,251.87L237.96,261.08L239.16,263.81L239.56,267.23L239.95,257.72L240.35,264.44L240.75,269.04L241.15,263.05L241.55,265.51L241.95,268.72L242.35,264.18L242.75,267.7L243.15,263.69L243.55,265.21L243.95,261.95L244.35,262.58L244.75,257.13L245.94,260.62L246.34,253.29L246.74,255.46L247.14,253.98L247.54,253.08L247.94,255.88L248.34,252.62L248.74,262.44L249.14,262.02L249.54,263.56L249.94,263.68L250.34,265L250.73,270.8L251.13,265.82L251.53,269.74L251.93,271.26L252.33,269.01L253.13,259.25L253.53,269.11L254.33,263.33L254.73,264.46L255.13,265.01L255.53,263.14L255.93,266.16L256.32,263.17L256.72,262.4L257.12,258.32L257.52,258.8L257.92,260.65L259.12,255.39L259.52,257.56L259.92,259.48L260.32,248.55L261.51,260.1L261.91,258.21L262.31,254.06L262.71,262.49L263.11,260.97L263.51,263.36L263.91,260.13L264.31,262.26L264.71,261.33L265.51,252.7L265.91,253.22L266.31,250.51L266.71,246.67L267.1,249.09L267.5,247.17L267.9,244.86L268.3,246.89L268.7,245.81L269.5,239.32L269.9,242.06L271.1,248.23L271.5,244.64L271.9,245.56L272.29,243.9L273.09,248.4L273.49,246.08L273.89,241.62L274.29,253.28L275.09,249.56L275.49,242.37L275.89,244.62L276.29,242.53L276.69,244.38L277.09,238.29L278.28,247.8L278.68,243L279.08,248.43L279.48,243.44L279.88,243.09L280.28,240.29L280.68,244.61L281.08,243.1L281.48,242.81L281.88,243.17L282.28,240.32L283.87,236.94L284.27,231.98L285.87,203.75L286.27,205.87L287.47,201.44L287.87,195.58L288.66,205.1L289.06,204.65L289.46,204.07L291.46,158.24L291.86,160.31L292.26,157.39L292.66,159.19L293.06,159.4L293.46,158.21L293.85,159.98L294.65,138.13L295.05,236.33L295.45,234.24L295.85,236.92L297.45,228.1L297.85,234.52L298.25,230.86L298.65,217.27L299.44,218.63L299.84,226.3L301.84,253.87L302.24,256.45L303.04,259.33L303.44,258.07L304.24,258.61L304.63,257.24L305.83,247.78L306.23,246.78L307.03,247.7L307.43,252.5L307.83,253.05L308.23,251.13L308.63,252.2L309.03,256.22L309.43,259.53L309.83,254.97L311.02,274.46L311.42,262.98L311.82,266.31L312.22,260.33L313.42,264.46L313.82,265.92L315.02,274.24L315.41,270.51L315.81,265.07L316.21,272.83L316.61,272.02L317.01,276.58L317.41,271.1L317.81,274.32L318.21,276.66L319.01,271.95L319.41,274.38L319.81,273.48L320.21,273.94L320.61,275.58L321,275.12L321.4,270.32L321.8,275.44L322.2,272.44L322.6,270.58L323,270.63L323.4,276.25L324.6,283.73L325,274.93L326.19,283.14L326.59,280.83L326.99,282.63L327.39,281.14L327.79,288.16L328.19,289.68L328.59,288.24L328.99,289.62L329.39,285.55L329.79,285.2L330.19,288.02L330.59,288.32L330.99,289.62L331.39,288.04L331.78,290.53L332.58,283.88L332.98,220.52L333.78,30.53L334.18,68.91L335.78,262.1L336.18,260.28L336.58,259.96L337.37,258.14L337.77,258.98L338.57,254.92L338.97,250.77L339.37,247.95L339.77,249.29L340.17,249.65L340.97,259.81L341.37,256.12L341.77,260.39L342.56,252.15L342.96,252.61L343.36,253.65L343.76,246.99L344.16,255.54L344.56,254.47L344.96,255.56L345.76,252.75L346.16,249.15L346.96,249.03L347.36,250.49L348.15,251.96L348.55,255.2L348.95,255.66L349.35,258.04L350.15,259.22L350.55,260.88L350.95,260.99L351.35,265.07L353.34,255.01L353.74,257.9L354.94,244.7L355.34,241.4L355.74,241.34L356.14,242.52L357.34,235.64L357.74,238.63L358.14,235.54L358.53,235.82L358.93,237.21L359.33,239.71L359.73,236.45L361.33,250.97L361.73,253.95L362.13,245.94L362.53,249.82L362.93,246.33L364.12,231.54L364.52,234.49L364.92,232.11L365.32,235.12L365.72,236.67L366.12,233.65L366.52,229.24L366.92,234.56L367.32,233.32L367.72,235.37L368.12,234.41L368.52,228.05L370.51,239.67L370.91,220.71L372.51,181.93L372.91,194.18L374.11,231.62L374.51,231.99L375.3,228.13L375.7,229.45L376.1,227.36L376.5,217.08L378.9,242.09L379.3,240.86L379.7,235.74L380.09,245.75L380.89,252.24L381.29,249.24L381.69,246.27L382.09,248.27L382.49,250.17L382.89,248.89L383.29,250.2L383.69,245.68L384.09,246.48L384.49,247.7L384.89,245.26L385.29,253.76L385.68,249.8L386.08,254L386.88,259.79L387.28,257.6L388.88,243.66L389.28,244.74L389.68,243.58L390.08,245.31L390.87,247.59L391.27,243.16L392.87,225.65L393.27,225.71L393.67,226.05L394.87,221.55L395.27,230.04L395.67,233.54L396.07,230.75L396.46,229.28L396.86,228.87L397.26,232.53L397.66,231.07L398.06,232.77L399.66,246.53L400.06,242.88L401.65,232.71L402.05,239.7L402.85,248.24L403.25,247.76L403.65,248.42L404.05,243.34L404.45,247.14L404.85,244.43L406.05,249.36L406.45,249.87L406.85,250.88L407.24,247.18L408.44,240.53L408.84,240.83L410.44,251.16L410.84,256.37L411.24,255.86L411.64,257.61L412.43,248.44L412.83,252.66L415.23,265.13L415.63,262.81L416.03,264.05L416.43,262.34L417.23,254.18L417.63,257.08L418.42,257.48L418.82,256.66L420.02,262.2L420.42,261.53L420.82,265.01L421.22,264.26L421.62,258.73L422.02,263.72L422.42,263.61L422.82,255.18L423.21,257.96L423.61,253.77L424.01,253.26L424.41,247.93L425.21,258.63L425.61,253.29L426.01,257.64L426.41,255.79L426.81,254.09L428.41,237.13L428.8,240.31L429.2,235.63L429.6,240.94L430,241.59L430.4,237.93L431.2,243.05L431.6,239.69L432,241.76L432.4,238.47L432.8,239.02L433.2,236.29L433.6,239.69L433.99,235.39L434.79,232.95L435.19,234.83L436.39,220.46L436.79,205.6L437.99,193.93L438.39,194.86L439.58,180.7L439.98,164.11L440.38,161.43L440.78,161.77L441.18,153.3L441.58,137.94L441.98,235.86L443.18,220.65L443.58,222.81L443.98,217.82L444.38,218.09L444.77,219.62L445.97,246.37L446.37,253.52L447.17,256.04L447.57,253.91L449.17,244.39L449.57,246.55L449.97,245.45L450.36,247.03L450.76,247.22L451.16,252.14L452.36,266.44L452.76,265.42L453.16,263.11L453.56,261.09L453.96,267.63L454.36,261.23L454.76,270.39L455.55,269.56L455.95,273.68L456.35,272.45L456.75,266.69L457.55,273.92L457.95,270.61L458.35,270.92L458.75,268.08L459.95,273.81L460.35,274.67L461.54,279.93L461.94,277.47L462.34,278.26L462.74,282.28L463.14,281.69L463.54,283.8L464.34,289.55L464.74,288.14L465.14,285.95L465.54,285.12L465.94,289.69L466.73,207.79L467.13,78.91L467.53,75.05L467.93,114.3L469.13,259.05L469.53,256.85L469.93,257.84L471.13,243.96L471.53,252.29L471.92,248.85L472.32,253.06L472.72,255.24L473.12,252.54L473.52,253.43L473.92,252.79L474.32,249.39L474.72,252.23L475.12,250.75L475.52,248.81L476.32,245.71L476.72,241.59L477.91,256.68L478.31,257.32L479.51,264.28L479.91,259.7L482.7,233.43L483.1,234.91L483.9,230.86L484.3,234.52L484.7,234.19L485.1,240.33L486.3,251.63L486.7,240.76L488.29,226.5L488.69,231.57L489.09,232.7L489.49,227.52L489.89,219.07L490.29,231.47L491.09,224.13L491.49,233.35L491.89,228.95L492.29,208.29L493.09,188.81L493.48,190.44L493.88,198.75L495.08,226.44L495.48,225.9L495.88,215.9L496.28,221.19L496.68,225.31L498.28,242.07L498.67,241.34L499.87,246.21L500.27,246.98L500.67,245.21L501.07,239.86L501.87,254.85L502.27,253.33L502.67,252.38L503.07,256.78L503.47,251.62L504.66,240.88L505.06,243.6L505.46,240.67L507.86,219.5L508.26,224.81L508.66,217.84L509.06,222.19L509.45,225.85L510.25,230.15L510.65,235.54L511.05,241.15L511.45,238.64L511.85,234.16L512.25,232L512.65,232.59L513.05,236.21L513.85,245.86L514.25,243.73L514.65,244.04L515.04,246.76L515.44,243.65L515.84,243.62L516.24,244.41L516.64,241.57L517.04,242.37L517.44,241.62L517.84,241.47L518.24,242.64L519.04,250.28L519.44,248.5L520.23,252.16L520.63,249.66L521.83,260.88L522.23,259.24L523.43,254.22L523.83,254.41L524.23,253.61L524.63,258.96L525.03,258.99L525.43,262.03L525.82,263.28L526.22,259.74L527.02,254.6L527.42,250.26L528.62,251.69L529.02,250.86L530.62,237.89L531.01,233.43L531.81,235.62L532.21,230.98L532.61,236.47L533.01,233.89L533.41,235.07L535.41,221.88L535.81,208.93L537,184.93L537.4,182.42L539,144.18" style="vector-effect: non-scaling-stroke; fill: none; stroke: rgb(31, 119, 180); stroke-opacity: 1; stroke-width: 2px; opacity: 1;"/><g class="points"/></g><g class="trace scatter trace15291d" style="stroke-miterlimit: 2; opacity: 1;"><path class="js-line" d="M0,313.5L539,313.5" style="vector-effect: non-scaling-stroke; fill: none; stroke: rgb(255, 127, 14); stroke-opacity: 1; stroke-width: 2px; opacity: 1;"/><g class="points"/></g></g></g><g class="overplot"/><path class="xlines crisp" transform="translate(60,60)" d="M-1,330.5h541" style="fill: none; stroke-width: 1px; stroke: rgb(0, 0, 0); stroke-opacity: 0;"/><path class="ylines crisp" transform="translate(60,60)" d="M-0.5,-1v331" stroke-width="1px" style="fill: none; stroke: rgb(0, 0, 0); stroke-opacity: 0;"/><g class="overlines"/><g class="xaxislayer" transform="translate(60,60)"><g class="xtick" data-bb="6652"><text text-anchor="middle" x="0" y="344" transform="translate(79.45,0)" style="font-family: 'Open Sans', verdana, arial, sans-serif; font-size: 12px; fill: rgb(68, 68, 68); fill-opacity: 1; visibility: visible; white-space: pre;" data-bb="6645">200</text></g><g class="xtick" data-bb="6653"><text text-anchor="middle" x="0" y="344" transform="translate(159.3,0)" style="font-family: 'Open Sans', verdana, arial, sans-serif; font-size: 12px; fill: rgb(68, 68, 68); fill-opacity: 1; visibility: visible; white-space: pre;" data-bb="6646">400</text></g><g class="xtick" data-bb="6654"><text text-anchor="middle" x="0" y="344" transform="translate(239.16,0)" style="font-family: 'Open Sans', verdana, arial, sans-serif; font-size: 12px; fill: rgb(68, 68, 68); fill-opacity: 1; visibility: visible; white-space: pre;" data-bb="6647">600</text></g><g class="xtick" data-bb="6655"><text text-anchor="middle" x="0" y="344" transform="translate(319.01,0)" style="font-family: 'Open Sans', verdana, arial, sans-serif; font-size: 12px; fill: rgb(68, 68, 68); fill-opacity: 1; visibility: visible; white-space: pre;" data-bb="6648">800</text></g><g class="xtick" data-bb="6656"><text text-anchor="middle" x="0" y="344" transform="translate(398.86,0)" style="font-family: 'Open Sans', verdana, arial, sans-serif; font-size: 12px; fill: rgb(68, 68, 68); fill-opacity: 1; visibility: visible; white-space: pre;" data-bb="6649">1000</text></g><g class="xtick" data-bb="6657"><text text-anchor="middle" x="0" y="344" transform="translate(478.71,0)" style="font-family: 'Open Sans', verdana, arial, sans-serif; font-size: 12px; fill: rgb(68, 68, 68); fill-opacity: 1; visibility: visible; white-space: pre;" data-bb="6650">1200</text></g></g><g class="yaxislayer" transform="translate(60,60)"><g class="ytick" data-bb="6659"><text text-anchor="end" x="-2" y="6" transform="translate(0,313.5)" style="font-family: 'Open Sans', verdana, arial, sans-serif; font-size: 12px; fill: rgb(68, 68, 68); fill-opacity: 1; visibility: visible; white-space: pre;">0</text></g><g class="ytick" data-bb="6660"><text text-anchor="end" x="-2" y="6" transform="translate(0,243.92)" style="font-family: 'Open Sans', verdana, arial, sans-serif; font-size: 12px; fill: rgb(68, 68, 68); fill-opacity: 1; visibility: visible; white-space: pre;">500</text></g><g class="ytick" data-bb="6661"><text text-anchor="end" x="-2" y="6" transform="translate(0,174.33)" style="font-family: 'Open Sans', verdana, arial, sans-serif; font-size: 12px; fill: rgb(68, 68, 68); fill-opacity: 1; visibility: visible; white-space: pre;">1000</text></g><g class="ytick" data-bb="6662"><text text-anchor="end" x="-2" y="6" transform="translate(0,104.75)" style="font-family: 'Open Sans', verdana, arial, sans-serif; font-size: 12px; fill: rgb(68, 68, 68); fill-opacity: 1; visibility: visible; white-space: pre;">1500</text></g><g class="ytick" data-bb="6663"><text text-anchor="end" x="-2" y="6" transform="translate(0,35.16)" style="font-family: 'Open Sans', verdana, arial, sans-serif; font-size: 12px; fill: rgb(68, 68, 68); fill-opacity: 1; visibility: visible; white-space: pre;">2000</text></g></g><g class="overaxes"/></g></g><g class="ternarylayer"/><g class="geolayer"/><g class="layer-above"><g class="imagelayer"/><g class="shapelayer"/></g><g class="pielayer"/><g class="glimages"/><defs id="topdefs-38d9b4"><clipPath id="legend38d9b4"><rect width="78" height="48" x="0" y="0"/></clipPath></defs><g class="infolayer"><g class="g-gtitle"><text class="gtitle" x="350" y="30" text-anchor="middle" style="font-family: 'Open Sans', verdana, arial, sans-serif; font-size: 17px; fill: rgb(68, 68, 68); opacity: 1; font-weight: normal; white-space: pre; visibility: visible;">avenue: video_03</text></g><g class="g-xtitle" data-bb="6651"><text class="xtitle" x="329.5" y="442" text-anchor="middle" style="font-family: 'Open Sans', verdana, arial, sans-serif; font-size: 14px; fill: rgb(68, 68, 68); opacity: 1; font-weight: normal; white-space: pre; visibility: visible;">sample index</text></g><g class="g-ytitle" data-bb="6658" transform="translate(-1,0)"><text class="ytitle" transform="rotate(-90,22,225) translate(0, 0)" x="22" y="225" text-anchor="middle" style="font-family: 'Open Sans', verdana, arial, sans-serif; font-size: 14px; fill: rgb(68, 68, 68); opacity: 1; font-weight: normal; white-space: pre; visibility: visible;">reconstruction cost</text></g><g class="legend" pointer-events="all" transform="translate(609.78, 60)"><rect class="bg" shape-rendering="crispEdges" style="stroke: rgb(68, 68, 68); stroke-opacity: 1; fill: rgb(255, 255, 255); fill-opacity: 1; stroke-width: 0px;" width="78" height="48" x="0" y="0"/><g class="scrollbox" transform="translate(0, 0)" clip-path="url(#legend38d9b4)"><g class="groups"><g class="traces" transform="translate(0, 14.5)" style="opacity: 1;"><g class="layers" style="opacity: 1;"><g class="legendfill"/><g class="legendlines"><path class="js-line" d="M5,0h30" style="fill: none; stroke: rgb(31, 119, 180); stroke-opacity: 1; stroke-width: 2px;"/></g><g class="legendsymbols"><g class="legendpoints"/></g></g><text class="legendtext user-select-none" x="40" y="4.680000000000001" style="text-anchor: start; font-family: 'Open Sans', verdana, arial, sans-serif; font-size: 12px; fill: rgb(68, 68, 68); fill-opacity: 1; white-space: pre; visibility: visible;" data-bb="6664">recon</text><rect class="legendtoggle" pointer-events="all" style="cursor: pointer; fill: rgb(0, 0, 0); fill-opacity: 0;" x="0" y="-9.5" width="118" height="19"/></g><g class="traces" transform="translate(0, 33.5)" style="opacity: 1;"><g class="layers" style="opacity: 1;"><g class="legendfill"/><g class="legendlines"><path class="js-line" d="M5,0h30" style="fill: none; stroke: rgb(255, 127, 14); stroke-opacity: 1; stroke-width: 2px;"/></g><g class="legendsymbols"><g class="legendpoints"/></g></g><text class="legendtext user-select-none" x="40" y="4.680000000000001" style="text-anchor: start; font-family: 'Open Sans', verdana, arial, sans-serif; font-size: 12px; fill: rgb(68, 68, 68); fill-opacity: 1; white-space: pre; visibility: visible;" data-bb="6665">zero</text><rect class="legendtoggle" pointer-events="all" x="0" y="-9.5" width="118" height="19" style="cursor: pointer; fill: rgb(0, 0, 0); fill-opacity: 0;"/></g></g></g><rect class="scrollbar" rx="20" ry="2" width="0" height="0" style="fill: rgb(128, 139, 164); fill-opacity: 1;"/></g></g></svg>