<svg class="main-svg" xmlns="http://www.w3.org/2000/svg" xmlns:xlink="http://www.w3.org/1999/xlink" width="700" height="450"><rect x="0" y="0" width="700" height="450" style="fill: rgb(255, 255, 255); fill-opacity: 1;"/><defs id="defs-f0d36d"><g class="clips"><clipPath class="axesclip" id="clipf0d36dx"><rect x="60" y="0" width="539" height="450"/></clipPath><clipPath class="axesclip" id="clipf0d36dy"><rect x="0" y="60" width="700" height="330"/></clipPath><clipPath class="axesclip" id="clipf0d36dxy"><rect x="60" y="60" width="539" height="330"/></clipPath><clipPath class="plotclip" id="clipf0d36dxyplot"><rect width="539" height="330"/></clipPath></g></defs><g class="bglayer"><rect class="bg" x="60" y="60" width="539" height="330" style="fill: rgb(255, 255, 255); fill-opacity: 1; stroke-width: 0;"/></g><g class="layer-below"><g class="imagelayer"/><g class="shapelayer"/></g><g class="cartesianlayer"><g class="subplot xy"><g class="layer-subplot"><g class="shapelayer"/><g class="imagelayer"/></g><g class="gridlayer" transform="translate(60,60)"><path class="xgrid crisp" d="M0,0v330" transform="translate(125.17,0)" style="stroke: rgb(238, 238, 238); stroke-opacity: 1; stroke-width: 1px;"/><path class="xgrid crisp" d="M0,0v330" transform="translate(252.9,0)" style="stroke: rgb(238, 238, 238); stroke-opacity: 1; stroke-width: 1px;"/><path class="xgrid crisp" d="M0,0v330" transform="translate(380.62,0)" style="stroke: rgb(238, 238, 238); stroke-opacity: 1; stroke-width: 1px;"/><path class="xgrid crisp" d="M0,0v330" transform="translate(508.35,0)" style="stroke: rgb(238, 238, 238); stroke-opacity: 1; stroke-width: 1px;"/><path class="ygrid crisp" d="M0,0h539" transform="translate(0,249.92)" style="stroke: rgb(238, 238, 238); stroke-opacity: 1; stroke-width: 1px;"/><path class="ygrid crisp" d="M0,0h539" transform="translate(0,186.33)" style="stroke: rgb(238, 238, 238); stroke-opacity: 1; stroke-width: 1px;"/><path class="ygrid crisp" d="M0,0h539" transform="translate(0,122.75)" style="stroke: rgb(238, 238, 238); stroke-opacity: 1; stroke-width: 1px;"/><path class="ygrid crisp" d="M0,0h539" transform="translate(0,59.16)" style="stroke: rgb(238, 238, 238); stroke-opacity: 1; stroke-width: 1px;"/></g><g class="overgrid"/><g class="zerolinelayer" transform="translate(60,60)"><path class="yzl zl crisp" d="M0,0h539" transform="translate(0,313.5)" style="stroke: rgb(68, 68, 68); stroke-opacity: 1; stroke-width: 1px;"/></g><g class="overzero"/><g class="plot" transform="translate(60, 60)" clip-path="url(#clipf0d36dxyplot)"><g class="imagelayer"/><g class="maplayer"/><g class="barlayer"/><g class="carpetlayer"/><g class="boxlayer"/><g class="scatterlayer"><g class="trace scatter traced3fbb1" style="stroke-miterlimit: 2; opacity: 1;"><path class="js-line" d="M0,207.96L2.55,207.78L5.11,197.83L7.66,203.35L10.22,206.79L12.77,201.88L15.33,201.81L17.88,192.37L20.44,197.65L22.99,197.59L25.55,192.81L28.1,198.01L30.65,198.6L33.21,199.09L35.76,202.29L40.87,190.59L43.43,189.98L45.98,187.89L48.54,189.39L51.09,187.24L53.64,179.48L56.2,183.87L58.75,184.83L61.31,187.05L63.86,184.46L66.42,188.58L68.97,188.2L71.53,186.05L74.08,180.91L76.64,177.55L79.19,175.93L81.74,170.41L84.3,171.99L91.96,174.53L94.52,172.89L97.07,173.47L99.63,175.56L102.18,178.75L104.73,180.67L107.29,187.48L109.84,189.03L112.4,189.77L114.95,185.6L120.06,182.07L122.62,179.32L125.17,181.19L127.73,189.38L130.28,195.43L132.83,197.18L135.39,201.99L137.94,199.96L140.5,205.35L143.05,208.96L148.16,210.33L150.72,216.34L155.82,217.24L158.38,212.48L160.93,206.05L163.49,201.9L168.6,201.08L171.15,209.29L173.71,205.13L176.26,209.21L178.82,211.6L181.37,210.65L183.92,209.8L186.48,206.39L189.03,208.78L191.59,205.17L194.14,202.15L196.7,195.88L201.81,185.71L204.36,182.07L206.91,178.34L209.47,172.08L212.02,170.47L214.58,164.21L217.13,155.4L219.69,141.31L222.24,126.08L224.8,121.04L227.35,122.59L229.91,125.6L232.46,112.69L235.01,89.8L237.57,83.36L240.12,88.17L245.23,114.5L247.79,115.83L252.9,99.76L255.45,97.36L258,99.69L260.56,97.24L263.11,98.79L265.67,95.46L268.22,96.46L270.78,103.36L273.33,105.51L275.89,106.3L278.44,107.39L281,104.67L283.55,108.13L286.1,105.69L288.66,114.59L291.21,112.44L293.77,113.61L296.32,98.11L298.88,70.97L301.43,199.46L303.99,189.92L306.54,187.21L309.09,182.03L311.65,190.91L314.2,191.33L316.76,185.07L319.31,182.82L321.87,174.66L324.42,169.88L326.98,169.66L329.53,175.51L332.09,173.84L334.64,167.72L337.19,166.41L342.3,157.86L344.86,158.64L347.41,163.08L349.97,163L352.52,167.48L355.08,165.67L357.63,165.58L360.18,169.28L365.29,184.78L367.85,196.15L370.4,199.67L372.96,200.03L375.51,201.68L378.07,198L380.62,192.97L383.18,197.26L385.73,197.9L388.28,200.27L390.84,193.51L393.39,189.36L395.95,177.03L398.5,170.2L401.06,158.03L403.61,141.4L406.17,112.38L408.72,92.85L418.94,52.02L421.49,55.53L424.05,63.91L426.6,63.3L429.16,54.66L431.71,58.72L434.27,77.63L436.82,75.48L439.37,71.67L441.93,76.27L444.48,68.86L447.04,186.92L449.59,184.48L452.15,179.83L454.7,170.65L457.26,165.5L459.81,158.43L462.36,161.63L464.92,161.26L467.47,159.32L470.03,155.24L472.58,152.79L475.14,150.49L477.69,154.52L480.25,151.06L482.8,154.13L487.91,173.4L490.46,189.46L493.02,194.12L495.57,190.5L500.68,186.58L503.24,184.32L508.35,160.94L510.9,141.14L516.01,71.17L518.56,61.01L521.12,48.39L523.67,22.03L526.23,16.5L528.78,28.8L531.34,32.68L533.89,38.82L536.45,50.8L539,37.83" style="vector-effect: non-scaling-stroke; fill: none; stroke: rgb(31, 119, 180); stroke-opacity: 1; stroke-width: 2px; opacity: 1;"/><g class="points"/></g><g class="trace scatter tracefd0bfa" style="stroke-miterlimit: 2; opacity: 1;"><path class="js-line" d="M0,313.5L539,313.5" style="vector-effect: non-scaling-stroke; fill: none; stroke: rgb(255, 127, 14); stroke-opacity: 1; stroke-width: 2px; opacity: 1;"/><g class="points"/></g></g></g><g class="overplot"/><path class="xlines crisp" transform="translate(60,60)" d="M-1,330.5h541" style="fill: none; stroke-width: 1px; stroke: rgb(0, 0, 0); stroke-opacity: 0;"/><path class="ylines crisp" transform="translate(60,60)" d="M-0.5,-1v331" stroke-width="1px" style="fill: none; stroke: rgb(0, 0, 0); stroke-opacity: 0;"/><g class="overlines"/><g class="xaxislayer" transform="translate(60,60)"><g class="xtick" data-bb="7210"><text text-anchor="middle" x="0" y="344" transform="translate(125.17,0)" style="font-family: 'Open Sans', verdana, arial, sans-serif; font-size: 12px; fill: rgb(68, 68, 68); fill-opacity: 1; visibility: visible; white-space: pre;" data-bb="7205">50</text></g><g class="xtick" data-bb="7211"><text text-anchor="middle" x="0" y="344" transform="translate(252.9,0)" style="font-family: 'Open Sans', verdana, arial, sans-serif; font-size: 12px; fill: rgb(68, 68, 68); fill-opacity: 1; visibility: visible; white-space: pre;" data-bb="7206">100</text></g><g class="xtick" data-bb="7212"><text text-anchor="middle" x="0" y="344" transform="translate(380.62,0)" style="font-family: 'Open Sans', verdana, arial, sans-serif; font-size: 12px; fill: rgb(68, 68, 68); fill-opacity: 1; visibility: visible; white-space: pre;" data-bb="7207">150</text></g><g class="xtick" data-bb="7213"><text text-anchor="middle" x="0" y="344" transform="translate(508.35,0)" style="font-family: 'Open Sans', verdana, arial, sans-serif; font-size: 12px; fill: rgb(68, 68, 68); fill-opacity: 1; visibility: visible; white-space: pre;" data-bb="7208">200</text></g></g><g class="yaxislayer" transform="translate(60,60)"><g class="ytick" data-bb="7215"><text text-anchor="end" x="-2" y="6" transform="translate(0,313.5)" style="font-family: 'Open Sans', verdana, arial, sans-serif; font-size: 12px; fill: rgb(68, 68, 68); fill-opacity: 1; visibility: visible; white-space: pre;">0</text></g><g class="ytick" data-bb="7216"><text text-anchor="end" x="-2" y="6" transform="translate(0,249.92)" style="font-family: 'Open Sans', verdana, arial, sans-serif; font-size: 12px; fill: rgb(68, 68, 68); fill-opacity: 1; visibility: visible; white-space: pre;">500</text></g><g class="ytick" data-bb="7217"><text text-anchor="end" x="-2" y="6" transform="translate(0,186.33)" style="font-family: 'Open Sans', verdana, arial, sans-serif; font-size: 12px; fill: rgb(68, 68, 68); fill-opacity: 1; visibility: visible; white-space: pre;">1000</text></g><g class="ytick" data-bb="7218"><text text-anchor="end" x="-2" y="6" transform="translate(0,122.75)" style="font-family: 'Open Sans', verdana, arial, sans-serif; font-size: 12px; fill: rgb(68, 68, 68); fill-opacity: 1; visibility: visible; white-space: pre;">1500</text></g><g class="ytick" data-bb="7219"><text text-anchor="end" x="-2" y="6" transform="translate(0,59.16)" style="font-family: 'Open Sans', verdana, arial, sans-serif; font-size: 12px; fill: rgb(68, 68, 68); fill-opacity: 1; visibility: visible; white-space: pre;">2000</text></g></g><g class="overaxes"/></g></g><g class="ternarylayer"/><g class="geolayer"/><g class="layer-above"><g class="imagelayer"/><g class="shapelayer"/></g><g class="pielayer"/><g class="glimages"/><defs id="topdefs-f0d36d"><clipPath id="legendf0d36d"><rect width="78" height="48" x="0" y="0"/></clipPath></defs><g class="infolayer"><g class="g-gtitle"><text class="gtitle" x="350" y="30" text-anchor="middle" style="font-family: 'Open Sans', verdana, arial, sans-serif; font-size: 17px; fill: rgb(68, 68, 68); opacity: 1; font-weight: normal; white-space: pre; visibility: visible;">avenue: video_16</text></g><g class="g-xtitle" data-bb="7209"><text class="xtitle" x="329.5" y="442" text-anchor="middle" style="font-family: 'Open Sans', verdana, arial, sans-serif; font-size: 14px; fill: rgb(68, 68, 68); opacity: 1; font-weight: normal; white-space: pre; visibility: visible;">sample index</text></g><g class="g-ytitle" data-bb="7214" transform="translate(-1,0)"><text class="ytitle" transform="rotate(-90,22,225) translate(0, 0)" x="22" y="225" text-anchor="middle" style="font-family: 'Open Sans', verdana, arial, sans-serif; font-size: 14px; fill: rgb(68, 68, 68); opacity: 1; font-weight: normal; white-space: pre; visibility: visible;">reconstruction cost</text></g><g class="legend" pointer-events="all" transform="translate(609.78, 60)"><rect class="bg" shape-rendering="crispEdges" style="stroke: rgb(68, 68, 68); stroke-opacity: 1; fill: rgb(255, 255, 255); fill-opacity: 1; stroke-width: 0px;" width="78" height="48" x="0" y="0"/><g class="scrollbox" transform="translate(0, 0)" clip-path="url(#legendf0d36d)"><g class="groups"><g class="traces" transform="translate(0, 14.5)" style="opacity: 1;"><g class="layers" style="opacity: 1;"><g class="legendfill"/><g class="legendlines"><path class="js-line" d="M5,0h30" style="fill: none; stroke: rgb(31, 119, 180); stroke-opacity: 1; stroke-width: 2px;"/></g><g class="legendsymbols"><g class="legendpoints"/></g></g><text class="legendtext user-select-none" x="40" y="4.680000000000001" style="text-anchor: start; font-family: 'Open Sans', verdana, arial, sans-serif; font-size: 12px; fill: rgb(68, 68, 68); fill-opacity: 1; white-space: pre; visibility: visible;" data-bb="7220">recon</text><rect class="legendtoggle" pointer-events="all" style="cursor: pointer; fill: rgb(0, 0, 0); fill-opacity: 0;" x="0" y="-9.5" width="118" height="19"/></g><g class="traces" transform="translate(0, 33.5)" style="opacity: 1;"><g class="layers" style="opacity: 1;"><g class="legendfill"/><g class="legendlines"><path class="js-line" d="M5,0h30" style="fill: none; stroke: rgb(255, 127, 14); stroke-opacity: 1; stroke-width: 2px;"/></g><g class="legendsymbols"><g class="legendpoints"/></g></g><text class="legendtext user-select-none" x="40" y="4.680000000000001" style="text-anchor: start; font-family: 'Open Sans', verdana, arial, sans-serif; font-size: 12px; fill: rgb(68, 68, 68); fill-opacity: 1; white-space: pre; visibility: visible;" data-bb="7221">zero</text><rect class="legendtoggle" pointer-events="all" x="0" y="-9.5" width="118" height="19" style="cursor: pointer; fill: rgb(0, 0, 0); fill-opacity: 0;"/></g></g></g><rect class="scrollbar" rx="20" ry="2" width="0" height="0" style="fill: rgb(128, 139, 164); fill-opacity: 1;"/></g></g></svg>