<svg class="main-svg" xmlns="http://www.w3.org/2000/svg" xmlns:xlink="http://www.w3.org/1999/xlink" width="700" height="450"><rect x="0" y="0" width="700" height="450" style="fill: rgb(255, 255, 255); fill-opacity: 1;"/><defs id="defs-2c46ce"><g class="clips"><clipPath class="axesclip" id="clip2c46cex"><rect x="60" y="0" width="539" height="450"/></clipPath><clipPath class="axesclip" id="clip2c46cey"><rect x="0" y="60" width="700" height="330"/></clipPath><clipPath class="axesclip" id="clip2c46cexy"><rect x="60" y="60" width="539" height="330"/></clipPath><clipPath class="plotclip" id="clip2c46cexyplot"><rect width="539" height="330"/></clipPath></g></defs><g class="bglayer"><rect class="bg" x="60" y="60" width="539" height="330" style="fill: rgb(255, 255, 255); fill-opacity: 1; stroke-width: 0;"/></g><g class="layer-below"><g class="imagelayer"/><g class="shapelayer"/></g><g class="cartesianlayer"><g class="subplot xy"><g class="layer-subplot"><g class="shapelayer"/><g class="imagelayer"/></g><g class="gridlayer" transform="translate(60,60)"><path class="xgrid crisp" d="M0,0v330" transform="translate(86.71,0)" style="stroke: rgb(238, 238, 238); stroke-opacity: 1; stroke-width: 1px;"/><path class="xgrid crisp" d="M0,0v330" transform="translate(173.86,0)" style="stroke: rgb(238, 238, 238); stroke-opacity: 1; stroke-width: 1px;"/><path class="xgrid crisp" d="M0,0v330" transform="translate(261,0)" style="stroke: rgb(238, 238, 238); stroke-opacity: 1; stroke-width: 1px;"/><path class="xgrid crisp" d="M0,0v330" transform="translate(348.15,0)" style="stroke: rgb(238, 238, 238); stroke-opacity: 1; stroke-width: 1px;"/><path class="xgrid crisp" d="M0,0v330" transform="translate(435.3,0)" style="stroke: rgb(238, 238, 238); stroke-opacity: 1; stroke-width: 1px;"/><path class="xgrid crisp" d="M0,0v330" transform="translate(522.44,0)" style="stroke: rgb(238, 238, 238); stroke-opacity: 1; stroke-width: 1px;"/><path class="ygrid crisp" d="M0,0h539" transform="translate(0,276.01)" style="stroke: rgb(238, 238, 238); stroke-opacity: 1; stroke-width: 1px;"/><path class="ygrid crisp" d="M0,0h539" transform="translate(0,238.51)" style="stroke: rgb(238, 238, 238); stroke-opacity: 1; stroke-width: 1px;"/><path class="ygrid crisp" d="M0,0h539" transform="translate(0,201.02)" style="stroke: rgb(238, 238, 238); stroke-opacity: 1; stroke-width: 1px;"/><path class="ygrid crisp" d="M0,0h539" transform="translate(0,163.53)" style="stroke: rgb(238, 238, 238); stroke-opacity: 1; stroke-width: 1px;"/><path class="ygrid crisp" d="M0,0h539" transform="translate(0,126.03)" style="stroke: rgb(238, 238, 238); stroke-opacity: 1; stroke-width: 1px;"/><path class="ygrid crisp" d="M0,0h539" transform="translate(0,88.54)" style="stroke: rgb(238, 238, 238); stroke-opacity: 1; stroke-width: 1px;"/><path class="ygrid crisp" d="M0,0h539" transform="translate(0,51.05)" style="stroke: rgb(238, 238, 238); stroke-opacity: 1; stroke-width: 1px;"/><path class="ygrid crisp" d="M0,0h539" transform="translate(0,13.56)" style="stroke: rgb(238, 238, 238); stroke-opacity: 1; stroke-width: 1px;"/></g><g class="overgrid"/><g class="zerolinelayer" transform="translate(60,60)"><path class="yzl zl crisp" d="M0,0h539" transform="translate(0,313.5)" style="stroke: rgb(68, 68, 68); stroke-opacity: 1; stroke-width: 1px;"/></g><g class="overzero"/><g class="plot" transform="translate(60, 60)" clip-path="url(#clip2c46cexyplot)"><g class="imagelayer"/><g class="maplayer"/><g class="barlayer"/><g class="carpetlayer"/><g class="boxlayer"/><g class="scatterlayer"><g class="trace scatter trace6bc25a" style="stroke-miterlimit: 2; opacity: 1;"><path class="js-line" d="M0,219.18L0.87,212.22L1.31,213.67L1.74,213.27L2.61,220.6L3.05,219.68L3.49,215.89L3.92,215.37L4.36,216.67L4.79,208.04L5.23,213.1L5.66,216.65L7.41,223.94L7.84,217.36L9.15,230.69L9.59,236.39L10.02,232.38L10.46,237.53L11.76,245.06L12.2,243.8L12.64,251.74L13.07,245.91L13.51,249.07L13.94,243.51L15.25,238.01L15.69,233.39L16.12,238.26L16.56,231.92L16.99,235.3L17.43,232.65L18.3,238.22L18.74,237.46L19.17,238.28L19.61,242.32L20.04,238.49L20.48,241.22L20.92,237.42L21.79,245.11L22.22,243.7L22.66,241.9L23.09,233.16L23.97,224.11L24.4,215.37L24.84,219.09L25.27,218.17L25.71,211.28L27.02,193.55L27.45,181.45L27.89,182.78L28.32,180.48L29.63,204.27L30.07,199.08L30.5,198.12L30.94,194.32L31.37,189.5L31.81,176.09L32.24,176.55L32.68,152.07L35.29,99.12L35.73,94.24L36.6,96.2L37.04,88.11L38.34,75.27L38.78,94.16L39.22,100.89L39.65,100.48L40.09,91.92L40.52,89.95L40.96,83.25L41.39,85.14L41.83,99.15L43.14,135.26L43.57,130.88L46.19,169.89L46.62,171.26L47.06,179.32L47.49,171.29L47.93,170.23L48.37,172.32L48.8,172.21L49.24,174.52L50.54,189.25L50.98,181.64L51.42,175.95L51.85,176.91L52.29,175.32L52.72,173.87L53.16,178.46L53.59,181.44L54.03,179.46L54.47,172.87L56.21,144.94L56.65,147.91L57.52,155.1L57.95,151.14L58.39,148.3L58.82,154.19L62.75,187.61L63.18,187.57L64.05,205.73L64.49,204.92L64.92,203.28L66.23,194.13L66.67,194.31L67.1,191.61L67.54,191.97L67.97,192.96L68.41,190.9L68.85,198.83L70.15,214.55L70.59,205.9L71.02,214.77L71.46,201.27L71.9,206.52L72.33,199.42L72.77,202.43L73.2,197.22L73.64,196.32L74.07,196.58L74.51,199.04L75.38,196.09L75.82,199.33L76.25,203.95L76.69,199.31L77.12,196.63L77.56,173.95L78,186.2L78.43,177.13L78.87,177.53L79.3,179.13L79.74,174.84L80.17,180.81L80.61,182.03L81.05,169.93L82.35,136.83L82.79,140.09L83.22,146.3L84.53,165.37L84.97,160.57L86.27,130.75L86.71,132.46L87.15,141.68L88.89,175.42L89.32,173.82L89.76,180.66L90.2,180.45L90.63,172.8L91.07,166.4L91.5,169.79L91.94,171.63L92.81,180.68L93.25,178.6L93.68,176.52L94.12,182.09L94.55,179.52L94.99,180.51L95.86,173.75L96.3,182.76L97.6,190.83L98.04,187.62L98.48,191.96L98.91,187.61L99.35,186.61L99.78,186.84L100.22,191.8L101.09,180.55L101.53,185.63L104.14,210.32L104.58,217.91L105.88,246.05L106.32,244.07L106.75,243.87L107.19,252.44L107.63,251.3L108.06,248.79L108.93,239.03L109.37,239.8L109.8,240.56L110.24,239.32L110.68,235.34L111.55,233.01L111.98,232.7L112.42,230.31L112.85,234.46L113.29,234.98L113.73,237.39L114.16,231.75L114.6,232.49L115.03,234.92L116.34,242.26L116.78,238.91L117.21,240.68L117.65,248.16L118.08,249.87L118.52,255.46L119.39,259.96L119.83,256.81L120.26,260.75L120.7,257.59L121.13,254.5L121.57,256.99L122,257.76L122.44,260.77L122.88,259.32L123.31,260.02L123.75,262.37L124.18,262.05L124.62,266.65L125.05,263.22L125.49,265.4L125.93,262.56L126.8,258.25L127.23,261.99L128.54,256.41L128.98,259.25L129.41,259.69L129.85,259.21L130.28,262.22L130.72,263.79L131.16,263.26L131.59,259.46L132.9,264.86L133.33,261.04L133.77,264.08L134.21,261.08L134.64,256.86L135.08,266.44L135.51,258L135.95,265.34L136.38,265.73L136.82,263.53L137.26,254.41L137.69,255.32L138.13,252L138.56,250.75L139,251.46L139.43,251.86L139.87,252.65L140.31,250.39L141.61,255.41L142.05,248.41L142.48,249.86L142.92,244.83L143.36,245.8L143.79,242.27L144.23,244.7L144.66,242.03L145.53,246.3L145.97,242.63L146.41,243.1L146.84,255.03L148.15,261.34L148.58,260.11L149.02,264.72L149.46,265.27L149.89,263.31L151.63,257.34L152.07,252.69L152.51,247.15L152.94,249.07L153.38,245.77L153.81,242.79L154.25,245.28L155.12,232.74L155.56,233.4L155.99,240.68L156.43,238.6L156.86,240.38L157.3,234.35L157.73,246.71L158.17,246.79L158.61,243.18L159.04,250.94L159.48,249.47L159.91,246.72L160.78,253.05L161.22,250.38L161.66,252.95L162.09,251.6L162.53,252.38L163.84,241.52L164.27,244L165.14,244.04L165.58,247.59L166.01,250.3L166.45,245.74L166.89,249.05L167.32,245.4L167.76,246.34L168.19,245.54L168.63,231.14L169.06,248.3L169.5,248.12L169.94,244.37L171.68,261.09L172.11,254.48L172.55,252.76L172.99,257.88L173.42,259.42L173.86,256.33L174.73,260.39L175.16,253.11L175.6,255.72L176.04,247.4L177.34,256.71L177.78,254.59L178.21,254.04L178.65,246.46L179.52,250.27L179.96,255.44L181.26,256.69L181.7,259.51L182.14,262.27L182.57,261.1L183.01,255L183.44,253.74L183.88,249.9L185.19,240.29L185.62,244.42L186.06,244.53L186.49,246.77L186.93,245.75L187.36,241.52L188.67,226.16L189.11,221.96L189.54,223.58L189.98,219.23L192.16,221.33L192.59,220.77L193.03,220.95L193.46,219.86L193.9,212.11L194.34,214.65L194.77,215.12L195.21,211.12L195.64,216.78L196.08,219.73L196.51,217.98L196.95,227.85L200.44,276.79L200.87,276.43L201.31,276.68L201.74,275.72L203.49,269.05L203.92,275.41L204.36,275.16L204.79,268.91L206.1,279.61L206.54,278.7L206.97,278.1L207.41,275.48L207.84,278.47L208.28,277.72L208.72,274.94L209.15,273.14L209.59,277.82L210.02,275.3L210.46,275.47L210.89,278.62L211.77,280.06L212.2,278.39L212.64,276.56L213.07,280.09L213.51,279.09L213.94,272.37L214.38,279.96L214.82,277.97L215.25,280.04L216.12,277.49L216.56,270.32L217.43,278.66L217.87,256.68L218.3,280.2L218.74,279.34L219.17,268.91L219.61,276.44L220.04,274.33L220.48,271.36L220.92,256.49L221.35,268.75L222.22,260.71L222.66,269.06L224.84,264.33L225.27,253.29L225.71,257.4L226.14,242.97L227.45,260.63L227.89,261.09L228.76,253.26L229.19,255.46L229.63,259.64L230.07,261.6L230.5,255.34L230.94,255.47L231.37,252.7L231.81,251.32L232.24,257.38L232.68,251.43L233.12,254.32L233.55,252.64L236.17,267.9L236.6,252.15L237.91,270.39L238.35,268.91L238.78,271.57L239.22,271.45L239.65,270.43L240.09,275.41L240.52,274.9L240.96,274.59L241.4,276.83L241.83,273.26L242.7,271.23L243.14,265.63L245.32,277.14L245.75,279.01L246.19,274.31L246.62,276.06L247.06,276.52L247.5,280.7L247.93,279.19L248.37,280.56L248.8,274.76L249.24,280.71L249.67,281.21L250.11,276.64L250.98,283.32L251.42,279.01L251.85,285.5L252.29,282.64L252.72,282.27L253.16,283.49L253.6,278.13L254.03,281L254.47,275.62L254.9,283.73L255.34,271.74L256.21,279.49L256.65,274.11L257.08,283.23L257.52,281.16L257.95,280.45L259.26,276L259.7,278.64L260.57,282.78L261,280.96L261.44,278.38L261.87,280.29L262.31,283.48L263.18,279.13L263.62,283.37L264.49,283.75L264.92,282.73L265.36,280.56L265.8,272.01L266.23,282.88L266.67,282.04L267.1,281.67L267.54,282.83L267.97,282.38L268.41,280.69L268.85,283.28L269.28,282.82L269.72,283.11L270.15,278.81L270.59,278.9L271.03,283.99L271.9,275.69L272.33,282.92L274.51,273.25L274.95,277.8L275.38,277.21L275.82,274.63L276.25,273.96L276.69,279.05L277.13,274.09L277.56,274.37L278,276.73L278.43,278.88L278.87,273.75L279.74,279.39L280.18,278.67L280.61,278.68L281.05,279.49L281.48,274.03L282.35,279.47L282.79,278.25L283.23,277.06L284.53,268.4L284.97,269.15L285.4,268.56L286.28,264.88L286.71,267.71L287.15,270.92L287.58,268.37L288.02,269.54L288.45,267.49L288.89,267.79L289.33,270.16L290.2,272.04L290.63,271.31L291.07,273.81L291.5,272.71L291.94,272.17L292.38,268.9L292.81,273.63L293.68,269.56L294.12,271.05L294.55,268.91L294.99,271.5L295.86,193.89L296.3,193.93L296.73,194.97L297.17,199.96L297.6,195.76L298.04,204.25L300.65,234.83L301.09,239.75L302.83,232.25L303.27,227.85L304.58,236.37L305.01,232.43L306.32,230.04L306.76,224.37L308.5,167.61L308.93,178.95L309.81,184.38L310.24,179.93L311.55,111.17L311.98,75.53L312.42,53.59L312.86,57.34L313.29,52.34L313.73,41.23L314.16,45.99L314.6,45.26L315.03,42.62L315.47,52.85L315.91,55.31L316.34,74.94L318.08,150.24L318.52,153.47L318.96,146.45L319.39,150L319.83,162.36L320.26,161.77L320.7,170.62L321.13,168.52L321.57,158.32L322.01,155.17L322.44,145.85L323.75,122.66L324.18,130.58L326.36,171.02L326.8,176.24L327.23,186.45L327.67,183.18L328.11,182L328.98,170.64L329.41,180.47L330.28,192.98L330.72,184.91L331.16,188.32L331.59,177.54L332.03,178.4L332.46,185.27L332.9,185.02L333.33,180.8L335.08,140.72L335.51,115.93L336.38,79.42L336.82,103.62L337.26,115.98L337.69,95.08L338.56,100.93L339,121.66L340.31,150.49L340.74,148.21L342.05,153.01L342.49,160.95L342.92,161.84L343.36,165.19L343.79,177.12L344.23,170.05L344.66,162.77L346.41,184.61L346.84,202.71L348.59,248.59L349.02,243.26L349.46,242.2L351.2,219.52L351.64,224.39L352.07,215.12L352.51,224.54L353.81,242.07L354.25,238.02L355.12,254.24L355.56,255.28L356.86,264.68L357.3,261.92L357.74,262.59L358.17,254.56L359.48,256.93L359.91,255.45L360.79,262.8L361.22,263.27L361.66,265.94L362.09,261.96L362.53,262.84L362.96,259.34L364.71,245.59L365.14,246.45L365.58,249.07L366.01,248.17L366.45,243.72L367.76,236.12L368.19,248.06L369.94,262.59L370.37,261.39L372.99,228.52L373.42,235.12L374.29,242.18L374.73,240.31L375.6,251.14L376.04,245.17L376.47,245.37L376.91,244.02L377.78,241.77L378.22,245.29L379.09,240.44L379.52,240.94L379.96,243.11L380.39,228.17L380.83,248.46L381.27,241.06L381.7,250.56L382.14,250.6L382.57,248.05L383.01,254.46L383.44,248.14L383.88,243.4L384.32,245.53L384.75,253.41L385.19,246.13L385.62,246.86L386.06,249.52L387.37,242.45L387.8,241.85L389.98,214.7L390.42,220.82L391.72,212.02L392.16,212.1L392.59,215.64L393.03,214.04L393.47,228.87L395.21,269.13L395.64,267.18L396.08,275.43L396.52,274.72L396.95,273.98L397.82,276.18L398.26,268.89L398.69,279.04L399.13,272.98L399.57,274.34L400,276.11L400.44,272.22L400.87,281.94L401.31,278.31L401.74,269.31L402.18,276.98L402.62,274.37L403.05,274.5L403.49,276.05L403.92,274.27L404.36,277.31L404.79,272.99L405.67,258.82L406.1,268.6L409.15,248.49L409.59,250.03L410.46,242.74L410.89,244.89L411.33,240.22L411.77,249.07L412.2,247.92L412.64,256.78L413.07,257.52L413.51,263.36L413.95,265.64L414.38,262.88L415.25,271.66L415.69,268.41L416.12,266.97L416.56,268.61L417.43,271.84L417.87,277.71L418.3,279.39L418.74,277.26L420.05,279.29L420.48,281.54L420.92,280.64L421.35,285.48L421.79,279.85L422.22,282.2L422.66,283.9L423.97,278.29L424.4,283.16L424.84,275.78L425.27,280.93L425.71,280.68L426.15,278.69L426.58,284.54L427.02,274.4L427.45,279.36L427.89,276.84L428.76,283.65L429.2,282.44L429.63,274.56L430.5,282.77L430.94,275.59L431.37,274.82L431.81,275.15L432.25,279L433.55,273.77L433.99,269.08L434.86,276.44L435.3,275.17L435.73,277.54L436.17,275.31L437.47,266.4L437.91,263.86L438.35,262.52L438.78,262.75L439.22,266.25L439.65,269.2L440.09,267.07L440.52,258.87L440.96,270.14L441.4,268.38L441.83,272.01L442.7,189.82L443.14,179.3L444.88,220.34L445.32,227.56L445.75,232.19L446.19,230.89L446.62,226.13L447.06,224.65L447.5,226.37L447.93,223.14L448.37,229.85L449.68,202.05L450.11,192.72L451.85,154.69L452.29,112.68L453.6,38.2L454.03,29.72L454.47,16.5L454.9,22.69L455.34,27.68L455.78,36.33L456.21,63.72L457.52,127.85L457.95,133.16L458.83,158.55L459.26,147.89L461,105.57L461.44,128.79L463.62,160.48L464.05,159.73L465.36,172.09L465.8,164.35L466.23,164.28L466.67,162.74L467.1,167.42L467.54,156.57L467.98,141.38L468.41,90.85L469.28,55.83L469.72,65.36L471.03,84.13L471.46,110.8L473.2,139.66L473.64,146.36L474.08,148.26L474.51,155.74L475.38,161.15L475.82,178.97L477.56,237.09L478,235.25L478.43,227L479.3,213.22L479.74,218.98L480.18,221.78L480.61,237.33L481.92,256.06L482.35,252.75L482.79,257.83L483.23,257.16L483.66,255.87L484.1,256.37L484.53,255.05L485.84,264.53L486.28,260.03L486.71,260.27L487.15,255.69L489.33,241.09L489.76,243.34L490.2,241L490.63,250.19L491.94,255.23L492.38,247.96L493.25,236.29L493.68,237.25L494.12,233.46L494.56,242.07L495.43,247.34L495.86,236.01L496.3,242.46L496.73,237.74L497.17,240.54L497.61,238.95L498.04,239.02L498.48,237.9L498.91,242.54L499.35,238.74L499.78,245.34L500.22,248.97L500.66,247.27L501.09,245.17L501.96,246.63L502.4,242.45L502.83,240.24L503.27,240.56L503.71,230.09L504.58,224.15L505.01,214.23L505.45,213.04L505.88,209.06L506.32,208.91L506.76,218.98L509.37,277.28L509.81,277.67L510.24,276.72L510.68,278.29L511.11,278.23L511.55,273.59L512.42,280.34L512.86,278.62L513.29,278.9L513.73,280.43L514.6,264.48L515.03,271.97L515.47,269.82L515.91,257.65L516.34,253.17L516.78,254.81L517.21,253.19L518.52,239.94L518.96,240.32L519.39,234.58L519.83,243.78L521.57,265.68L522.01,265.28L522.88,268.67L523.31,271.14L524.19,276.76L524.62,275.06L525.49,283.6L525.93,283.48L526.36,273.85L526.8,280.74L527.24,278.27L527.67,281.3L528.11,280.53L528.54,281.45L528.98,278.91L529.41,283.63L530.29,280.47L530.72,280.66L531.16,283.68L532.46,275.73L532.9,276.9L533.34,273.89L533.77,277.18L534.21,275.81L534.64,277.98L536.82,268.07L537.26,251.58L538.56,268.32L539,254.78" style="vector-effect: non-scaling-stroke; fill: none; stroke: rgb(31, 119, 180); stroke-opacity: 1; stroke-width: 2px; opacity: 1;"/><g class="points"/></g><g class="trace scatter trace1e3b62" style="stroke-miterlimit: 2; opacity: 1;"><path class="js-line" d="M0,313.5L539,313.5" style="vector-effect: non-scaling-stroke; fill: none; stroke: rgb(255, 127, 14); stroke-opacity: 1; stroke-width: 2px; opacity: 1;"/><g class="points"/></g></g></g><g class="overplot"/><path class="xlines crisp" transform="translate(60,60)" d="M-1,330.5h541" style="fill: none; stroke-width: 1px; stroke: rgb(0, 0, 0); stroke-opacity: 0;"/><path class="ylines crisp" transform="translate(60,60)" d="M-0.5,-1v331" stroke-width="1px" style="fill: none; stroke: rgb(0, 0, 0); stroke-opacity: 0;"/><g class="overlines"/><g class="xaxislayer" transform="translate(60,60)"><g class="xtick" data-bb="6556"><text text-anchor="middle" x="0" y="344" transform="translate(86.71,0)" style="font-family: 'Open Sans', verdana, arial, sans-serif; font-size: 12px; fill: rgb(68, 68, 68); fill-opacity: 1; visibility: visible; white-space: pre;" data-bb="6549">200</text></g><g class="xtick" data-bb="6557"><text text-anchor="middle" x="0" y="344" transform="translate(173.86,0)" style="font-family: 'Open Sans', verdana, arial, sans-serif; font-size: 12px; fill: rgb(68, 68, 68); fill-opacity: 1; visibility: visible; white-space: pre;" data-bb="6550">400</text></g><g class="xtick" data-bb="6558"><text text-anchor="middle" x="0" y="344" transform="translate(261,0)" style="font-family: 'Open Sans', verdana, arial, sans-serif; font-size: 12px; fill: rgb(68, 68, 68); fill-opacity: 1; visibility: visible; white-space: pre;" data-bb="6551">600</text></g><g class="xtick" data-bb="6559"><text text-anchor="middle" x="0" y="344" transform="translate(348.15,0)" style="font-family: 'Open Sans', verdana, arial, sans-serif; font-size: 12px; fill: rgb(68, 68, 68); fill-opacity: 1; visibility: visible; white-space: pre;" data-bb="6552">800</text></g><g class="xtick" data-bb="6560"><text text-anchor="middle" x="0" y="344" transform="translate(435.3,0)" style="font-family: 'Open Sans', verdana, arial, sans-serif; font-size: 12px; fill: rgb(68, 68, 68); fill-opacity: 1; visibility: visible; white-space: pre;" data-bb="6553">1000</text></g><g class="xtick" data-bb="6561"><text text-anchor="middle" x="0" y="344" transform="translate(522.44,0)" style="font-family: 'Open Sans', verdana, arial, sans-serif; font-size: 12px; fill: rgb(68, 68, 68); fill-opacity: 1; visibility: visible; white-space: pre;" data-bb="6554">1200</text></g></g><g class="yaxislayer" transform="translate(60,60)"><g class="ytick" data-bb="6563"><text text-anchor="end" x="-2" y="6" transform="translate(0,313.5)" style="font-family: 'Open Sans', verdana, arial, sans-serif; font-size: 12px; fill: rgb(68, 68, 68); fill-opacity: 1; visibility: visible; white-space: pre;">0</text></g><g class="ytick" data-bb="6564"><text text-anchor="end" x="-2" y="6" transform="translate(0,276.01)" style="font-family: 'Open Sans', verdana, arial, sans-serif; font-size: 12px; fill: rgb(68, 68, 68); fill-opacity: 1; visibility: visible; white-space: pre;">200</text></g><g class="ytick" data-bb="6565"><text text-anchor="end" x="-2" y="6" transform="translate(0,238.51)" style="font-family: 'Open Sans', verdana, arial, sans-serif; font-size: 12px; fill: rgb(68, 68, 68); fill-opacity: 1; visibility: visible; white-space: pre;">400</text></g><g class="ytick" data-bb="6566"><text text-anchor="end" x="-2" y="6" transform="translate(0,201.02)" style="font-family: 'Open Sans', verdana, arial, sans-serif; font-size: 12px; fill: rgb(68, 68, 68); fill-opacity: 1; visibility: visible; white-space: pre;">600</text></g><g class="ytick" data-bb="6567"><text text-anchor="end" x="-2" y="6" transform="translate(0,163.53)" style="font-family: 'Open Sans', verdana, arial, sans-serif; font-size: 12px; fill: rgb(68, 68, 68); fill-opacity: 1; visibility: visible; white-space: pre;">800</text></g><g class="ytick" data-bb="6568"><text text-anchor="end" x="-2" y="6" transform="translate(0,126.03)" style="font-family: 'Open Sans', verdana, arial, sans-serif; font-size: 12px; fill: rgb(68, 68, 68); fill-opacity: 1; visibility: visible; white-space: pre;">1000</text></g><g class="ytick" data-bb="6569"><text text-anchor="end" x="-2" y="6" transform="translate(0,88.54)" style="font-family: 'Open Sans', verdana, arial, sans-serif; font-size: 12px; fill: rgb(68, 68, 68); fill-opacity: 1; visibility: visible; white-space: pre;">1200</text></g><g class="ytick" data-bb="6570"><text text-anchor="end" x="-2" y="6" transform="translate(0,51.05)" style="font-family: 'Open Sans', verdana, arial, sans-serif; font-size: 12px; fill: rgb(68, 68, 68); fill-opacity: 1; visibility: visible; white-space: pre;">1400</text></g><g class="ytick" data-bb="6571"><text text-anchor="end" x="-2" y="6" transform="translate(0,13.56)" style="font-family: 'Open Sans', verdana, arial, sans-serif; font-size: 12px; fill: rgb(68, 68, 68); fill-opacity: 1; visibility: visible; white-space: pre;">1600</text></g></g><g class="overaxes"/></g></g><g class="ternarylayer"/><g class="geolayer"/><g class="layer-above"><g class="imagelayer"/><g class="shapelayer"/></g><g class="pielayer"/><g class="glimages"/><defs id="topdefs-2c46ce"><clipPath id="legend2c46ce"><rect width="78" height="48" x="0" y="0"/></clipPath></defs><g class="infolayer"><g class="g-gtitle"><text class="gtitle" x="350" y="30" text-anchor="middle" style="font-family: 'Open Sans', verdana, arial, sans-serif; font-size: 17px; fill: rgb(68, 68, 68); opacity: 1; font-weight: normal; white-space: pre; visibility: visible;">avenue: video_01</text></g><g class="g-xtitle" data-bb="6555"><text class="xtitle" x="329.5" y="442" text-anchor="middle" style="font-family: 'Open Sans', verdana, arial, sans-serif; font-size: 14px; fill: rgb(68, 68, 68); opacity: 1; font-weight: normal; white-space: pre; visibility: visible;">sample index</text></g><g class="g-ytitle" data-bb="6562" transform="translate(-1,0)"><text class="ytitle" transform="rotate(-90,22,225) translate(0, 0)" x="22" y="225" text-anchor="middle" style="font-family: 'Open Sans', verdana, arial, sans-serif; font-size: 14px; fill: rgb(68, 68, 68); opacity: 1; font-weight: normal; white-space: pre; visibility: visible;">reconstruction cost</text></g><g class="legend" pointer-events="all" transform="translate(609.78, 60)"><rect class="bg" shape-rendering="crispEdges" style="stroke: rgb(68, 68, 68); stroke-opacity: 1; fill: rgb(255, 255, 255); fill-opacity: 1; stroke-width: 0px;" width="78" height="48" x="0" y="0"/><g class="scrollbox" transform="translate(0, 0)" clip-path="url(#legend2c46ce)"><g class="groups"><g class="traces" transform="translate(0, 14.5)" style="opacity: 1;"><g class="layers" style="opacity: 1;"><g class="legendfill"/><g class="legendlines"><path class="js-line" d="M5,0h30" style="fill: none; stroke: rgb(31, 119, 180); stroke-opacity: 1; stroke-width: 2px;"/></g><g class="legendsymbols"><g class="legendpoints"/></g></g><text class="legendtext user-select-none" x="40" y="4.680000000000001" style="text-anchor: start; font-family: 'Open Sans', verdana, arial, sans-serif; font-size: 12px; fill: rgb(68, 68, 68); fill-opacity: 1; white-space: pre; visibility: visible;" data-bb="6572">recon</text><rect class="legendtoggle" pointer-events="all" style="cursor: pointer; fill: rgb(0, 0, 0); fill-opacity: 0;" x="0" y="-9.5" width="118" height="19"/></g><g class="traces" transform="translate(0, 33.5)" style="opacity: 1;"><g class="layers" style="opacity: 1;"><g class="legendfill"/><g class="legendlines"><path class="js-line" d="M5,0h30" style="fill: none; stroke: rgb(255, 127, 14); stroke-opacity: 1; stroke-width: 2px;"/></g><g class="legendsymbols"><g class="legendpoints"/></g></g><text class="legendtext user-select-none" x="40" y="4.680000000000001" style="text-anchor: start; font-family: 'Open Sans', verdana, arial, sans-serif; font-size: 12px; fill: rgb(68, 68, 68); fill-opacity: 1; white-space: pre; visibility: visible;" data-bb="6573">zero</text><rect class="legendtoggle" pointer-events="all" x="0" y="-9.5" width="118" height="19" style="cursor: pointer; fill: rgb(0, 0, 0); fill-opacity: 0;"/></g></g></g><rect class="scrollbar" rx="20" ry="2" width="0" height="0" style="fill: rgb(128, 139, 164); fill-opacity: 1;"/></g></g></svg>